<?xml version="1.0" encoding="UTF-8" standalone="no"?>
<svg
   id="Layer_1"
   data-name="Layer 1"
   width="544"
   height="340"
   viewBox="0 0 544 340"
   version="1.1"
   sodipodi:docname="SEO_27333_Where_Does_the_Wastewater_Go-01.svg"
   inkscape:version="1.4.2 (ebf0e940, 2025-05-08)"
   xmlns:inkscape="http://www.inkscape.org/namespaces/inkscape"
   xmlns:sodipodi="http://sodipodi.sourceforge.net/DTD/sodipodi-0.dtd"
   xmlns="http://www.w3.org/2000/svg"
   xmlns:svg="http://www.w3.org/2000/svg">
  <sodipodi:namedview
     id="namedview174"
     pagecolor="#070707"
     bordercolor="#000000"
     borderopacity="0.25"
     inkscape:showpageshadow="2"
     inkscape:pageopacity="0.0"
     inkscape:pagecheckerboard="0"
     inkscape:deskcolor="#d1d1d1"
     inkscape:zoom="1.2320622"
     inkscape:cx="291.38138"
     inkscape:cy="214.27489"
     inkscape:window-width="1440"
     inkscape:window-height="847"
     inkscape:window-x="0"
     inkscape:window-y="25"
     inkscape:window-maximized="0"
     inkscape:current-layer="Layer_1" />
  <defs
     id="defs1">
    <style
       id="style1">
      .cls-1 {
        fill: #95b5dc;
      }

      .cls-1, .cls-2, .cls-3, .cls-4, .cls-5, .cls-6, .cls-7, .cls-8, .cls-9, .cls-10, .cls-11, .cls-12, .cls-13, .cls-14 {
        stroke-width: 0px;
      }

      .cls-15, .cls-16, .cls-17, .cls-6, .cls-18, .cls-19, .cls-20, .cls-21, .cls-22 {
        fill: none;
      }

      .cls-15, .cls-17 {
        stroke: #fff;
      }

      .cls-15, .cls-23, .cls-19 {
        stroke-linejoin: round;
      }

      .cls-15, .cls-20, .cls-22 {
        stroke-width: 2px;
      }

      .cls-2 {
        fill: #f4676c;
      }

      .cls-3 {
        fill: #4e34bc;
      }

      .cls-16 {
        stroke-dasharray: 0 2;
      }

      .cls-16, .cls-17, .cls-18, .cls-20, .cls-21, .cls-22 {
        stroke-miterlimit: 10;
      }

      .cls-16, .cls-21 {
        stroke: #4d4d4d;
      }

      .cls-17, .cls-23, .cls-18, .cls-19 {
        stroke-width: .75px;
      }

      .cls-23, .cls-19, .cls-22 {
        stroke: #f1f1f1;
      }

      .cls-23, .cls-13 {
        fill: #f1f1f1;
      }

      .cls-4 {
        fill: #1a9ebf;
      }

      .cls-5 {
        fill: none;
      }

      .cls-7 {
        fill: #ff921e;
      }

      .cls-8 {
        fill: #bb0f21;
      }

      .cls-18 {
        stroke: gray;
      }

      .cls-9 {
        fill: #edee78;
      }

      .cls-10, .cls-11 {
        fill: #fff;
      }

      .cls-20 {
        stroke: #bccbd3;
      }

      .cls-11 {
        fill-rule: evenodd;
      }

      .cls-22 {
        stroke-dasharray: 0 3;
      }

      .cls-12 {
        fill: #bccbd3;
      }

      .cls-14 {
        fill: #5cb6cd;
      }
    </style>
  </defs>
  <g
     id="Hintergrund"
     transform="translate(-0.8116473,-27.596008)">
    <rect
       class="cls-5"
       y="0.47999999"
       width="544"
       height="340"
       id="rect1"
       x="0"
       inkscape:label="rect1" />
    <polygon
       class="cls-7"
       points="356.28,214.85 193.64,214.85 193.64,273.57 199.77,273.57 200.28,221.23 349.9,221.49 349.9,223.79 347.09,222.76 347.35,233.74 360.37,233.62 360.37,223.53 356.15,223.66 356.28,219.7 "
       id="polygon1" />
    <rect
       class="cls-7"
       x="109.87"
       y="271.19"
       width="112.75"
       height="48.490002"
       id="rect2" />
    <polygon
       class="cls-2"
       points="229.39,170.04 242.79,181.82 244.32,194.65 238.77,196.47 238,202.4 300.49,252.96 304.96,255.7 337.9,255.7 338.66,240.89 346.58,233.36 359.73,232.85 368.41,242.55 370.58,252.96 465.81,251.36 465.81,174.85 460.23,170.94 483.43,171 476.22,176.04 477.3,262.59 473.22,265.15 370.32,263.87 363.72,269.58 349.39,271.27 342.75,266.42 336.62,260.3 302.15,260.55 291.05,256.34 256.93,229.39 228.9,204.91 228.37,198.44 222.62,193.08 223.64,171.96 "
       id="polygon2" />
    <path
       class="cls-8"
       d="m 116.31,174.85 1.37,-2.89 43.54,9.04 17.36,7.32 -3.58,1.68 0.9,41.23 85.78,1.48 c 0,0 11.88,3.5 19.22,11.54 7.34,8.04 18.44,15.19 22.53,15.19 4.09,0 34.6,-0.76 35.87,0 1.27,0.76 5.36,10.34 12,10.34 4.63,-0.12 9.22,-0.78 13.7,-1.95 l -5.62,7.91 h -11.46 l -11.3,-12.51 -38.3,-1 -7.27,-5.87 -16.34,-13 -112.82,0.25 1.62,-54.51 -48.63,0.39 z"
       id="path2" />
    <polygon
       class="cls-8"
       points="37,177.57 48.24,178.21 60.75,166.02 56.92,188.55 52.2,194.17 29.86,194.17 31,180.57 "
       id="polygon3" />
    <path
       class="cls-14"
       d="m 32.15,155.06 h 55.44 v 1.77 h 28.72 v -1.77 h 84.55 l 0.57,1.77 h 23.36 v 1.58 h 56.87 v 4.16 l 14.37,1 v 8.81 h -14.85 v 21.83 h -38.77 c 0,0 -2.11,-22.6 -18,-22.79 -0.44,-1.75 -0.7,-3.55 -0.77,-5.36 h -22.21 v 22.4 L 175,188.33 c 0,0 -1.53,-3.16 -13.11,-5.08 -13.96,-5.46 -28.78,-8.39 -43.76,-8.64 L 116,173.1 v -6.79 l -28.35,-0.1 v 28.44 L 50.91,194 c 0,0 6,-6.37 8.63,-25.33 -5,6.7 -6,12.54 -14.94,11.87 -5.24,-0.39 -3.83,-2.68 -13.6,0 v -25.48 z"
       id="path3" />
    <polygon
       class="cls-1"
       points="306.17,163.53 307.51,155.06 395.22,154.47 395.22,163.34 417.17,164.04 417.92,135.17 441.94,135.7 442.18,132.09 502.06,133.15 502.81,137.19 515.07,137.19 515.07,148.91 502.06,148.91 502.06,157.66 480.24,171.32 461.98,171.32 442.45,158.17 442.58,148.21 427,149.49 426.49,174.44 397.42,173.87 393.43,179.49 393.56,203.93 305.35,203.93 305.6,172.98 292.77,172.85 292.77,163.53 "
       id="polygon4" />
    <path
       class="cls-15"
       d="M 299.57,253 238,202.4 c 0,0 -1.34,-7.66 4.41,-8.23 h 38.77 v -21.83 h 25.19 v 30.92 l 88.18,-0.47 v -28.34 h 33.22 v -26.24 h 14.17 v 11 l 22.79,15.32 v 77.84 l -95.56,0.58 0.2,-11.11 -9.2,-9.67 -0.57,-9.1 -3.64,-0.19"
       id="path4" />
    <polyline
       class="cls-15"
       points="335.98 263.19 347.92 275.74 358.26 275.74 368.41 266.17 368.41 263.87 476.22 263.87 476.22 175.02 502.06 159.13 502.06 148.91 515.07 148.91"
       id="polyline4" />
    <polyline
       class="cls-15"
       points="306.17 155.06 306.17 163.53 280.9 163.53 280.9 153.29"
       id="polyline5" />
    <polyline
       class="cls-15"
       points="87.59 153.29 87.59 156.83 116.31 156.83 116.31 153.29"
       id="polyline6" />
    <polyline
       class="cls-15"
       points="201.43 153.29 201.43 156.83 223.64 156.83 223.64 153.29"
       id="polyline7" />
    <polygon
       class="cls-15"
       points="201.43,166.02 223.64,166.02 223.64,193.79 227.57,198.29 227.57,203.74 260.12,232.18 175,232.18 175,188.33 201.43,188.42 "
       id="polygon7" />
    <line
       class="cls-20"
       x1="206.41"
       y1="173.49001"
       x2="216.57001"
       y2="173.49001"
       id="line7" />
    <polygon
       class="cls-12"
       points="220.42,173.54 215.26,171.59 215.26,175.5 "
       id="polygon8" />
    <line
       class="cls-20"
       x1="286.20001"
       y1="180.14999"
       x2="298.44"
       y2="180.14999"
       id="line8" />
    <polygon
       class="cls-12"
       points="302.29,180.2 297.13,178.25 297.13,182.16 "
       id="polygon9" />
    <polyline
       class="cls-20"
       points="454.96 215.3 454.94 243.38 420.19 243.48"
       id="polyline9" />
    <polygon
       class="cls-12"
       points="416.34,243.44 421.51,245.38 421.5,241.47 "
       id="polygon10" />
    <line
       class="cls-20"
       x1="152.71001"
       y1="218.66"
       x2="152.8"
       y2="228.82001"
       id="line10" />
    <polygon
       class="cls-12"
       points="152.78,232.67 154.69,227.5 150.78,227.53 "
       id="polygon11" />
    <line
       class="cls-20"
       x1="92.830002"
       y1="175.67999"
       x2="107.92"
       y2="175.75"
       id="line11" />
    <polygon
       class="cls-12"
       points="111.77,175.82 106.62,173.84 106.6,177.76 "
       id="polygon12" />
    <path
       class="cls-19"
       d="m 62.7,153.29 c 0,0 -2.8,23.8 -11.28,41.07"
       id="path12" />
    <path
       class="cls-19"
       d="m 63.93,153.18 c 0,0 -2.29,23.82 -10.27,41.18"
       id="path13" />
    <path
       class="cls-19"
       d="m 65.5,153.53 c 0,0 -1.41,23.75 -8.36,41.28"
       id="path14" />
    <path
       class="cls-19"
       d="m 67.06,153.34 c 0,0 -0.41,23.61 -6.74,41.31"
       id="path15" />
    <path
       class="cls-19"
       d="m 69.27,153.21 c 0,0 0.4,23.64 -5.45,41.6"
       id="path16" />
    <path
       class="cls-23"
       d="m 67.06,147.63 c 0,0 5.93,4.1 4.59,6.31 -3.72,0.65 -7.52,0.68 -11.25,0.11 -1.29,-0.77 3,-6.23 4.59,-6.42 0.68,-0.14 1.39,-0.14 2.07,0 z"
       id="path17" />
    <rect
       class="cls-9"
       x="324.94"
       y="146.49001"
       width="6.1900001"
       height="33.959999"
       id="rect17" />
    <ellipse
       class="cls-9"
       cx="328.04001"
       cy="184.10001"
       rx="11.06"
       ry="5.9499998"
       id="ellipse17" />
    <ellipse
       class="cls-9"
       cx="328.04001"
       cy="146.49001"
       rx="3.0999999"
       ry="1.33"
       id="ellipse18" />
    <rect
       class="cls-3"
       x="368.98001"
       y="144.89999"
       width="6.1900001"
       height="33.959999"
       id="rect18" />
    <ellipse
       class="cls-3"
       cx="372.07999"
       cy="144.89999"
       rx="3.0999999"
       ry="1.33"
       id="ellipse19" />
    <path
       class="cls-3"
       d="m 372.08,176.56 c -6.11,0 -11.06,3.21 -11.06,7.17 h 22.12 c 0,-3.96 -4.95,-7.17 -11.06,-7.17 z"
       id="path19" />
    <rect
       class="cls-13"
       x="320.25"
       y="148.21001"
       width="16.370001"
       height="6.6500001"
       id="rect19" />
    <rect
       class="cls-13"
       x="363.89001"
       y="148.21001"
       width="16.370001"
       height="6.6500001"
       id="rect20" />
    <line
       class="cls-16"
       x1="362.35999"
       y1="184.98"
       x2="362.35999"
       y2="196.56"
       id="line20" />
    <line
       class="cls-16"
       x1="365.79999"
       y1="187.50999"
       x2="365.79999"
       y2="199.24001"
       id="line21" />
    <line
       class="cls-16"
       x1="369.20001"
       y1="185.17"
       x2="369.20001"
       y2="196.75"
       id="line22" />
    <line
       class="cls-16"
       x1="372.41"
       y1="187.03999"
       x2="372.41"
       y2="198.75999"
       id="line23" />
    <line
       class="cls-16"
       x1="375.67001"
       y1="185.17"
       x2="375.67001"
       y2="196.75"
       id="line24" />
    <line
       class="cls-16"
       x1="378.73001"
       y1="187.50999"
       x2="378.73001"
       y2="199.24001"
       id="line25" />
    <line
       class="cls-16"
       x1="381.84"
       y1="184.98"
       x2="381.84"
       y2="196.56"
       id="line26" />
    <path
       class="cls-21"
       d="m 334.9,161.42 c 0,0 -24.23,5.37 -11.3,10.06"
       id="path26" />
    <path
       class="cls-21"
       d="m 332.41,173.2 c 0,0 5.36,2.32 2.49,3.36 -2.87,1.04 -15.7,0.19 -17.33,3.59"
       id="path27" />
    <path
       class="cls-21"
       d="m 339.09,185.17 c 0,0 5.86,2.58 1.65,3.73 -4.21,1.15 -25.37,2.35 -18.29,4.48"
       id="path28" />
    <circle
       class="cls-6"
       cx="360.07999"
       cy="159.32001"
       r="1.34"
       id="circle28" />
    <circle
       class="cls-4"
       cx="360.07999"
       cy="159.32001"
       r="1.34"
       id="circle29" />
    <circle
       class="cls-4"
       cx="365.23001"
       cy="162.13"
       r="1.34"
       id="circle30" />
    <circle
       class="cls-4"
       cx="357.39999"
       cy="164.81"
       r="1.34"
       id="circle31" />
    <circle
       class="cls-4"
       cx="361.67001"
       cy="168.03"
       r="1.34"
       id="circle32" />
    <circle
       class="cls-4"
       cx="356.06"
       cy="171.48"
       r="1.34"
       id="circle33" />
    <circle
       class="cls-4"
       cx="365"
       cy="171.96001"
       r="1.34"
       id="circle34" />
    <circle
       class="cls-4"
       cx="359.67999"
       cy="174.53999"
       r="1.34"
       id="circle35" />
    <circle
       class="cls-4"
       cx="358.34"
       cy="180.14999"
       r="1.34"
       id="circle36" />
    <circle
       class="cls-4"
       cx="356.06"
       cy="184.98"
       r="1.34"
       id="circle37" />
    <circle
       class="cls-4"
       cx="357.78"
       cy="188.71001"
       r="1.34"
       id="circle38" />
    <circle
       class="cls-4"
       cx="353.95001"
       cy="192.89999"
       r="1.34"
       id="circle39" />
    <circle
       class="cls-4"
       cx="358.34"
       cy="196.56"
       r="1.34"
       id="circle40" />
    <circle
       class="cls-4"
       cx="387.64001"
       cy="184.81"
       r="1.34"
       id="circle41" />
    <circle
       class="cls-4"
       cx="389.48999"
       cy="189.62"
       r="1.34"
       id="circle42" />
    <circle
       class="cls-4"
       cx="386.29999"
       cy="194.72"
       r="1.34"
       id="circle43" />
    <circle
       class="cls-4"
       cx="378.01001"
       cy="197.89999"
       r="1.34"
       id="circle44" />
    <circle
       class="cls-4"
       cx="368.17999"
       cy="198.41"
       r="1.34"
       id="circle45" />
    <circle
       class="cls-4"
       cx="378.01001"
       cy="157.34"
       r="1.34"
       id="circle46" />
    <circle
       class="cls-4"
       cx="378.01001"
       cy="162.13"
       r="1.34"
       id="circle47" />
    <circle
       class="cls-4"
       cx="381.84"
       cy="159.75999"
       r="1.34"
       id="circle48" />
    <circle
       class="cls-4"
       cx="384.20001"
       cy="165.57001"
       r="1.34"
       id="circle49" />
    <circle
       class="cls-4"
       cx="378.73001"
       cy="168.45"
       r="1.34"
       id="circle50" />
    <circle
       class="cls-4"
       cx="383.38"
       cy="175.49001"
       r="1.34"
       id="circle51" />
    <circle
       class="cls-4"
       cx="378.01001"
       cy="175.49001"
       r="1.34"
       id="circle52" />
    <circle
       class="cls-4"
       cx="385.23001"
       cy="180.14999"
       r="1.34"
       id="circle53" />
    <circle
       class="cls-4"
       cx="382.54999"
       cy="171.48"
       r="1.34"
       id="circle54" />
    <path
       class="cls-22"
       d="m 301.27,254.14 c 1.63,0.72 3.37,1.14 5.14,1.26 2.76,0.2 31.53,-0.3 31.53,-0.3"
       id="path54" />
    <path
       class="cls-22"
       d="m 295.9,260.87 2.36,0.06 c 2.62,0.12 36,1.47 36,1.47"
       id="path55" />
    <polyline
       class="cls-15"
       points="337.12 256.66 337.94 240.51 347.31 232.08 347.1 223.22 350.13 223.02"
       id="polyline55" />
    <ellipse
       class="cls-9"
       cx="328.04001"
       cy="154.62"
       rx="3.0999999"
       ry="1.33"
       id="ellipse55" />
    <ellipse
       class="cls-3"
       cx="372.07999"
       cy="155.06"
       rx="3.0999999"
       ry="1.33"
       id="ellipse56" />
    <rect
       class="cls-9"
       x="114.88"
       y="275.73999"
       width="102.69"
       height="39.130001"
       id="rect56" />
    <line
       class="cls-18"
       x1="350.64001"
       y1="226.23"
       x2="350.64001"
       y2="231.57001"
       id="line56" />
    <line
       class="cls-18"
       x1="353.03"
       y1="226.23"
       x2="353.03"
       y2="231.57001"
       id="line57" />
    <line
       class="cls-18"
       x1="356.06"
       y1="226.23"
       x2="356.06"
       y2="231.57001"
       id="line58" />
    <polyline
       class="cls-15"
       points="294.24 259.92 275.54 244.43 162.75 244.43 162.75 188.71 116.03 189.09 116.03 166.31 87.69 166.21 87.69 194.65 31 193.69 31 153.29"
       id="polyline58" />
    <polyline
       class="cls-15"
       points="515.07 137.19 502.06 137.19 502.06 133.15 443.49 133.15 442.55 133.15 441.94 135.7 417.92 135.17 417.17 164.04 395.22 163.34 395.22 151.54"
       id="polyline59" />
    <path
       class="cls-14"
       d="m 282.43,136 h -20.7 c -2.63,0 -8.25,1 -11.14,5.35 -2.89,4.35 -3.16,11.32 -3.16,11.32 0,0 3.77,3.51 10.7,0 -0.08,-2.63 0.09,-3.86 0.88,-4.83 0.79,-0.97 2.55,-2.28 6.32,-2.28 3.77,0 17.1,0.09 17.1,0.09 z"
       id="path59" />
  </g>
  <line
     class="cls-17"
     x1="52.848354"
     y1="107.93399"
     x2="52.848354"
     y2="119.95399"
     id="line59" />
  <line
     class="cls-17"
     x1="158.05835"
     y1="107.93399"
     x2="158.05835"
     y2="119.95399"
     id="line60" />
  <line
     class="cls-17"
     x1="242.20836"
     y1="80.633995"
     x2="242.20836"
     y2="119.95399"
     id="line61" />
  <line
     class="cls-17"
     x1="354.31836"
     y1="99.233994"
     x2="354.31836"
     y2="119.95399"
     id="line62" />
  <line
     class="cls-17"
     x1="352.21835"
     y1="253.76398"
     x2="352.21835"
     y2="265.444"
     id="line63" />
  <line
     class="cls-17"
     x1="458.58835"
     y1="61.513992"
     x2="458.58835"
     y2="99.233994"
     id="line64" />
  <g
     id="g98"
     transform="translate(-0.8116473,-27.596008)" />
  <g
     id="g104"
     transform="translate(-0.8116473,-27.596008)">
    <path
       class="cls-10"
       d="m 38.56,120.97 -0.94,1.04 c -0.94,-0.76 -1.8,-1.08 -2.83,-1.08 -1.24,0 -2.23,0.58 -2.23,1.76 0,1.04 0.49,1.55 2.72,2.23 1.98,0.61 3.67,1.39 3.67,3.76 0,2.16 -1.64,3.67 -4.43,3.67 -1.78,0 -3.19,-0.59 -4.21,-1.6 l 0.94,-1.04 c 0.94,0.76 1.91,1.24 3.26,1.24 1.46,0 2.66,-0.72 2.66,-2.21 0,-1.21 -0.58,-1.75 -2.68,-2.4 -2.41,-0.74 -3.67,-1.66 -3.67,-3.58 0,-1.92 1.62,-3.24 3.91,-3.24 1.71,0 2.79,0.5 3.84,1.44 z"
       id="path99" />
    <path
       class="cls-10"
       d="m 47.74,123.47 -0.79,1.04 c -0.65,-0.47 -1.24,-0.7 -2.03,-0.7 -1.49,0 -2.43,1.17 -2.43,3.64 0,2.47 0.94,3.51 2.43,3.51 0.79,0 1.35,-0.25 2.07,-0.72 l 0.76,1.08 c -0.85,0.68 -1.8,1.04 -2.9,1.04 -2.56,0 -4.14,-1.82 -4.14,-4.88 0,-3.06 1.57,-5.04 4.14,-5.04 1.12,0 2.02,0.29 2.9,1.03 z"
       id="path100" />
    <path
       class="cls-10"
       d="m 54.99,122.55 -0.31,1.62 c -0.29,-0.07 -0.49,-0.11 -0.83,-0.11 -1.19,0 -1.87,0.85 -2.27,2.67 v 5.42 h -1.66 v -9.49 h 1.42 l 0.16,1.93 c 0.5,-1.42 1.39,-2.14 2.54,-2.14 0.31,0 0.65,0.04 0.94,0.11 z"
       id="path101" />
    <path
       class="cls-10"
       d="M 63.65,127.97 H 57.6 c 0.16,2.2 1.19,3.04 2.56,3.04 0.94,0 1.64,-0.25 2.47,-0.83 l 0.72,0.99 c -0.94,0.74 -2,1.19 -3.31,1.19 -2.65,0 -4.2,-1.85 -4.2,-4.86 0,-3.01 1.49,-5.06 3.94,-5.06 2.45,0 3.91,1.78 3.91,4.68 0,0.32 -0.02,0.63 -0.04,0.85 z m -1.6,-1.33 c 0,-1.85 -0.74,-2.88 -2.23,-2.88 -1.26,0 -2.09,0.88 -2.21,2.99 h 4.45 v -0.11 z"
       id="path102" />
    <path
       class="cls-10"
       d="m 73.44,127.97 h -6.05 c 0.16,2.2 1.19,3.04 2.56,3.04 0.94,0 1.64,-0.25 2.47,-0.83 l 0.72,0.99 c -0.94,0.74 -2,1.19 -3.31,1.19 -2.65,0 -4.2,-1.85 -4.2,-4.86 0,-3.01 1.49,-5.06 3.94,-5.06 2.45,0 3.91,1.78 3.91,4.68 0,0.32 -0.02,0.63 -0.04,0.85 z m -1.6,-1.33 c 0,-1.85 -0.74,-2.88 -2.23,-2.88 -1.26,0 -2.09,0.88 -2.21,2.99 h 4.45 v -0.11 z"
       id="path103" />
    <path
       class="cls-10"
       d="m 83.27,125.34 v 6.81 h -1.66 v -6.57 c 0,-1.42 -0.58,-1.84 -1.49,-1.84 -1.06,0 -1.78,0.67 -2.41,1.67 v 6.73 h -1.66 v -9.49 h 1.42 l 0.14,1.4 c 0.65,-0.97 1.66,-1.62 2.9,-1.62 1.75,0 2.75,1.1 2.75,2.9 z"
       id="path104" />
  </g>
  <g
     id="g115"
     transform="translate(-0.8116473,-27.596008)">
    <path
       class="cls-10"
       d="m 116.7,120.37 -1.01,1.04 c -0.86,-0.7 -1.6,-1.01 -2.72,-1.01 -1.78,0 -3.56,1.35 -3.56,5.01 0,3.66 1.21,5.02 3.38,5.02 0.83,0 1.66,-0.16 2.36,-0.56 v -3.75 h -2.2 l -0.2,-1.39 h 4.09 v 6 c -1.17,0.67 -2.47,1.1 -4.05,1.1 -3.21,0 -5.2,-2.14 -5.2,-6.43 0,-4.29 2.52,-6.41 5.38,-6.41 1.64,0 2.66,0.49 3.73,1.37 z"
       id="path105" />
    <path
       class="cls-10"
       d="m 124.67,122.03 -0.31,1.62 c -0.29,-0.07 -0.49,-0.11 -0.83,-0.11 -1.19,0 -1.87,0.85 -2.27,2.67 v 5.42 h -1.66 v -9.49 h 1.42 l 0.16,1.93 c 0.5,-1.42 1.39,-2.14 2.54,-2.14 0.31,0 0.65,0.04 0.94,0.11 z"
       id="path106" />
    <path
       class="cls-10"
       d="m 128.49,118.71 c 0,0.63 -0.47,1.12 -1.17,1.12 -0.7,0 -1.15,-0.49 -1.15,-1.12 0,-0.63 0.47,-1.13 1.15,-1.13 0.68,0 1.17,0.49 1.17,1.13 z m -0.32,12.91 h -1.66 v -9.49 h 1.66 z"
       id="path107" />
    <path
       class="cls-10"
       d="m 136.32,131.19 c -0.63,0.43 -1.31,0.65 -2.12,0.65 -1.6,0 -2.56,-0.94 -2.56,-2.7 v -5.73 h -1.66 v -1.28 h 1.66 v -2.14 l 1.66,-0.2 v 2.34 h 2.25 l -0.18,1.28 h -2.07 v 5.65 c 0,0.95 0.31,1.4 1.13,1.4 0.41,0 0.79,-0.13 1.26,-0.38 l 0.63,1.1 z"
       id="path108" />
    <path
       class="cls-10"
       d="m 150.67,120.23 -0.94,1.1 c -0.77,-0.63 -1.53,-0.92 -2.39,-0.92 -1.87,0 -3.44,1.26 -3.44,5.01 0,3.75 1.49,4.99 3.42,4.99 1.17,0 1.94,-0.5 2.65,-1.03 l 0.85,1.08 c -0.68,0.7 -1.87,1.39 -3.55,1.39 -3.01,0 -5.19,-2.25 -5.19,-6.43 0,-4.18 2.34,-6.41 5.15,-6.41 1.57,0 2.45,0.43 3.44,1.22 z"
       id="path109" />
    <path
       class="cls-10"
       d="m 159.86,124.82 v 6.81 h -1.66 v -6.57 c 0,-1.42 -0.61,-1.84 -1.51,-1.84 -1.03,0 -1.76,0.67 -2.39,1.66 v 6.75 h -1.66 v -13.29 l 1.66,-0.18 v 5.29 c 0.68,-0.94 1.62,-1.53 2.81,-1.53 1.73,0 2.75,1.12 2.75,2.9 z"
       id="path110" />
    <path
       class="cls-10"
       d="m 170.21,130.69 -0.38,1.15 c -0.95,-0.11 -1.57,-0.49 -1.85,-1.42 -0.67,0.99 -1.67,1.42 -2.83,1.42 -1.89,0 -3.02,-1.17 -3.02,-2.86 0,-2.03 1.53,-3.13 4.18,-3.13 h 1.46 v -0.7 c 0,-1.37 -0.67,-1.87 -1.98,-1.87 -0.7,0 -1.58,0.18 -2.56,0.5 l -0.41,-1.21 c 1.17,-0.43 2.21,-0.65 3.28,-0.65 2.29,0 3.33,1.17 3.33,3.15 v 4.34 c 0,0.83 0.31,1.1 0.79,1.28 z m -2.45,-1.57 v -2.18 h -1.24 c -1.75,0 -2.63,0.65 -2.63,1.94 0,1.12 0.56,1.71 1.64,1.71 0.97,0 1.69,-0.49 2.23,-1.48 z"
       id="path111" />
    <path
       class="cls-10"
       d="m 184.87,124.82 v 6.81 h -1.66 v -6.57 c 0,-1.42 -0.61,-1.84 -1.33,-1.84 -1.03,0 -1.58,0.67 -2.23,1.67 v 6.73 h -1.66 v -6.57 c 0,-1.42 -0.61,-1.84 -1.33,-1.84 -1.03,0 -1.6,0.67 -2.23,1.67 v 6.73 h -1.66 v -9.49 h 1.42 l 0.14,1.39 c 0.63,-0.95 1.5,-1.6 2.74,-1.6 1.17,0 2.03,0.63 2.39,1.71 0.68,-1.03 1.55,-1.71 2.83,-1.71 1.55,0 2.57,1.12 2.57,2.9 z"
       id="path112" />
    <path
       class="cls-10"
       d="m 195.94,126.87 c 0,2.97 -1.42,4.97 -3.73,4.97 -1.04,0 -1.87,-0.47 -2.52,-1.26 l -0.16,1.04 h -1.46 v -13.31 l 1.66,-0.2 v 5.2 c 0.65,-0.88 1.53,-1.4 2.68,-1.4 2.14,0 3.53,1.78 3.53,4.95 z m -1.78,0 c 0,-2.7 -0.88,-3.64 -2.21,-3.64 -1.04,0 -1.73,0.72 -2.21,1.48 v 4.54 c 0.49,0.76 1.24,1.28 2.09,1.28 1.39,0 2.34,-1.06 2.34,-3.66 z"
       id="path113" />
    <path
       class="cls-10"
       d="m 205.8,127.45 h -6.05 c 0.16,2.2 1.19,3.04 2.56,3.04 0.94,0 1.64,-0.25 2.47,-0.83 l 0.72,0.99 c -0.94,0.74 -2,1.19 -3.31,1.19 -2.65,0 -4.2,-1.85 -4.2,-4.86 0,-3.01 1.49,-5.06 3.94,-5.06 2.45,0 3.91,1.78 3.91,4.68 0,0.32 -0.02,0.63 -0.04,0.85 z m -1.6,-1.33 c 0,-1.85 -0.74,-2.88 -2.23,-2.88 -1.26,0 -2.09,0.88 -2.21,2.99 h 4.45 v -0.11 z"
       id="path114" />
    <path
       class="cls-10"
       d="m 213.47,122.03 -0.31,1.62 c -0.29,-0.07 -0.49,-0.11 -0.83,-0.11 -1.19,0 -1.87,0.85 -2.27,2.67 v 5.42 h -1.66 v -9.49 h 1.42 l 0.16,1.93 c 0.5,-1.42 1.39,-2.14 2.54,-2.14 0.31,0 0.65,0.04 0.94,0.11 z"
       id="path115" />
  </g>
  <g
     id="g131"
     transform="translate(-0.8116473,-27.596008)">
    <path
       class="cls-10"
       d="m 189.88,94.57 c 0,2.84 -2.07,4.02 -4.81,4.02 h -1.57 v 4.56 h -1.71 V 90.74 h 3.26 c 2.99,0 4.83,1.22 4.83,3.84 z m -1.82,0.02 c 0,-1.85 -1.19,-2.52 -3.02,-2.52 h -1.53 v 5.17 H 185 c 1.84,0 3.06,-0.54 3.06,-2.65 z"
       id="path116" />
    <path
       class="cls-10"
       d="m 196.81,93.54 -0.31,1.62 c -0.29,-0.07 -0.49,-0.11 -0.83,-0.11 -1.19,0 -1.87,0.85 -2.27,2.67 v 5.42 h -1.66 v -9.49 h 1.42 l 0.16,1.93 c 0.5,-1.42 1.39,-2.14 2.54,-2.14 0.31,0 0.65,0.04 0.94,0.11 z"
       id="path117" />
    <path
       class="cls-10"
       d="m 200.63,90.23 c 0,0.63 -0.47,1.12 -1.17,1.12 -0.7,0 -1.15,-0.49 -1.15,-1.12 0,-0.63 0.47,-1.13 1.15,-1.13 0.68,0 1.17,0.49 1.17,1.13 z m -0.32,12.91 h -1.66 v -9.49 h 1.66 z"
       id="path118" />
    <path
       class="cls-10"
       d="m 215.71,96.33 v 6.81 h -1.66 v -6.57 c 0,-1.42 -0.61,-1.84 -1.33,-1.84 -1.03,0 -1.58,0.67 -2.23,1.67 v 6.73 h -1.66 v -6.57 c 0,-1.42 -0.61,-1.84 -1.33,-1.84 -1.03,0 -1.6,0.67 -2.23,1.67 v 6.73 h -1.66 v -9.49 h 1.42 l 0.14,1.39 c 0.63,-0.95 1.49,-1.6 2.74,-1.6 1.17,0 2.03,0.63 2.39,1.71 0.68,-1.03 1.55,-1.71 2.83,-1.71 1.55,0 2.58,1.12 2.58,2.9 z"
       id="path119" />
    <path
       class="cls-10"
       d="m 226.06,102.2 -0.38,1.15 c -0.95,-0.11 -1.57,-0.49 -1.85,-1.42 -0.67,0.99 -1.67,1.42 -2.83,1.42 -1.89,0 -3.02,-1.17 -3.02,-2.86 0,-2.03 1.53,-3.13 4.18,-3.13 h 1.46 v -0.7 c 0,-1.37 -0.67,-1.87 -1.98,-1.87 -0.7,0 -1.58,0.18 -2.56,0.5 l -0.41,-1.21 c 1.17,-0.43 2.21,-0.65 3.28,-0.65 2.29,0 3.33,1.17 3.33,3.15 v 4.34 c 0,0.83 0.31,1.1 0.79,1.28 z m -2.45,-1.57 v -2.18 h -1.24 c -1.75,0 -2.63,0.65 -2.63,1.94 0,1.12 0.56,1.71 1.64,1.71 0.97,0 1.69,-0.49 2.23,-1.48 z"
       id="path120" />
    <path
       class="cls-10"
       d="m 233.67,93.54 -0.31,1.62 c -0.29,-0.07 -0.49,-0.11 -0.83,-0.11 -1.19,0 -1.87,0.85 -2.27,2.67 v 5.42 h -1.66 v -9.49 h 1.42 l 0.16,1.93 c 0.5,-1.42 1.39,-2.14 2.54,-2.14 0.31,0 0.65,0.04 0.94,0.11 z"
       id="path121" />
    <path
       class="cls-10"
       d="m 239.36,103.19 c -0.67,2.02 -1.78,3.49 -4.41,3.78 l -0.18,-1.3 c 1.93,-0.32 2.47,-1.06 3.01,-2.54 h -0.56 l -3.19,-9.49 h 1.76 l 2.54,8.28 2.48,-8.28 h 1.71 l -3.17,9.54 z"
       id="path122" />
    <path
       class="cls-10"
       d="m 257.06,91.74 -0.94,1.1 c -0.77,-0.63 -1.53,-0.92 -2.39,-0.92 -1.87,0 -3.44,1.26 -3.44,5.01 0,3.75 1.5,4.99 3.42,4.99 1.17,0 1.95,-0.5 2.65,-1.03 l 0.85,1.08 c -0.68,0.7 -1.87,1.39 -3.55,1.39 -3.01,0 -5.19,-2.25 -5.19,-6.43 0,-4.18 2.34,-6.41 5.15,-6.41 1.57,0 2.45,0.43 3.44,1.22 z"
       id="path123" />
    <path
       class="cls-10"
       d="M 258.93,101.26 V 89.83 l 1.66,-0.2 v 11.6 c 0,0.5 0.16,0.76 0.59,0.76 0.23,0 0.43,-0.04 0.61,-0.11 l 0.43,1.15 c -0.36,0.2 -0.83,0.32 -1.31,0.32 -1.21,0 -1.98,-0.74 -1.98,-2.09 z"
       id="path124" />
    <path
       class="cls-10"
       d="m 271.38,102.2 -0.38,1.15 c -0.95,-0.11 -1.57,-0.49 -1.85,-1.42 -0.67,0.99 -1.67,1.42 -2.83,1.42 -1.89,0 -3.03,-1.17 -3.03,-2.86 0,-2.03 1.53,-3.13 4.18,-3.13 h 1.46 v -0.7 c 0,-1.37 -0.67,-1.87 -1.98,-1.87 -0.7,0 -1.58,0.18 -2.56,0.5 l -0.41,-1.21 c 1.17,-0.43 2.21,-0.65 3.28,-0.65 2.29,0 3.33,1.17 3.33,3.15 v 4.34 c 0,0.83 0.31,1.1 0.79,1.28 z m -2.45,-1.57 v -2.18 h -1.24 c -1.75,0 -2.63,0.65 -2.63,1.94 0,1.12 0.56,1.71 1.64,1.71 0.97,0 1.69,-0.49 2.23,-1.48 z"
       id="path125" />
    <path
       class="cls-10"
       d="m 275.92,90.23 c 0,0.63 -0.47,1.12 -1.17,1.12 -0.7,0 -1.15,-0.49 -1.15,-1.12 0,-0.63 0.47,-1.13 1.15,-1.13 0.68,0 1.17,0.49 1.17,1.13 z m -0.32,12.91 h -1.66 v -9.49 h 1.66 z"
       id="path126" />
    <path
       class="cls-10"
       d="m 283.96,93.54 -0.31,1.62 c -0.29,-0.07 -0.49,-0.11 -0.83,-0.11 -1.19,0 -1.87,0.85 -2.27,2.67 v 5.42 h -1.66 v -9.49 h 1.42 l 0.16,1.93 c 0.5,-1.42 1.39,-2.14 2.54,-2.14 0.31,0 0.65,0.04 0.94,0.11 z"
       id="path127" />
    <path
       class="cls-10"
       d="m 287.78,90.23 c 0,0.63 -0.47,1.12 -1.17,1.12 -0.7,0 -1.15,-0.49 -1.15,-1.12 0,-0.63 0.47,-1.13 1.15,-1.13 0.68,0 1.17,0.49 1.17,1.13 z m -0.32,12.91 h -1.66 v -9.49 h 1.66 z"
       id="path128" />
    <path
       class="cls-10"
       d="m 292.64,92.33 v 1.31 h 2.3 l -0.18,1.28 h -2.12 v 8.21 h -1.66 v -8.21 h -1.69 v -1.28 h 1.69 v -1.3 c 0,-1.58 1.04,-2.72 2.97,-2.72 0.9,0 1.51,0.16 2.27,0.49 l -0.52,1.21 c -0.61,-0.27 -1.17,-0.36 -1.66,-0.36 -1.04,0 -1.4,0.45 -1.4,1.37 z"
       id="path129" />
    <path
       class="cls-10"
       d="m 303.8,98.96 h -6.05 c 0.16,2.2 1.19,3.04 2.56,3.04 0.94,0 1.64,-0.25 2.47,-0.83 l 0.72,0.99 c -0.94,0.74 -2,1.19 -3.31,1.19 -2.65,0 -4.2,-1.85 -4.2,-4.86 0,-3.01 1.49,-5.06 3.94,-5.06 2.45,0 3.91,1.78 3.91,4.68 0,0.32 -0.02,0.63 -0.04,0.85 z m -1.6,-1.33 c 0,-1.85 -0.74,-2.88 -2.23,-2.88 -1.26,0 -2.09,0.88 -2.21,2.99 h 4.45 v -0.11 z"
       id="path130" />
    <path
       class="cls-10"
       d="m 311.47,93.54 -0.31,1.62 c -0.29,-0.07 -0.49,-0.11 -0.83,-0.11 -1.19,0 -1.87,0.85 -2.27,2.67 v 5.42 h -1.66 v -9.49 h 1.42 l 0.16,1.93 c 0.5,-1.42 1.39,-2.14 2.54,-2.14 0.31,0 0.65,0.04 0.94,0.11 z"
       id="path131" />
  </g>
  <g
     id="g143"
     transform="translate(-0.8116473,-27.596008)">
    <path
       class="cls-10"
       d="m 316.33,119.16 h -4.7 l -0.94,3.11 h -1.73 l 3.98,-12.41 h 2.16 l 3.96,12.41 h -1.8 l -0.94,-3.11 z m -0.41,-1.39 -1.93,-6.48 -1.94,6.48 z"
       id="path132" />
    <path
       class="cls-10"
       d="m 328.01,118.1 h -6.05 c 0.16,2.2 1.19,3.04 2.56,3.04 0.94,0 1.64,-0.25 2.47,-0.83 l 0.72,0.99 c -0.94,0.74 -2,1.19 -3.31,1.19 -2.65,0 -4.2,-1.85 -4.2,-4.86 0,-3.01 1.49,-5.06 3.94,-5.06 2.45,0 3.91,1.78 3.91,4.68 0,0.32 -0.02,0.63 -0.04,0.85 z m -1.6,-1.33 c 0,-1.85 -0.74,-2.88 -2.23,-2.88 -1.26,0 -2.09,0.88 -2.21,2.99 h 4.45 v -0.11 z"
       id="path133" />
    <path
       class="cls-10"
       d="m 335.67,112.68 -0.31,1.62 c -0.29,-0.07 -0.49,-0.11 -0.83,-0.11 -1.19,0 -1.87,0.85 -2.27,2.67 v 5.42 h -1.66 v -9.49 h 1.42 l 0.16,1.93 c 0.5,-1.42 1.39,-2.14 2.54,-2.14 0.31,0 0.65,0.04 0.94,0.11 z"
       id="path134" />
    <path
       class="cls-10"
       d="m 344.3,121.34 -0.38,1.15 c -0.95,-0.11 -1.57,-0.49 -1.85,-1.42 -0.67,0.99 -1.67,1.42 -2.83,1.42 -1.89,0 -3.02,-1.17 -3.02,-2.86 0,-2.03 1.53,-3.13 4.18,-3.13 h 1.46 v -0.7 c 0,-1.37 -0.67,-1.87 -1.98,-1.87 -0.7,0 -1.58,0.18 -2.56,0.5 l -0.41,-1.21 c 1.17,-0.43 2.21,-0.65 3.28,-0.65 2.29,0 3.33,1.17 3.33,3.15 v 4.34 c 0,0.83 0.31,1.1 0.79,1.28 z m -2.45,-1.57 v -2.18 h -1.24 c -1.75,0 -2.63,0.65 -2.63,1.94 0,1.12 0.56,1.71 1.64,1.71 0.97,0 1.69,-0.49 2.23,-1.48 z"
       id="path135" />
    <path
       class="cls-10"
       d="m 351.7,121.84 c -0.63,0.43 -1.31,0.65 -2.12,0.65 -1.6,0 -2.56,-0.94 -2.56,-2.7 v -5.73 h -1.66 v -1.28 h 1.66 v -2.14 l 1.66,-0.2 v 2.34 h 2.25 l -0.18,1.28 h -2.07 v 5.65 c 0,0.95 0.31,1.4 1.13,1.4 0.41,0 0.79,-0.13 1.26,-0.38 l 0.63,1.1 z"
       id="path136" />
    <path
       class="cls-10"
       d="m 355.33,109.37 c 0,0.63 -0.47,1.12 -1.17,1.12 -0.7,0 -1.15,-0.49 -1.15,-1.12 0,-0.63 0.47,-1.13 1.15,-1.13 0.68,0 1.17,0.49 1.17,1.13 z m -0.32,12.91 h -1.66 v -9.49 h 1.66 z"
       id="path137" />
    <path
       class="cls-10"
       d="m 366.15,117.52 c 0,2.94 -1.55,4.97 -4.23,4.97 -2.68,0 -4.23,-1.94 -4.23,-4.95 0,-3.01 1.55,-4.97 4.25,-4.97 2.7,0 4.21,1.94 4.21,4.95 z m -6.68,0.02 c 0,2.47 0.86,3.62 2.45,3.62 1.59,0 2.45,-1.15 2.45,-3.64 0,-2.49 -0.86,-3.62 -2.43,-3.62 -1.57,0 -2.47,1.15 -2.47,3.64 z"
       id="path138" />
    <path
       class="cls-10"
       d="m 376.05,115.47 v 6.81 h -1.66 v -6.57 c 0,-1.42 -0.58,-1.84 -1.49,-1.84 -1.06,0 -1.78,0.67 -2.41,1.67 v 6.73 h -1.66 v -9.49 h 1.42 l 0.14,1.4 c 0.65,-0.97 1.66,-1.62 2.9,-1.62 1.75,0 2.75,1.1 2.75,2.9 z"
       id="path139" />
    <path
       class="cls-10"
       d="m 391.31,111.33 h -3.44 v 10.95 h -1.71 v -10.95 h -3.53 v -1.46 h 8.86 z"
       id="path140" />
    <path
       class="cls-10"
       d="m 399.58,121.34 -0.38,1.15 c -0.95,-0.11 -1.57,-0.49 -1.85,-1.42 -0.67,0.99 -1.67,1.42 -2.83,1.42 -1.89,0 -3.03,-1.17 -3.03,-2.86 0,-2.03 1.53,-3.13 4.18,-3.13 h 1.46 v -0.7 c 0,-1.37 -0.67,-1.87 -1.98,-1.87 -0.7,0 -1.58,0.18 -2.56,0.5 l -0.41,-1.21 c 1.17,-0.43 2.21,-0.65 3.28,-0.65 2.29,0 3.33,1.17 3.33,3.15 v 4.34 c 0,0.83 0.31,1.1 0.79,1.28 z m -2.45,-1.57 v -2.18 h -1.24 c -1.75,0 -2.63,0.65 -2.63,1.94 0,1.12 0.56,1.71 1.64,1.71 0.97,0 1.69,-0.49 2.23,-1.48 z"
       id="path141" />
    <path
       class="cls-10"
       d="m 409.35,115.47 v 6.81 h -1.66 v -6.57 c 0,-1.42 -0.58,-1.84 -1.49,-1.84 -1.06,0 -1.78,0.67 -2.41,1.67 v 6.73 h -1.66 v -9.49 h 1.42 l 0.14,1.4 c 0.65,-0.97 1.66,-1.62 2.9,-1.62 1.75,0 2.75,1.1 2.75,2.9 z"
       id="path142" />
    <path
       class="cls-10"
       d="m 414.21,122.28 h -1.66 v -13.31 l 1.66,-0.2 v 13.5 z m 1.96,-5.29 3.89,5.29 h -1.98 l -3.76,-5.19 3.49,-4.3 h 1.85 z"
       id="path143" />
  </g>
  <g
     id="g160"
     transform="translate(-0.8116473,-27.596008)">
    <path
       class="cls-10"
       d="m 379.54,74.2 -0.94,1.04 c -0.94,-0.76 -1.8,-1.08 -2.83,-1.08 -1.24,0 -2.23,0.58 -2.23,1.76 0,1.04 0.49,1.55 2.72,2.23 1.98,0.61 3.67,1.39 3.67,3.76 0,2.16 -1.64,3.67 -4.43,3.67 -1.78,0 -3.19,-0.59 -4.21,-1.6 l 0.94,-1.04 c 0.94,0.76 1.91,1.24 3.26,1.24 1.46,0 2.66,-0.72 2.66,-2.21 0,-1.21 -0.58,-1.75 -2.68,-2.4 -2.41,-0.74 -3.67,-1.66 -3.67,-3.58 0,-1.92 1.62,-3.24 3.91,-3.24 1.71,0 2.79,0.5 3.83,1.44 z"
       id="path144" />
    <path
       class="cls-10"
       d="m 389.49,81.2 h -6.05 c 0.16,2.2 1.19,3.04 2.56,3.04 0.94,0 1.64,-0.25 2.47,-0.83 l 0.72,0.99 c -0.94,0.74 -2,1.19 -3.31,1.19 -2.65,0 -4.2,-1.85 -4.2,-4.86 0,-3.01 1.49,-5.06 3.94,-5.06 2.45,0 3.91,1.78 3.91,4.68 0,0.32 -0.02,0.63 -0.04,0.85 z m -1.6,-1.33 c 0,-1.85 -0.74,-2.88 -2.23,-2.88 -1.26,0 -2.09,0.88 -2.21,2.99 h 4.45 v -0.11 z"
       id="path145" />
    <path
       class="cls-10"
       d="m 398.51,76.7 -0.79,1.04 c -0.65,-0.47 -1.24,-0.7 -2.03,-0.7 -1.5,0 -2.43,1.17 -2.43,3.64 0,2.47 0.94,3.51 2.43,3.51 0.79,0 1.35,-0.25 2.07,-0.72 l 0.76,1.08 c -0.85,0.68 -1.8,1.04 -2.9,1.04 -2.56,0 -4.14,-1.82 -4.14,-4.88 0,-3.06 1.57,-5.04 4.14,-5.04 1.12,0 2.02,0.29 2.9,1.03 z"
       id="path146" />
    <path
       class="cls-10"
       d="m 408.26,80.62 c 0,2.94 -1.55,4.97 -4.23,4.97 -2.68,0 -4.23,-1.94 -4.23,-4.95 0,-3.01 1.55,-4.97 4.25,-4.97 2.7,0 4.21,1.94 4.21,4.95 z m -6.68,0.02 c 0,2.47 0.86,3.62 2.45,3.62 1.59,0 2.45,-1.15 2.45,-3.64 0,-2.49 -0.86,-3.62 -2.43,-3.62 -1.57,0 -2.47,1.15 -2.47,3.64 z"
       id="path147" />
    <path
       class="cls-10"
       d="m 418.16,78.57 v 6.81 h -1.66 v -6.57 c 0,-1.42 -0.58,-1.84 -1.5,-1.84 -1.06,0 -1.78,0.67 -2.41,1.67 v 6.73 h -1.66 v -9.49 h 1.42 l 0.14,1.4 c 0.65,-0.97 1.66,-1.62 2.9,-1.62 1.75,0 2.75,1.1 2.75,2.9 z"
       id="path148" />
    <path
       class="cls-10"
       d="m 428.68,72.07 v 13.31 h -1.46 l -0.16,-1.31 c -0.61,0.95 -1.57,1.53 -2.74,1.53 -2.3,0 -3.58,-1.96 -3.58,-4.92 0,-2.96 1.4,-5.01 3.73,-5.01 1.12,0 1.93,0.5 2.56,1.17 v -4.97 l 1.66,0.2 z m -1.66,10.8 v -4.65 c -0.59,-0.76 -1.26,-1.24 -2.2,-1.24 -1.42,0 -2.3,1.19 -2.3,3.66 0,2.47 0.79,3.64 2.16,3.64 1.06,0 1.71,-0.52 2.34,-1.4 z"
       id="path149" />
    <path
       class="cls-10"
       d="m 439.13,84.44 -0.38,1.15 c -0.95,-0.11 -1.57,-0.49 -1.85,-1.42 -0.67,0.99 -1.67,1.42 -2.83,1.42 -1.89,0 -3.02,-1.17 -3.02,-2.86 0,-2.03 1.53,-3.13 4.18,-3.13 h 1.46 v -0.7 c 0,-1.37 -0.67,-1.87 -1.98,-1.87 -0.7,0 -1.58,0.18 -2.56,0.5 l -0.41,-1.21 c 1.17,-0.43 2.21,-0.65 3.28,-0.65 2.29,0 3.33,1.17 3.33,3.15 v 4.34 c 0,0.83 0.31,1.1 0.79,1.28 z m -2.45,-1.57 v -2.18 h -1.24 c -1.75,0 -2.63,0.65 -2.63,1.94 0,1.12 0.56,1.71 1.64,1.71 0.97,0 1.69,-0.49 2.23,-1.48 z"
       id="path150" />
    <path
       class="cls-10"
       d="m 446.75,75.78 -0.31,1.62 c -0.29,-0.07 -0.49,-0.11 -0.83,-0.11 -1.19,0 -1.87,0.85 -2.27,2.67 v 5.42 h -1.66 v -9.49 h 1.42 l 0.16,1.93 c 0.5,-1.42 1.39,-2.14 2.54,-2.14 0.31,0 0.65,0.04 0.94,0.11 z"
       id="path151" />
    <path
       class="cls-10"
       d="m 452.43,85.43 c -0.67,2.02 -1.78,3.49 -4.41,3.78 l -0.18,-1.3 c 1.93,-0.32 2.47,-1.06 3.01,-2.54 h -0.56 l -3.19,-9.49 h 1.76 l 2.54,8.28 2.48,-8.28 h 1.71 l -3.17,9.54 z"
       id="path152" />
    <path
       class="cls-10"
       d="m 470.13,73.98 -0.94,1.1 c -0.77,-0.63 -1.53,-0.92 -2.39,-0.92 -1.87,0 -3.44,1.26 -3.44,5.01 0,3.75 1.5,4.99 3.42,4.99 1.17,0 1.95,-0.5 2.65,-1.03 l 0.85,1.08 c -0.68,0.7 -1.87,1.39 -3.55,1.39 -3.01,0 -5.19,-2.25 -5.19,-6.43 0,-4.18 2.34,-6.41 5.15,-6.41 1.57,0 2.45,0.43 3.44,1.22 z"
       id="path153" />
    <path
       class="cls-10"
       d="M 472,83.51 V 72.08 l 1.66,-0.2 v 11.6 c 0,0.5 0.16,0.76 0.59,0.76 0.23,0 0.43,-0.04 0.61,-0.11 l 0.43,1.15 c -0.36,0.2 -0.83,0.32 -1.31,0.32 -1.21,0 -1.98,-0.74 -1.98,-2.09 z"
       id="path154" />
    <path
       class="cls-10"
       d="m 484.46,84.44 -0.38,1.15 c -0.95,-0.11 -1.57,-0.49 -1.85,-1.42 -0.67,0.99 -1.67,1.42 -2.83,1.42 -1.89,0 -3.02,-1.17 -3.02,-2.86 0,-2.03 1.53,-3.13 4.18,-3.13 h 1.46 v -0.7 c 0,-1.37 -0.67,-1.87 -1.98,-1.87 -0.7,0 -1.58,0.18 -2.56,0.5 l -0.41,-1.21 c 1.17,-0.43 2.21,-0.65 3.28,-0.65 2.29,0 3.33,1.17 3.33,3.15 v 4.34 c 0,0.83 0.31,1.1 0.79,1.28 z m -2.45,-1.57 v -2.18 h -1.24 c -1.75,0 -2.63,0.65 -2.63,1.94 0,1.12 0.56,1.71 1.64,1.71 0.97,0 1.69,-0.49 2.23,-1.48 z"
       id="path155" />
    <path
       class="cls-10"
       d="m 492.07,75.78 -0.31,1.62 c -0.29,-0.07 -0.49,-0.11 -0.83,-0.11 -1.19,0 -1.87,0.85 -2.27,2.67 v 5.42 H 487 v -9.49 h 1.42 l 0.16,1.93 c 0.5,-1.42 1.39,-2.14 2.54,-2.14 0.31,0 0.65,0.04 0.94,0.11 z"
       id="path156" />
    <path
       class="cls-10"
       d="m 495.88,72.47 c 0,0.63 -0.47,1.12 -1.17,1.12 -0.7,0 -1.15,-0.49 -1.15,-1.12 0,-0.63 0.47,-1.13 1.15,-1.13 0.68,0 1.17,0.49 1.17,1.13 z m -0.32,12.91 h -1.66 v -9.49 h 1.66 z"
       id="path157" />
    <path
       class="cls-10"
       d="m 504.81,72.52 -0.58,1.15 c -0.59,-0.29 -1.26,-0.45 -2,-0.45 -1.33,0 -1.67,0.5 -1.67,1.4 v 1.26 h 5.29 v 9.49 h -1.66 v -8.21 h -3.64 v 8.21 h -1.66 v -8.21 h -1.51 v -1.28 h 1.51 v -1.24 c 0,-1.6 0.97,-2.77 3.28,-2.77 1.06,0 1.85,0.25 2.63,0.65 z"
       id="path158" />
    <path
       class="cls-10"
       d="m 516.35,81.2 h -6.05 c 0.16,2.2 1.19,3.04 2.56,3.04 0.94,0 1.64,-0.25 2.47,-0.83 l 0.72,0.99 c -0.94,0.74 -2,1.19 -3.31,1.19 -2.65,0 -4.2,-1.85 -4.2,-4.86 0,-3.01 1.49,-5.06 3.94,-5.06 2.45,0 3.91,1.78 3.91,4.68 0,0.32 -0.02,0.63 -0.04,0.85 z m -1.6,-1.33 c 0,-1.85 -0.74,-2.88 -2.23,-2.88 -1.26,0 -2.09,0.88 -2.21,2.99 h 4.45 v -0.11 z"
       id="path159" />
    <path
       class="cls-10"
       d="m 524.02,75.78 -0.31,1.62 c -0.29,-0.07 -0.49,-0.11 -0.83,-0.11 -1.19,0 -1.87,0.85 -2.27,2.67 v 5.42 h -1.66 v -9.49 h 1.42 l 0.16,1.93 c 0.5,-1.42 1.39,-2.14 2.54,-2.14 0.31,0 0.65,0.04 0.94,0.11 z"
       id="path160" />
  </g>
  <g
     id="g174"
     transform="translate(-0.8116473,-27.596008)">
    <path
       class="cls-10"
       d="m 304.84,303.9 c 0,5.06 -3.15,6.27 -5.83,6.27 h -2.97 v -12.41 h 2.59 c 3.17,0 6.21,0.99 6.21,6.14 z m -7.09,-4.77 v 9.69 h 1.39 c 1.94,0 3.89,-0.83 3.89,-4.92 0,-4.09 -2.03,-4.77 -4.01,-4.77 h -1.26 z"
       id="path161" />
    <path
       class="cls-10"
       d="m 309.47,297.26 c 0,0.63 -0.47,1.12 -1.17,1.12 -0.7,0 -1.15,-0.49 -1.15,-1.12 0,-0.63 0.47,-1.13 1.15,-1.13 0.68,0 1.17,0.49 1.17,1.13 z m -0.32,12.91 h -1.66 v -9.49 h 1.66 z"
       id="path162" />
    <path
       class="cls-10"
       d="m 320.16,301.11 c -0.79,0.25 -1.69,0.29 -2.77,0.29 1.12,0.5 1.67,1.3 1.67,2.39 0,1.87 -1.35,3.22 -3.62,3.22 -0.43,0 -0.81,-0.05 -1.21,-0.18 -0.27,0.2 -0.47,0.54 -0.47,0.88 0,0.43 0.27,0.77 1.24,0.77 h 1.51 c 1.94,0 3.24,1.12 3.24,2.63 0,1.84 -1.51,2.88 -4.45,2.88 -3.1,0 -4.07,-0.95 -4.07,-2.88 h 1.49 c 0,1.08 0.49,1.58 2.58,1.58 2.09,0 2.77,-0.52 2.77,-1.48 0,-0.9 -0.72,-1.35 -1.91,-1.35 h -1.5 c -1.69,0 -2.45,-0.85 -2.45,-1.8 0,-0.61 0.36,-1.22 1.04,-1.67 -1.1,-0.58 -1.6,-1.4 -1.6,-2.63 0,-1.94 1.57,-3.31 3.66,-3.31 2.36,0.05 3.22,-0.34 4.34,-0.85 l 0.49,1.5 z m -6.79,2.66 c 0,1.26 0.7,2.14 2,2.14 1.3,0 2,-0.79 2,-2.16 0,-1.37 -0.68,-2.11 -2.03,-2.11 -1.28,0 -1.96,0.88 -1.96,2.12 z"
       id="path163" />
    <path
       class="cls-10"
       d="m 329,305.99 h -6.05 c 0.16,2.2 1.19,3.04 2.56,3.04 0.94,0 1.64,-0.25 2.47,-0.83 l 0.72,0.99 c -0.94,0.74 -2,1.19 -3.31,1.19 -2.65,0 -4.2,-1.85 -4.2,-4.86 0,-3.01 1.49,-5.06 3.94,-5.06 2.45,0 3.91,1.78 3.91,4.68 0,0.32 -0.02,0.63 -0.04,0.85 z m -1.6,-1.33 c 0,-1.85 -0.74,-2.88 -2.23,-2.88 -1.26,0 -2.09,0.88 -2.21,2.99 h 4.45 v -0.11 z"
       id="path164" />
    <path
       class="cls-10"
       d="m 337.46,301.54 -0.7,1.04 c -0.85,-0.54 -1.58,-0.81 -2.47,-0.81 -1.08,0 -1.75,0.49 -1.75,1.24 0,0.75 0.5,1.13 2.04,1.53 2,0.5 3.15,1.3 3.15,2.95 0,1.98 -1.82,2.88 -3.75,2.88 -1.6,0 -2.75,-0.52 -3.58,-1.24 l 0.88,-1.01 c 0.76,0.58 1.64,0.92 2.66,0.92 1.24,0 2.04,-0.54 2.04,-1.44 0,-0.9 -0.47,-1.3 -2.3,-1.78 -2.05,-0.54 -2.86,-1.42 -2.86,-2.75 0,-1.51 1.46,-2.61 3.42,-2.61 1.33,0 2.32,0.4 3.22,1.08 z"
       id="path165" />
    <path
       class="cls-10"
       d="m 344.86,309.74 c -0.63,0.43 -1.31,0.65 -2.12,0.65 -1.6,0 -2.56,-0.94 -2.56,-2.7 v -5.73 h -1.66 v -1.28 h 1.66 v -2.14 l 1.66,-0.2 v 2.34 h 2.25 l -0.18,1.28 h -2.07 v 5.65 c 0,0.95 0.31,1.4 1.13,1.4 0.41,0 0.79,-0.13 1.26,-0.38 l 0.63,1.1 z"
       id="path166" />
    <path
       class="cls-10"
       d="m 348.49,297.26 c 0,0.63 -0.47,1.12 -1.17,1.12 -0.7,0 -1.15,-0.49 -1.15,-1.12 0,-0.63 0.47,-1.13 1.15,-1.13 0.68,0 1.17,0.49 1.17,1.13 z m -0.32,12.91 h -1.66 v -9.49 h 1.66 z"
       id="path167" />
    <path
       class="cls-10"
       d="m 359.31,305.42 c 0,2.94 -1.55,4.97 -4.23,4.97 -2.68,0 -4.23,-1.94 -4.23,-4.95 0,-3.01 1.55,-4.97 4.25,-4.97 2.7,0 4.21,1.94 4.21,4.95 z m -6.68,0.02 c 0,2.47 0.86,3.62 2.45,3.62 1.59,0 2.45,-1.15 2.45,-3.64 0,-2.49 -0.86,-3.62 -2.43,-3.62 -1.57,0 -2.47,1.15 -2.47,3.64 z"
       id="path168" />
    <path
       class="cls-10"
       d="m 369.21,303.36 v 6.81 h -1.66 v -6.57 c 0,-1.42 -0.58,-1.84 -1.49,-1.84 -1.06,0 -1.78,0.67 -2.41,1.67 v 6.73 h -1.66 v -9.49 h 1.42 l 0.14,1.4 c 0.65,-0.97 1.66,-1.62 2.9,-1.62 1.75,0 2.75,1.1 2.75,2.9 z"
       id="path169" />
    <path
       class="cls-10"
       d="m 384.47,299.22 h -3.44 v 10.95 h -1.71 v -10.95 h -3.53 v -1.46 h 8.86 z"
       id="path170" />
    <path
       class="cls-10"
       d="m 393.33,305.42 c 0,2.94 -1.55,4.97 -4.23,4.97 -2.68,0 -4.23,-1.94 -4.23,-4.95 0,-3.01 1.55,-4.97 4.25,-4.97 2.7,0 4.21,1.94 4.21,4.95 z m -6.68,0.02 c 0,2.47 0.86,3.62 2.45,3.62 1.59,0 2.45,-1.15 2.45,-3.64 0,-2.49 -0.86,-3.62 -2.43,-3.62 -1.57,0 -2.47,1.15 -2.47,3.64 z"
       id="path171" />
    <path
       class="cls-10"
       d="m 404.74,310.17 h -2.25 l -1.66,-7.99 -1.71,7.99 h -2.2 l -2.21,-9.49 h 1.66 l 1.71,8.34 1.87,-8.34 h 1.85 l 1.78,8.34 1.73,-8.34 h 1.58 l -2.16,9.49 z"
       id="path172" />
    <path
       class="cls-10"
       d="m 416.1,305.99 h -6.05 c 0.16,2.2 1.19,3.04 2.56,3.04 0.94,0 1.64,-0.25 2.47,-0.83 l 0.72,0.99 c -0.94,0.74 -2,1.19 -3.31,1.19 -2.65,0 -4.2,-1.85 -4.2,-4.86 0,-3.01 1.49,-5.06 3.94,-5.06 2.45,0 3.91,1.78 3.91,4.68 0,0.32 -0.02,0.63 -0.04,0.85 z m -1.6,-1.33 c 0,-1.85 -0.74,-2.88 -2.23,-2.88 -1.26,0 -2.09,0.88 -2.21,2.99 h 4.45 v -0.11 z"
       id="path173" />
    <path
       class="cls-10"
       d="m 423.77,300.57 -0.31,1.62 c -0.29,-0.07 -0.49,-0.11 -0.83,-0.11 -1.19,0 -1.87,0.85 -2.27,2.67 v 5.42 h -1.66 v -9.49 h 1.42 l 0.16,1.93 c 0.5,-1.42 1.39,-2.14 2.54,-2.14 0.31,0 0.65,0.04 0.94,0.11 z"
       id="path174" />
  </g>
</svg>
