<svg xmlns="http://www.w3.org/2000/svg" width="544" height="340" viewBox="0 0 544 340"><g id="Hintergrund"><polygon points="356.28 219.7 356.28 214.85 193.64 214.85 193.64 273.57 199.77 273.57 200.28 221.23 349.9 221.49 349.9 223.79 347.09 222.76 347.35 233.74 360.37 233.62 360.37 223.53 356.15 223.66 356.28 219.7" fill="#ff921e"/><rect x="109.87" y="271.19" width="112.75" height="48.49" fill="#ff921e"/><polygon points="223.64 171.96 229.39 170.04 242.79 181.82 244.32 194.65 238.77 196.47 238 202.4 300.49 252.96 304.96 255.7 337.9 255.7 338.66 240.89 346.58 233.36 359.73 232.85 368.41 242.55 370.58 252.96 465.81 251.36 465.81 174.85 460.23 170.94 483.43 171 476.22 176.04 477.3 262.59 473.22 265.15 370.32 263.87 363.72 269.58 349.39 271.27 342.75 266.42 336.62 260.3 302.15 260.55 291.05 256.34 256.93 229.39 228.9 204.91 228.37 198.44 222.62 193.08 223.64 171.96" fill="#f4676c"/><path d="M116.31,174.85l1.37-2.89L161.22,181l17.36,7.32L175,190l.9,41.23,85.78,1.48s11.88,3.5,19.22,11.54,18.44,15.19,22.53,15.19,34.6-.76,35.87,0,5.36,10.34,12,10.34A60.37,60.37,0,0,0,365,267.83l-5.62,7.91H347.92l-11.3-12.51-38.3-1-7.27-5.87-16.34-13-112.82.25,1.62-54.51-48.63.39Z" fill="#bb0f21"/><polygon points="31 180.57 37 177.57 48.24 178.21 60.75 166.02 56.92 188.55 52.2 194.17 29.86 194.17 31 180.57" fill="#bb0f21"/><path d="M32.15,155.06H87.59v1.77h28.72v-1.77h84.55l.57,1.77h23.36v1.58h56.87v4.16l14.37,1v8.81H281.18v21.83H242.41s-2.11-22.6-18-22.79a25.75,25.75,0,0,1-.77-5.36H201.43v22.4L175,188.33s-1.53-3.16-13.11-5.08a125.89,125.89,0,0,0-43.76-8.64L116,173.1v-6.79l-28.35-.1v28.44L50.91,194s6-6.37,8.63-25.33c-5,6.7-6,12.54-14.94,11.87-5.24-.39-3.83-2.68-13.6,0V155.06Z" fill="#5cb6cd"/><polygon points="292.77 163.53 306.17 163.53 307.51 155.06 395.22 154.47 395.22 163.34 417.17 164.04 417.92 135.17 441.94 135.7 442.18 132.09 502.06 133.15 502.81 137.19 515.07 137.19 515.07 148.91 502.06 148.91 502.06 157.66 480.24 171.32 461.98 171.32 442.45 158.17 442.58 148.21 427 149.49 426.49 174.44 397.42 173.87 393.43 179.49 393.56 203.93 305.35 203.93 305.6 172.98 292.77 172.85 292.77 163.53" fill="#95b5dc"/><path d="M299.57,253,238,202.4s-1.34-7.66,4.41-8.23h38.77V172.34h25.19v30.92l88.18-.47V174.45h33.22V148.21h14.17v11l22.79,15.32v77.84l-95.56.58.2-11.11-9.2-9.67-.57-9.1-3.64-.19" fill="none" stroke="#fff" stroke-linejoin="round" stroke-width="2"/><polyline points="335.98 263.19 347.92 275.74 358.26 275.74 368.41 266.17 368.41 263.87 476.22 263.87 476.22 175.02 502.06 159.13 502.06 148.91 515.07 148.91" fill="none" stroke="#fff" stroke-linejoin="round" stroke-width="2"/><polyline points="306.17 155.06 306.17 163.53 280.9 163.53 280.9 153.29" fill="none" stroke="#fff" stroke-linejoin="round" stroke-width="2"/><polyline points="87.59 153.29 87.59 156.83 116.31 156.83 116.31 153.29" fill="none" stroke="#fff" stroke-linejoin="round" stroke-width="2"/><polyline points="201.43 153.29 201.43 156.83 223.64 156.83 223.64 153.29" fill="none" stroke="#fff" stroke-linejoin="round" stroke-width="2"/><polygon points="201.43 188.42 201.43 166.02 223.64 166.02 223.64 193.79 227.57 198.29 227.57 203.74 260.12 232.18 175 232.18 175 188.33 201.43 188.42" fill="none" stroke="#fff" stroke-linejoin="round" stroke-width="2"/><line x1="206.41" y1="173.49" x2="216.57" y2="173.49" fill="none" stroke="#bccbd3" stroke-miterlimit="10" stroke-width="2"/><polygon points="215.26 175.5 220.42 173.54 215.26 171.59 215.26 175.5" fill="#bccbd3"/><line x1="286.2" y1="180.15" x2="298.44" y2="180.15" fill="none" stroke="#bccbd3" stroke-miterlimit="10" stroke-width="2"/><polygon points="297.13 182.16 302.29 180.2 297.13 178.25 297.13 182.16" fill="#bccbd3"/><polyline points="454.96 215.3 454.94 243.38 420.19 243.48" fill="none" stroke="#bccbd3" stroke-miterlimit="10" stroke-width="2"/><polygon points="421.5 241.47 416.34 243.44 421.51 245.38 421.5 241.47" fill="#bccbd3"/><line x1="152.71" y1="218.66" x2="152.8" y2="228.82" fill="none" stroke="#bccbd3" stroke-miterlimit="10" stroke-width="2"/><polygon points="150.78 227.53 152.78 232.67 154.69 227.5 150.78 227.53" fill="#bccbd3"/><line x1="92.83" y1="175.68" x2="107.92" y2="175.75" fill="none" stroke="#bccbd3" stroke-miterlimit="10" stroke-width="2"/><polygon points="106.6 177.76 111.77 175.82 106.62 173.84 106.6 177.76" fill="#bccbd3"/><path d="M62.7,153.29s-2.8,23.8-11.28,41.07" fill="none" stroke="#f1f1f1" stroke-linejoin="round" stroke-width="0.75"/><path d="M63.93,153.18S61.64,177,53.66,194.36" fill="none" stroke="#f1f1f1" stroke-linejoin="round" stroke-width="0.75"/><path d="M65.5,153.53s-1.41,23.75-8.36,41.28" fill="none" stroke="#f1f1f1" stroke-linejoin="round" stroke-width="0.75"/><path d="M67.06,153.34s-.41,23.61-6.74,41.31" fill="none" stroke="#f1f1f1" stroke-linejoin="round" stroke-width="0.75"/><path d="M69.27,153.21s.4,23.64-5.45,41.6" fill="none" stroke="#f1f1f1" stroke-linejoin="round" stroke-width="0.75"/><path d="M67.06,147.63s5.93,4.1,4.59,6.31a34.79,34.79,0,0,1-11.25.11c-1.29-.77,3-6.23,4.59-6.42A5.12,5.12,0,0,1,67.06,147.63Z" fill="#f1f1f1" stroke="#f1f1f1" stroke-linejoin="round" stroke-width="0.75"/><rect x="324.94" y="146.49" width="6.19" height="33.96" fill="#edee78"/><ellipse cx="328.04" cy="184.1" rx="11.06" ry="5.95" fill="#edee78"/><ellipse cx="328.04" cy="146.49" rx="3.1" ry="1.33" fill="#edee78"/><rect x="368.98" y="144.9" width="6.19" height="33.96" fill="#4e34bc"/><ellipse cx="372.08" cy="144.9" rx="3.1" ry="1.33" fill="#4e34bc"/><path d="M372.08,176.56c-6.11,0-11.06,3.21-11.06,7.17h22.12C383.14,179.77,378.19,176.56,372.08,176.56Z" fill="#4e34bc"/><rect x="320.25" y="148.21" width="16.37" height="6.65" fill="#f1f1f1"/><rect x="363.89" y="148.21" width="16.37" height="6.65" fill="#f1f1f1"/><line x1="362.36" y1="184.98" x2="362.36" y2="196.56" fill="none" stroke="#4d4d4d" stroke-miterlimit="10" stroke-dasharray="2"/><line x1="365.8" y1="187.51" x2="365.8" y2="199.24" fill="none" stroke="#4d4d4d" stroke-miterlimit="10" stroke-dasharray="2"/><line x1="369.2" y1="185.17" x2="369.2" y2="196.75" fill="none" stroke="#4d4d4d" stroke-miterlimit="10" stroke-dasharray="2"/><line x1="372.41" y1="187.04" x2="372.41" y2="198.76" fill="none" stroke="#4d4d4d" stroke-miterlimit="10" stroke-dasharray="2"/><line x1="375.67" y1="185.17" x2="375.67" y2="196.75" fill="none" stroke="#4d4d4d" stroke-miterlimit="10" stroke-dasharray="2"/><line x1="378.73" y1="187.51" x2="378.73" y2="199.24" fill="none" stroke="#4d4d4d" stroke-miterlimit="10" stroke-dasharray="2"/><line x1="381.84" y1="184.98" x2="381.84" y2="196.56" fill="none" stroke="#4d4d4d" stroke-miterlimit="10" stroke-dasharray="2"/><path d="M334.9,161.42s-24.23,5.37-11.3,10.06" fill="none" stroke="#4d4d4d" stroke-miterlimit="10"/><path d="M332.41,173.2s5.36,2.32,2.49,3.36-15.7.19-17.33,3.59" fill="none" stroke="#4d4d4d" stroke-miterlimit="10"/><path d="M339.09,185.17s5.86,2.58,1.65,3.73-25.37,2.35-18.29,4.48" fill="none" stroke="#4d4d4d" stroke-miterlimit="10"/><circle cx="360.08" cy="159.32" r="1.34" fill="none"/><circle cx="360.08" cy="159.32" r="1.34" fill="#1a9ebf"/><circle cx="365.23" cy="162.13" r="1.34" fill="#1a9ebf"/><circle cx="357.4" cy="164.81" r="1.34" fill="#1a9ebf"/><circle cx="361.67" cy="168.03" r="1.34" fill="#1a9ebf"/><circle cx="356.06" cy="171.48" r="1.34" fill="#1a9ebf"/><circle cx="365" cy="171.96" r="1.34" fill="#1a9ebf"/><circle cx="359.68" cy="174.54" r="1.34" fill="#1a9ebf"/><circle cx="358.34" cy="180.15" r="1.34" fill="#1a9ebf"/><circle cx="356.06" cy="184.98" r="1.34" fill="#1a9ebf"/><circle cx="357.78" cy="188.71" r="1.34" fill="#1a9ebf"/><circle cx="353.95" cy="192.9" r="1.34" fill="#1a9ebf"/><circle cx="358.34" cy="196.56" r="1.34" fill="#1a9ebf"/><circle cx="387.64" cy="184.81" r="1.34" fill="#1a9ebf"/><circle cx="389.49" cy="189.62" r="1.34" fill="#1a9ebf"/><circle cx="386.3" cy="194.72" r="1.34" fill="#1a9ebf"/><circle cx="378.01" cy="197.9" r="1.34" fill="#1a9ebf"/><circle cx="368.18" cy="198.41" r="1.34" fill="#1a9ebf"/><circle cx="378.01" cy="157.34" r="1.34" fill="#1a9ebf"/><circle cx="378.01" cy="162.13" r="1.34" fill="#1a9ebf"/><circle cx="381.84" cy="159.76" r="1.34" fill="#1a9ebf"/><circle cx="384.2" cy="165.57" r="1.34" fill="#1a9ebf"/><circle cx="378.73" cy="168.45" r="1.34" fill="#1a9ebf"/><circle cx="383.38" cy="175.49" r="1.34" fill="#1a9ebf"/><circle cx="378.01" cy="175.49" r="1.34" fill="#1a9ebf"/><circle cx="385.23" cy="180.15" r="1.34" fill="#1a9ebf"/><circle cx="382.55" cy="171.48" r="1.34" fill="#1a9ebf"/><path d="M301.27,254.14a15.2,15.2,0,0,0,5.14,1.26c2.76.2,31.53-.3,31.53-.3" fill="none" stroke="#f1f1f1" stroke-miterlimit="10" stroke-width="2" stroke-dasharray="3"/><path d="M295.9,260.87l2.36.06c2.62.12,36,1.47,36,1.47" fill="none" stroke="#f1f1f1" stroke-miterlimit="10" stroke-width="2" stroke-dasharray="3"/><polyline points="337.12 256.66 337.94 240.51 347.31 232.08 347.1 223.22 350.13 223.02" fill="none" stroke="#fff" stroke-linejoin="round" stroke-width="2"/><ellipse cx="328.04" cy="154.62" rx="3.1" ry="1.33" fill="#edee78"/><ellipse cx="372.08" cy="155.06" rx="3.1" ry="1.33" fill="#4e34bc"/><rect x="114.88" y="275.74" width="102.69" height="39.13" fill="#edee78"/><line x1="350.64" y1="226.23" x2="350.64" y2="231.57" fill="#002a58" stroke="gray" stroke-miterlimit="10" stroke-width="0.75"/><line x1="353.03" y1="226.23" x2="353.03" y2="231.57" fill="#002a58" stroke="gray" stroke-miterlimit="10" stroke-width="0.75"/><line x1="356.06" y1="226.23" x2="356.06" y2="231.57" fill="#002a58" stroke="gray" stroke-miterlimit="10" stroke-width="0.75"/><polyline points="294.24 259.92 275.54 244.43 162.75 244.43 162.75 188.71 116.03 189.09 116.03 166.31 87.69 166.21 87.69 194.65 31 193.69 31 153.29" fill="none" stroke="#fff" stroke-linejoin="round" stroke-width="2"/><polyline points="515.07 137.19 502.06 137.19 502.06 133.15 443.49 133.15 442.55 133.15 441.94 135.7 417.92 135.17 417.17 164.04 395.22 163.34 395.22 151.54" fill="none" stroke="#fff" stroke-linejoin="round" stroke-width="2"/><path d="M282.43,136h-20.7c-2.63,0-8.25,1-11.14,5.35s-3.16,11.32-3.16,11.32,3.77,3.51,10.7,0c-.08-2.63.09-3.86.88-4.83s2.55-2.28,6.32-2.28,17.1.09,17.1.09Z" fill="#5cb6cd"/></g><g id="Schrift_alles_andeere"><path d="M209.55,28c1.58,1.18,2.37,3.33,2.37,6.47s-.77,5.26-2.31,6.52a9.16,9.16,0,0,1-6,1.88h-5V26.25h4.64A10.27,10.27,0,0,1,209.55,28Zm-7,1.09V40h1.3a3.61,3.61,0,0,0,3-1.21c.67-.81,1-2.25,1-4.33a8.56,8.56,0,0,0-.51-3.31A3,3,0,0,0,206,29.55a4.54,4.54,0,0,0-2.13-.45Z" fill="#fff"/><path d="M217.69,24a2.07,2.07,0,0,1,.64,1.55,2.05,2.05,0,0,1-.64,1.54,2.26,2.26,0,0,1-1.62.62,2.2,2.2,0,0,1-1.61-.62,2,2,0,0,1-.62-1.54,2.06,2.06,0,0,1,.62-1.55,2.19,2.19,0,0,1,1.61-.61A2.25,2.25,0,0,1,217.69,24Zm.3,18.85H214.2V30.14H218Z" fill="#fff"/><path d="M232,37.62h-7.87a3.42,3.42,0,0,0,.89,2.26,2.87,2.87,0,0,0,2,.65,4,4,0,0,0,1.49-.28,7.19,7.19,0,0,0,1.56-.85l1.56,2.11a7.75,7.75,0,0,1-5,1.78,6.08,6.08,0,0,1-4.75-1.83,7,7,0,0,1-1.66-4.89,8.46,8.46,0,0,1,.7-3.49,5.58,5.58,0,0,1,2-2.45,5.66,5.66,0,0,1,3.22-.9,5.5,5.5,0,0,1,4.32,1.73,6.9,6.9,0,0,1,1.56,4.8A10.48,10.48,0,0,1,232,37.62Zm-3.64-2.44c0-2-.72-2.93-2.07-2.93a1.78,1.78,0,0,0-1.51.71,4.76,4.76,0,0,0-.67,2.38h4.25Z" fill="#fff"/><path d="M244,42.88H240V26.25H244Zm4.24-9.17,5.74,9.17h-4.56L244.08,34l5.28-7.75h4.15Z" fill="#fff"/><path d="M255.94,42.34a3.73,3.73,0,0,1-.92-2.7V25.07l3.79-.4V39.5c0,.52.22.79.65.79a1.59,1.59,0,0,0,.62-.12l.75,2.69a6.09,6.09,0,0,1-2.31.43A3.46,3.46,0,0,1,255.94,42.34Z" fill="#fff"/><path d="M272.6,40.24a1.34,1.34,0,0,0,.66.51l-.79,2.47a4.83,4.83,0,0,1-1.91-.51,2.76,2.76,0,0,1-1.16-1.32,4.28,4.28,0,0,1-3.84,1.9,4.13,4.13,0,0,1-3-1.11,3.84,3.84,0,0,1-1.13-2.88,3.7,3.7,0,0,1,1.54-3.19,7.58,7.58,0,0,1,4.44-1.1h1.3v-.55a2,2,0,0,0-.48-1.55,2.58,2.58,0,0,0-1.68-.42,7.92,7.92,0,0,0-1.52.18,15,15,0,0,0-1.82.49l-.86-2.49a14.08,14.08,0,0,1,2.46-.7,12.56,12.56,0,0,1,2.34-.24,5.92,5.92,0,0,1,4,1.13,4.28,4.28,0,0,1,1.28,3.38v4.94A2,2,0,0,0,272.6,40.24Zm-6.74-16a1.8,1.8,0,0,1,.56,1.34,1.84,1.84,0,0,1-.56,1.35,1.94,1.94,0,0,1-1.38.55A1.91,1.91,0,0,1,263.1,27a1.81,1.81,0,0,1-.57-1.35,1.78,1.78,0,0,1,.57-1.34,1.87,1.87,0,0,1,1.38-.55A1.9,1.9,0,0,1,265.86,24.26Zm1.94,16a2.64,2.64,0,0,0,.88-.88V37.1h-.94a3.35,3.35,0,0,0-1.93.45,1.63,1.63,0,0,0-.64,1.42,1.65,1.65,0,0,0,.4,1.19,1.42,1.42,0,0,0,1.09.42A2.13,2.13,0,0,0,267.8,40.26Zm3.62-16A1.78,1.78,0,0,1,272,25.6a1.81,1.81,0,0,1-.57,1.35,1.91,1.91,0,0,1-1.38.55,1.94,1.94,0,0,1-1.38-.55,1.84,1.84,0,0,1-.56-1.35,1.8,1.8,0,0,1,.56-1.34,1.9,1.9,0,0,1,1.38-.55A1.87,1.87,0,0,1,271.42,24.26Z" fill="#fff"/><path d="M283.6,30l-.6,3.67a4.88,4.88,0,0,0-1.15-.17,2,2,0,0,0-1.7.77,5.85,5.85,0,0,0-.94,2.3v6.36h-3.79V30.14h3.31l.31,2.44a4.55,4.55,0,0,1,1.31-2.06,3,3,0,0,1,2-.74A4.2,4.2,0,0,1,283.6,30Z" fill="#fff"/><path d="M294.9,40.24a1.26,1.26,0,0,0,.66.51l-.8,2.47a4.77,4.77,0,0,1-1.9-.51,2.83,2.83,0,0,1-1.17-1.32,4.26,4.26,0,0,1-3.84,1.9,4.12,4.12,0,0,1-3-1.11,3.84,3.84,0,0,1-1.13-2.88,3.68,3.68,0,0,1,1.54-3.19,7.58,7.58,0,0,1,4.44-1.1H291v-.55a2,2,0,0,0-.48-1.55,2.58,2.58,0,0,0-1.68-.42,7.83,7.83,0,0,0-1.51.18,15,15,0,0,0-1.82.49l-.87-2.49a14.08,14.08,0,0,1,2.46-.7,12.56,12.56,0,0,1,2.34-.24,6,6,0,0,1,4,1.13,4.27,4.27,0,0,1,1.27,3.38v4.94A2,2,0,0,0,294.9,40.24Zm-4.8,0a2.62,2.62,0,0,0,.87-.88V37.1H290a3.39,3.39,0,0,0-1.94.45,1.65,1.65,0,0,0-.63,1.42,1.69,1.69,0,0,0,.39,1.19,1.45,1.45,0,0,0,1.1.42A2.18,2.18,0,0,0,290.1,40.26Z" fill="#fff"/><path d="M307.77,30.74a4,4,0,0,1,.94,2.83v9.31h-3.79V34.22a2.22,2.22,0,0,0-.3-1.34,1.11,1.11,0,0,0-.9-.37c-.77,0-1.51.55-2.21,1.66v8.71h-3.79V30.14H301l.26,1.51a6,6,0,0,1,1.79-1.44,4.57,4.57,0,0,1,2.1-.48A3.33,3.33,0,0,1,307.77,30.74Z" fill="#fff"/><path d="M312.37,42.34a3.69,3.69,0,0,1-.93-2.7V25.07l3.8-.4V39.5c0,.52.21.79.64.79a1.61,1.61,0,0,0,.63-.12l.74,2.69a6.08,6.08,0,0,1-2.3.43A3.43,3.43,0,0,1,312.37,42.34Z" fill="#fff"/><path d="M329,40.24a1.34,1.34,0,0,0,.66.51l-.79,2.47a4.87,4.87,0,0,1-1.91-.51,2.86,2.86,0,0,1-1.16-1.32,4.26,4.26,0,0,1-3.84,1.9,4.1,4.1,0,0,1-3-1.11,3.8,3.8,0,0,1-1.13-2.88,3.7,3.7,0,0,1,1.53-3.19A7.62,7.62,0,0,1,323.8,35h1.3v-.55a2,2,0,0,0-.48-1.55,2.58,2.58,0,0,0-1.68-.42,7.74,7.74,0,0,0-1.51.18,15.12,15.12,0,0,0-1.83.49l-.86-2.49a14.08,14.08,0,0,1,2.46-.7,12.56,12.56,0,0,1,2.34-.24,6,6,0,0,1,4,1.13,4.31,4.31,0,0,1,1.27,3.38v4.94A2.16,2.16,0,0,0,329,40.24Zm-4.8,0a2.55,2.55,0,0,0,.88-.88V37.1h-.94a3.37,3.37,0,0,0-1.93.45,1.65,1.65,0,0,0-.64,1.42,1.69,1.69,0,0,0,.4,1.19,1.42,1.42,0,0,0,1.09.42A2.13,2.13,0,0,0,324.22,40.26Z" fill="#fff"/><path d="M343.58,30.88a10.2,10.2,0,0,1-3.67.5,4.38,4.38,0,0,1,1.82,1.3,3.2,3.2,0,0,1,.58,2,3.89,3.89,0,0,1-.65,2.2,4.22,4.22,0,0,1-1.86,1.52A6.79,6.79,0,0,1,337,39a7,7,0,0,1-1.47-.15.67.67,0,0,0-.3.3.94.94,0,0,0-.11.42.66.66,0,0,0,.28.56,2,2,0,0,0,1.12.21h1.92a6.35,6.35,0,0,1,2.56.48,4,4,0,0,1,1.71,1.32,3.17,3.17,0,0,1,.6,1.89,3.5,3.5,0,0,1-1.72,3.11,9,9,0,0,1-4.95,1.12,11.27,11.27,0,0,1-3.68-.49A3.54,3.54,0,0,1,331,46.34a4.25,4.25,0,0,1-.54-2.24h3.41a1.57,1.57,0,0,0,.23.92,1.4,1.4,0,0,0,.82.5,6.89,6.89,0,0,0,1.73.17,4.53,4.53,0,0,0,2.16-.37,1.2,1.2,0,0,0,.6-1.07,1.07,1.07,0,0,0-.45-.91,2.27,2.27,0,0,0-1.37-.34h-1.85a5,5,0,0,1-2.94-.71,2.14,2.14,0,0,1-1-1.81,2.53,2.53,0,0,1,.41-1.36,3.37,3.37,0,0,1,1.1-1.09,4.47,4.47,0,0,1-1.74-1.52,4,4,0,0,1-.54-2.13A4.14,4.14,0,0,1,332.64,31a6.17,6.17,0,0,1,4.05-1.26,9.78,9.78,0,0,0,3.25-.39,13.14,13.14,0,0,0,2.75-1.27Zm-8.2,1.91a2.23,2.23,0,0,0-.51,1.55,2.27,2.27,0,0,0,.51,1.59,1.82,1.82,0,0,0,1.41.57,1.85,1.85,0,0,0,1.43-.55,2.47,2.47,0,0,0,.49-1.66q0-2.07-1.92-2.07A1.82,1.82,0,0,0,335.38,32.79Z" fill="#fff"/><path d="M355.87,37.62H348a3.42,3.42,0,0,0,.88,2.26,2.9,2.9,0,0,0,2,.65,4,4,0,0,0,1.48-.28,7.19,7.19,0,0,0,1.56-.85l1.56,2.11a7.73,7.73,0,0,1-5,1.78,6.09,6.09,0,0,1-4.75-1.83,7,7,0,0,1-1.65-4.89,8.46,8.46,0,0,1,.69-3.49,5.49,5.49,0,0,1,5.26-3.35,5.5,5.5,0,0,1,4.32,1.73,6.9,6.9,0,0,1,1.56,4.8A10.66,10.66,0,0,1,355.87,37.62Zm-3.65-2.44c0-2-.72-2.93-2.06-2.93a1.79,1.79,0,0,0-1.52.71,4.87,4.87,0,0,0-.67,2.38h4.25Z" fill="#fff"/><path d="M36.13,127.45H34.42v4.68H32.9v-11h2.9a5.2,5.2,0,0,1,3.13.79A2.7,2.7,0,0,1,40,124.22a2.87,2.87,0,0,1-.59,1.87,3.6,3.6,0,0,1-1.79,1.09l3,4.95H38.77ZM36,126.29a2.89,2.89,0,0,0,1.81-.49,1.92,1.92,0,0,0,.6-1.58,1.73,1.73,0,0,0-.61-1.48,3.4,3.4,0,0,0-2-.45H34.42v4Z" fill="#fff"/><path d="M48.68,128.41H43.3a3.3,3.3,0,0,0,.71,2.05,2,2,0,0,0,1.56.66,3.33,3.33,0,0,0,1.12-.18,4.14,4.14,0,0,0,1.08-.56l.64.88a4.65,4.65,0,0,1-2.95,1.06,3.43,3.43,0,0,1-2.74-1.15,4.72,4.72,0,0,1-1-3.17,6.05,6.05,0,0,1,.43-2.33,3.64,3.64,0,0,1,1.21-1.59,3.06,3.06,0,0,1,1.87-.58,3.1,3.1,0,0,1,2.57,1.11,4.68,4.68,0,0,1,.9,3Q48.71,128,48.68,128.41Zm-1.43-1.18a3.1,3.1,0,0,0-.49-1.9,1.75,1.75,0,0,0-1.49-.66c-1.21,0-1.86.89-2,2.66h4Z" fill="#fff"/><path d="M55.59,123.72a3.66,3.66,0,0,1,1.2.69l-.7.93a3.6,3.6,0,0,0-.88-.47,2.75,2.75,0,0,0-.93-.15,1.82,1.82,0,0,0-1.59.81,4.24,4.24,0,0,0-.57,2.42,4,4,0,0,0,.56,2.36,1.85,1.85,0,0,0,1.6.76,2.67,2.67,0,0,0,.91-.15,4.7,4.7,0,0,0,.93-.49l.67,1a4,4,0,0,1-2.58.93,3.36,3.36,0,0,1-2.69-1.15,4.74,4.74,0,0,1-1-3.19,5.73,5.73,0,0,1,.45-2.35,3.68,3.68,0,0,1,1.27-1.57,3.45,3.45,0,0,1,2-.56A4,4,0,0,1,55.59,123.72Z" fill="#fff"/><path d="M64.56,124.19a2.66,2.66,0,0,1,.65,1.89v6H63.73v-5.84a1.86,1.86,0,0,0-.34-1.27,1.32,1.32,0,0,0-1-.37,1.87,1.87,0,0,0-1.17.39,4,4,0,0,0-1,1.09v6H58.79V120.32l1.47-.16v4.7a3,3,0,0,1,2.5-1.36A2.34,2.34,0,0,1,64.56,124.19Z" fill="#fff"/><path d="M74.5,128.41H69.13a3.24,3.24,0,0,0,.7,2.05,2,2,0,0,0,1.57.66,3.37,3.37,0,0,0,1.12-.18,4.09,4.09,0,0,0,1.07-.56l.64.88a4.64,4.64,0,0,1-2.94,1.06,3.45,3.45,0,0,1-2.75-1.15,4.77,4.77,0,0,1-1-3.17,6.05,6.05,0,0,1,.42-2.33,3.58,3.58,0,0,1,1.22-1.59,3,3,0,0,1,1.86-.58,3.13,3.13,0,0,1,2.58,1.11,4.68,4.68,0,0,1,.89,3Q74.53,128,74.5,128.41Zm-1.42-1.18a3.1,3.1,0,0,0-.5-1.9,1.74,1.74,0,0,0-1.49-.66c-1.2,0-1.86.89-2,2.66h4Z" fill="#fff"/><path d="M82.73,124.19a2.62,2.62,0,0,1,.65,1.89v6H81.91v-5.84a1.86,1.86,0,0,0-.34-1.27,1.28,1.28,0,0,0-1-.37,1.88,1.88,0,0,0-1.18.39,3.93,3.93,0,0,0-1,1.1v6H77v-8.44h1.26l.13,1.25a3.27,3.27,0,0,1,1.11-1,2.83,2.83,0,0,1,1.46-.39A2.34,2.34,0,0,1,82.73,124.19Z" fill="#fff"/><path d="M198.92,103.29h-1.63l-3.55-11h1.63l2.77,9.38,2.77-9.38h1.53Z" fill="#fff"/><path d="M209.51,95.85a4.93,4.93,0,0,1,1,3.22,5.57,5.57,0,0,1-.45,2.31,3.41,3.41,0,0,1-1.29,1.55,3.62,3.62,0,0,1-2,.56A3.44,3.44,0,0,1,204,102.3a4.85,4.85,0,0,1-1-3.21,5.62,5.62,0,0,1,.45-2.32,3.54,3.54,0,0,1,1.3-1.55,3.61,3.61,0,0,1,2-.55A3.4,3.4,0,0,1,209.51,95.85Zm-4.95,3.24c0,2.14.72,3.21,2.17,3.21s2.18-1.08,2.18-3.23-.72-3.22-2.16-3.22S204.56,96.93,204.56,99.09Z" fill="#fff"/><path d="M217.42,94.77l-.27,1.44a2.8,2.8,0,0,0-.74-.1,1.55,1.55,0,0,0-1.26.58,4.23,4.23,0,0,0-.75,1.79v4.81h-1.48V94.86h1.27l.14,1.71a3.26,3.26,0,0,1,.91-1.42,2.07,2.07,0,0,1,1.35-.48A3.15,3.15,0,0,1,217.42,94.77Z" fill="#fff"/><path d="M220.57,103.29H219.1V91.47l1.47-.18Zm1.75-4.7,3.45,4.7H224l-3.34-4.6,3.1-3.83h1.65Z" fill="#fff"/><path d="M227.68,103a1.91,1.91,0,0,1-.47-1.37V91.47l1.47-.18V101.6a.87.87,0,0,0,.12.51.48.48,0,0,0,.41.16,1.38,1.38,0,0,0,.55-.1l.38,1a2.42,2.42,0,0,1-1.17.29A1.75,1.75,0,0,1,227.68,103Z" fill="#fff"/><path d="M237.84,102.09a1,1,0,0,0,.52.37l-.33,1a2.37,2.37,0,0,1-1.06-.37,1.72,1.72,0,0,1-.59-.9,2.84,2.84,0,0,1-2.51,1.27,2.7,2.7,0,0,1-2-.71,2.46,2.46,0,0,1-.72-1.84,2.41,2.41,0,0,1,1-2.06,4.51,4.51,0,0,1,2.74-.72h1.3v-.63a1.69,1.69,0,0,0-.43-1.28,2,2,0,0,0-1.33-.38,7.35,7.35,0,0,0-2.27.45l-.37-1.07a8.31,8.31,0,0,1,2.91-.58,3,3,0,0,1,2.22.73,2.73,2.73,0,0,1,.74,2.07v3.86A1.31,1.31,0,0,0,237.84,102.09ZM233.6,91.27a.88.88,0,0,1,.27.65.9.9,0,0,1-.91.91.94.94,0,0,1-.67-.26.92.92,0,0,1-.26-.65.91.91,0,0,1,.26-.65A.9.9,0,0,1,233,91,.84.84,0,0,1,233.6,91.27Zm2.59,9.8V99.13h-1.11c-1.55,0-2.33.58-2.33,1.73a1.58,1.58,0,0,0,.37,1.14,1.43,1.43,0,0,0,1.08.38A2.2,2.2,0,0,0,236.19,101.07Zm.77-9.8a.88.88,0,0,1,.27.65.91.91,0,0,1-.93.91.91.91,0,0,1-.65-.26.92.92,0,0,1-.26-.65.91.91,0,0,1,.26-.65,1,1,0,0,1,1.31,0Z" fill="#fff"/><path d="M245.18,94.77l-.27,1.44a2.8,2.8,0,0,0-.74-.1,1.55,1.55,0,0,0-1.26.58,4.23,4.23,0,0,0-.75,1.79v4.81h-1.48V94.86H242l.14,1.71a3.26,3.26,0,0,1,.91-1.42,2.07,2.07,0,0,1,1.35-.48A3.15,3.15,0,0,1,245.18,94.77Z" fill="#fff"/><path d="M253,95.83a5.36,5.36,0,0,1,.85,3.24,6.11,6.11,0,0,1-.4,2.31,3.35,3.35,0,0,1-1.15,1.55,2.89,2.89,0,0,1-1.76.56,2.8,2.8,0,0,1-2.24-1.12l-.14.92h-1.3V91.47l1.47-.18v4.63a2.83,2.83,0,0,1,2.39-1.25A2.68,2.68,0,0,1,253,95.83Zm-1.28,5.7a4.43,4.43,0,0,0,.55-2.46,4.55,4.55,0,0,0-.51-2.47,1.66,1.66,0,0,0-1.46-.76,2.4,2.4,0,0,0-2,1.31v4a2.63,2.63,0,0,0,.83.83,1.85,1.85,0,0,0,1,.31A1.78,1.78,0,0,0,251.72,101.53Z" fill="#fff"/><path d="M262.7,99.58h-5.38a3.3,3.3,0,0,0,.71,2,2,2,0,0,0,1.57.66,3.42,3.42,0,0,0,1.12-.18,4.61,4.61,0,0,0,1.07-.56l.64.88a4.71,4.71,0,0,1-2.95,1.06,3.42,3.42,0,0,1-2.74-1.16,4.67,4.67,0,0,1-1-3.16,6.05,6.05,0,0,1,.42-2.33,3.58,3.58,0,0,1,1.22-1.59,3,3,0,0,1,1.86-.58,3.15,3.15,0,0,1,2.58,1.1,4.78,4.78,0,0,1,.89,3.06Q262.73,99.21,262.7,99.58Zm-1.42-1.18a3.15,3.15,0,0,0-.5-1.91,1.77,1.77,0,0,0-1.49-.65c-1.2,0-1.86.88-2,2.65h4Z" fill="#fff"/><path d="M269.61,94.89a3.66,3.66,0,0,1,1.2.69l-.7.93a3.6,3.6,0,0,0-.88-.47,2.75,2.75,0,0,0-.93-.15,1.83,1.83,0,0,0-1.59.81,4.24,4.24,0,0,0-.57,2.42,4,4,0,0,0,.56,2.36,1.88,1.88,0,0,0,1.6.76,2.67,2.67,0,0,0,.91-.15,5.29,5.29,0,0,0,.93-.49l.67,1a4,4,0,0,1-2.58.93,3.34,3.34,0,0,1-2.69-1.16,4.71,4.71,0,0,1-1-3.18A5.7,5.7,0,0,1,265,96.8a3.69,3.69,0,0,1,1.27-1.57,3.45,3.45,0,0,1,2-.56A4,4,0,0,1,269.61,94.89Z" fill="#fff"/><path d="M274.28,103.29h-1.47V91.47l1.47-.18Zm1.75-4.7,3.45,4.7h-1.76l-3.34-4.6,3.1-3.83h1.65Z" fill="#fff"/><path d="M287.18,99.58H281.8a3.3,3.3,0,0,0,.71,2,2,2,0,0,0,1.57.66,3.42,3.42,0,0,0,1.12-.18,4.61,4.61,0,0,0,1.07-.56l.64.88a4.71,4.71,0,0,1-3,1.06,3.42,3.42,0,0,1-2.74-1.16,4.67,4.67,0,0,1-1-3.16,6.05,6.05,0,0,1,.42-2.33,3.58,3.58,0,0,1,1.22-1.59,3,3,0,0,1,1.86-.58,3.15,3.15,0,0,1,2.58,1.1,4.78,4.78,0,0,1,.89,3.06Q287.21,99.21,287.18,99.58Zm-1.42-1.18a3.15,3.15,0,0,0-.5-1.91,1.77,1.77,0,0,0-1.49-.65c-1.2,0-1.86.88-2,2.65h4Z" fill="#fff"/><path d="M295.41,95.36a2.66,2.66,0,0,1,.65,1.89v6h-1.47V97.45a1.85,1.85,0,0,0-.34-1.26,1.25,1.25,0,0,0-1-.37,1.88,1.88,0,0,0-1.18.39,3.64,3.64,0,0,0-1,1.1v6h-1.48V94.86h1.27l.13,1.25a3.3,3.3,0,0,1,1.11-1.06,2.92,2.92,0,0,1,1.46-.38A2.34,2.34,0,0,1,295.41,95.36Z" fill="#fff"/><path d="M310.59,116.82a2.37,2.37,0,0,1,.7,1.89q0,3.14-4.36,3.14h-3v-11h2.6a6.12,6.12,0,0,1,3.21.69,2.3,2.3,0,0,1,1.11,2.1,2.25,2.25,0,0,1-.6,1.6,2.6,2.6,0,0,1-1.46.81A3.75,3.75,0,0,1,310.59,116.82Zm-5.18-4.8v3.48h1.66a2.56,2.56,0,0,0,1.58-.47,1.53,1.53,0,0,0,.61-1.31,1.39,1.39,0,0,0-.65-1.33,4.12,4.12,0,0,0-2-.37Zm3.57,8.21a1.57,1.57,0,0,0,.71-1.52,1.8,1.8,0,0,0-.68-1.57,3.09,3.09,0,0,0-1.8-.47h-1.8v4h1.52A4.21,4.21,0,0,0,309,120.23Z" fill="#fff"/><path d="M319.87,118.14h-5.38a3.27,3.27,0,0,0,.71,2,2,2,0,0,0,1.57.66,3.7,3.7,0,0,0,1.12-.17,4.68,4.68,0,0,0,1.07-.57l.64.88a4.65,4.65,0,0,1-3,1.06,3.41,3.41,0,0,1-2.74-1.15,4.72,4.72,0,0,1-1-3.17,6.09,6.09,0,0,1,.42-2.33,3.64,3.64,0,0,1,1.22-1.59,3.07,3.07,0,0,1,1.86-.58,3.13,3.13,0,0,1,2.58,1.11,4.74,4.74,0,0,1,.89,3C319.9,117.63,319.89,117.88,319.87,118.14ZM318.45,117a3.12,3.12,0,0,0-.5-1.9,1.75,1.75,0,0,0-1.49-.66c-1.2,0-1.86.89-2,2.66h4Z" fill="#fff"/><path d="M322.73,121.55a1.86,1.86,0,0,1-.48-1.37V110l1.48-.17v10.3a.89.89,0,0,0,.12.52.48.48,0,0,0,.4.15,1.55,1.55,0,0,0,.55-.09l.38,1A2.42,2.42,0,0,1,324,122,1.67,1.67,0,0,1,322.73,121.55Z" fill="#fff"/><path d="M333.2,118.14h-5.38a3.27,3.27,0,0,0,.71,2,2,2,0,0,0,1.56.66,3.6,3.6,0,0,0,1.12-.17,4.73,4.73,0,0,0,1.08-.57l.64.88A4.65,4.65,0,0,1,330,122a3.39,3.39,0,0,1-2.74-1.15,4.72,4.72,0,0,1-1-3.17,5.9,5.9,0,0,1,.43-2.33,3.7,3.7,0,0,1,1.21-1.59,3.44,3.44,0,0,1,4.44.53,4.68,4.68,0,0,1,.9,3C333.23,117.63,333.22,117.88,333.2,118.14ZM331.77,117a3.12,3.12,0,0,0-.49-1.9,1.75,1.75,0,0,0-1.49-.66c-1.21,0-1.86.89-2,2.66h3.95Z" fill="#fff"/><path d="M341.81,114.38a5.47,5.47,0,0,1,.84,3.24,6.16,6.16,0,0,1-.4,2.32,3.46,3.46,0,0,1-1.15,1.55,2.88,2.88,0,0,1-1.76.55,2.79,2.79,0,0,1-2.24-1.12l-.14.93h-1.3V110l1.47-.17v4.62a2.84,2.84,0,0,1,2.39-1.25A2.71,2.71,0,0,1,341.81,114.38Zm-1.29,5.7a4.35,4.35,0,0,0,.55-2.46,4.57,4.57,0,0,0-.51-2.47,1.67,1.67,0,0,0-1.46-.76,2.39,2.39,0,0,0-2,1.32v4a2.63,2.63,0,0,0,.83.83,1.93,1.93,0,0,0,1,.3A1.76,1.76,0,0,0,340.52,120.08Z" fill="#fff"/><path d="M351.44,121.85h-1.27l-.11-1.31a3.26,3.26,0,0,1-1.1,1.14,3,3,0,0,1-1.52.36,2.22,2.22,0,0,1-1.73-.67,2.68,2.68,0,0,1-.63-1.91v-6h1.48v5.88a1.94,1.94,0,0,0,.3,1.23,1.22,1.22,0,0,0,1,.36,2.5,2.5,0,0,0,2.11-1.46v-6h1.48Z" fill="#fff"/><path d="M360.25,113.91a2.66,2.66,0,0,1,.64,1.89v6h-1.47V116a1.81,1.81,0,0,0-.34-1.26,1.25,1.25,0,0,0-1-.37,1.89,1.89,0,0,0-1.18.38,4.08,4.08,0,0,0-1,1.1v6h-1.47v-8.43h1.26l.13,1.25a3.3,3.3,0,0,1,1.11-1.06,2.84,2.84,0,0,1,1.47-.39A2.37,2.37,0,0,1,360.25,113.91Z" fill="#fff"/><path d="M370.65,113.8a4.25,4.25,0,0,1-1,.21c-.39,0-.86,0-1.41,0a2.21,2.21,0,0,1,1.49,2.12,2.67,2.67,0,0,1-.87,2.07,3.33,3.33,0,0,1-2.35.8,3.38,3.38,0,0,1-1.07-.16.93.93,0,0,0-.31.34,1,1,0,0,0-.11.44q0,.69,1.11.69h1.34a3.38,3.38,0,0,1,1.5.31,2.35,2.35,0,0,1,1,.83,2.07,2.07,0,0,1,.36,1.2,2.13,2.13,0,0,1-1,1.89,5.29,5.29,0,0,1-2.94.67,6.83,6.83,0,0,1-2.15-.28,2.06,2.06,0,0,1-1.13-.84,2.84,2.84,0,0,1-.34-1.44h1.33a1.41,1.41,0,0,0,.19.8,1.2,1.2,0,0,0,.69.45,5.11,5.11,0,0,0,1.41.15,4.05,4.05,0,0,0,1.9-.32,1.08,1.08,0,0,0,.56-1,1,1,0,0,0-.44-.89,2.16,2.16,0,0,0-1.25-.31h-1.33a2.48,2.48,0,0,1-1.62-.45,1.44,1.44,0,0,1-.56-1.15,1.52,1.52,0,0,1,.24-.8,2.51,2.51,0,0,1,.69-.69,2.39,2.39,0,0,1-1.42-2.33,2.8,2.8,0,0,1,.42-1.52,2.84,2.84,0,0,1,1.17-1.05,3.65,3.65,0,0,1,1.66-.38,10.29,10.29,0,0,0,1.66-.07,5.85,5.85,0,0,0,1.11-.24,11.27,11.27,0,0,0,1.08-.44Zm-5.57,1a2,2,0,0,0-.46,1.37,2,2,0,0,0,.46,1.38,1.67,1.67,0,0,0,1.32.52,1.73,1.73,0,0,0,1.32-.5,2.07,2.07,0,0,0,.45-1.42c0-1.25-.6-1.87-1.8-1.87A1.6,1.6,0,0,0,365.08,114.8Z" fill="#fff"/><path d="M376,113.46a4.56,4.56,0,0,1,1.31.72l-.62.93a5.3,5.3,0,0,0-1.1-.54,3.28,3.28,0,0,0-1.09-.18,1.93,1.93,0,0,0-1.14.3.94.94,0,0,0-.41.81,1,1,0,0,0,.39.8,4.53,4.53,0,0,0,1.41.56,5,5,0,0,1,2.11,1,2.09,2.09,0,0,1,.69,1.66,2.15,2.15,0,0,1-1,1.9,4.12,4.12,0,0,1-2.36.66,4.7,4.7,0,0,1-3.19-1.1l.79-.9a3.82,3.82,0,0,0,2.36.82,2.22,2.22,0,0,0,1.32-.35,1.07,1.07,0,0,0,.49-.93,1.32,1.32,0,0,0-.17-.7,1.46,1.46,0,0,0-.61-.46A7.62,7.62,0,0,0,374,118a4.33,4.33,0,0,1-1.94-.94,2,2,0,0,1-.6-1.51,2,2,0,0,1,.39-1.19,2.64,2.64,0,0,1,1.09-.83,3.88,3.88,0,0,1,1.56-.3A4.67,4.67,0,0,1,376,113.46Z" fill="#fff"/><path d="M385.79,114.38a5.47,5.47,0,0,1,.85,3.24,6.37,6.37,0,0,1-.4,2.32,3.55,3.55,0,0,1-1.16,1.55,2.86,2.86,0,0,1-1.76.55,2.79,2.79,0,0,1-2.24-1.12l-.14.93h-1.3V110l1.48-.17v4.62a2.81,2.81,0,0,1,2.38-1.25A2.71,2.71,0,0,1,385.79,114.38Zm-1.29,5.7a4.35,4.35,0,0,0,.55-2.46,4.57,4.57,0,0,0-.51-2.47,1.67,1.67,0,0,0-1.46-.76,2.37,2.37,0,0,0-2,1.32v4a2.5,2.5,0,0,0,.82.83,2,2,0,0,0,1,.3A1.76,1.76,0,0,0,384.5,120.08Z" fill="#fff"/><path d="M395.48,118.14h-5.37a3.27,3.27,0,0,0,.7,2,2,2,0,0,0,1.57.66,3.6,3.6,0,0,0,1.12-.17,4.48,4.48,0,0,0,1.07-.57l.64.88a4.62,4.62,0,0,1-2.94,1.06,3.42,3.42,0,0,1-2.75-1.15,4.77,4.77,0,0,1-1-3.17,6.09,6.09,0,0,1,.42-2.33,3.71,3.71,0,0,1,1.22-1.59,3.44,3.44,0,0,1,4.44.53,4.68,4.68,0,0,1,.9,3C395.52,117.63,395.5,117.88,395.48,118.14ZM394.06,117a3.12,3.12,0,0,0-.5-1.9,1.73,1.73,0,0,0-1.48-.66c-1.21,0-1.87.89-2,2.66h3.95Z" fill="#fff"/><path d="M402.4,113.44a3.91,3.91,0,0,1,1.2.7l-.71.92a3.74,3.74,0,0,0-.87-.47,2.77,2.77,0,0,0-.94-.15,1.82,1.82,0,0,0-1.59.82,4.2,4.2,0,0,0-.57,2.41,4,4,0,0,0,.56,2.36,1.87,1.87,0,0,0,1.6.76,2.69,2.69,0,0,0,.92-.15,4.41,4.41,0,0,0,.92-.49l.68,1A4,4,0,0,1,401,122a3.33,3.33,0,0,1-2.69-1.15,4.73,4.73,0,0,1-1-3.18,5.74,5.74,0,0,1,.45-2.36,3.68,3.68,0,0,1,1.27-1.57,3.42,3.42,0,0,1,2-.56A4.34,4.34,0,0,1,402.4,113.44Z" fill="#fff"/><path d="M407.07,121.85H405.6V110l1.47-.17Zm1.74-4.71,3.46,4.71h-1.76l-3.35-4.61,3.11-3.82h1.65Z" fill="#fff"/><path d="M420,118.14h-5.37a3.27,3.27,0,0,0,.7,2,2,2,0,0,0,1.57.66,3.6,3.6,0,0,0,1.12-.17,4.48,4.48,0,0,0,1.07-.57l.64.88a4.62,4.62,0,0,1-2.94,1.06,3.43,3.43,0,0,1-2.75-1.15,4.77,4.77,0,0,1-1-3.17,6.09,6.09,0,0,1,.42-2.33,3.71,3.71,0,0,1,1.22-1.59,3.44,3.44,0,0,1,4.44.53,4.68,4.68,0,0,1,.9,3A6.56,6.56,0,0,1,420,118.14ZM418.54,117a3.05,3.05,0,0,0-.5-1.9,1.73,1.73,0,0,0-1.48-.66c-1.21,0-1.86.89-2,2.66h4Z" fill="#fff"/><path d="M428.2,113.91a2.66,2.66,0,0,1,.64,1.89v6h-1.47V116a1.87,1.87,0,0,0-.33-1.26,1.28,1.28,0,0,0-1-.37,1.89,1.89,0,0,0-1.18.38,4.08,4.08,0,0,0-1,1.1v6h-1.47v-8.43h1.26l.13,1.25a3.3,3.3,0,0,1,1.11-1.06,2.86,2.86,0,0,1,1.47-.39A2.37,2.37,0,0,1,428.2,113.91Z" fill="#fff"/><path d="M410.11,84.67h-2l-4.49-9.36c.07.73.12,1.41.16,2s.05,1.38.05,2.26v5.06h-1.42v-11h2L408.89,83c0-.28-.07-.76-.13-1.45s-.08-1.33-.08-1.91v-6h1.43Z" fill="#fff"/><path d="M419.08,83.46a1.12,1.12,0,0,0,.53.38l-.33,1a2.26,2.26,0,0,1-1.06-.37,1.62,1.62,0,0,1-.59-.89,2.84,2.84,0,0,1-2.51,1.26,2.68,2.68,0,0,1-2-.7,2.47,2.47,0,0,1-.72-1.84,2.41,2.41,0,0,1,1-2.07,4.51,4.51,0,0,1,2.74-.72h1.3v-.62a1.62,1.62,0,0,0-.44-1.28,1.94,1.94,0,0,0-1.33-.38,7.4,7.4,0,0,0-2.27.44L413,76.62A8.54,8.54,0,0,1,416,76a3.06,3.06,0,0,1,2.22.73,2.8,2.8,0,0,1,.74,2.07V82.7A1.38,1.38,0,0,0,419.08,83.46Zm-1.64-1V80.51h-1.11c-1.56,0-2.33.57-2.33,1.73a1.58,1.58,0,0,0,.36,1.13,1.44,1.44,0,0,0,1.09.39A2.21,2.21,0,0,0,417.44,82.45Z" fill="#fff"/><path d="M426.38,76.26a4,4,0,0,1,1.2.7l-.7.92a3.6,3.6,0,0,0-.88-.47,2.75,2.75,0,0,0-.93-.15,1.83,1.83,0,0,0-1.6.82,4.29,4.29,0,0,0-.56,2.41,3.93,3.93,0,0,0,.56,2.36,1.85,1.85,0,0,0,1.6.76,2.67,2.67,0,0,0,.91-.15,4.22,4.22,0,0,0,.93-.49l.67,1a4,4,0,0,1-2.58.93,3.33,3.33,0,0,1-2.69-1.15,4.73,4.73,0,0,1-1-3.18,5.74,5.74,0,0,1,.45-2.36A3.68,3.68,0,0,1,423,76.6a3.45,3.45,0,0,1,2-.56A4.34,4.34,0,0,1,426.38,76.26Z" fill="#fff"/><path d="M435.35,76.73a2.66,2.66,0,0,1,.65,1.89v6h-1.48V78.83a1.81,1.81,0,0,0-.34-1.26,1.28,1.28,0,0,0-1-.37,1.93,1.93,0,0,0-1.17.38,4.18,4.18,0,0,0-1,1.09v6h-1.47V72.86l1.47-.16v4.71a3,3,0,0,1,2.5-1.37A2.36,2.36,0,0,1,435.35,76.73Z" fill="#fff"/><path d="M440.43,84.67H439V72.84l1.47-.17ZM442.17,80l3.46,4.71h-1.76l-3.35-4.61,3.11-3.82h1.64Z" fill="#fff"/><path d="M447.54,84.37a1.85,1.85,0,0,1-.47-1.37V72.84l1.47-.17V83a.89.89,0,0,0,.12.52.5.5,0,0,0,.41.15,1.53,1.53,0,0,0,.54-.09l.39,1a2.47,2.47,0,0,1-1.17.29A1.68,1.68,0,0,1,447.54,84.37Z" fill="#fff"/><path d="M457.69,83.46a1.07,1.07,0,0,0,.53.38l-.34,1a2.21,2.21,0,0,1-1.05-.37,1.68,1.68,0,0,1-.6-.89,2.82,2.82,0,0,1-2.51,1.26,2.7,2.7,0,0,1-2-.7,2.46,2.46,0,0,1-.71-1.84,2.43,2.43,0,0,1,1-2.07,4.55,4.55,0,0,1,2.75-.72H456v-.62a1.62,1.62,0,0,0-.43-1.28,1.94,1.94,0,0,0-1.33-.38,7.35,7.35,0,0,0-2.27.44l-.37-1.07a8.63,8.63,0,0,1,2.91-.58,3.07,3.07,0,0,1,2.23.73,2.8,2.8,0,0,1,.73,2.07V82.7A1.29,1.29,0,0,0,457.69,83.46Zm-4.23-10.82a.92.92,0,0,1,.26.65.91.91,0,0,1-.26.65.93.93,0,0,1-1.58-.65.91.91,0,0,1,.93-.91A.91.91,0,0,1,453.46,72.64ZM456,82.45V80.51h-1.1c-1.56,0-2.34.57-2.34,1.73a1.58,1.58,0,0,0,.37,1.13,1.44,1.44,0,0,0,1.09.39A2.2,2.2,0,0,0,456,82.45Zm.78-9.81a.88.88,0,0,1,.26.65.87.87,0,0,1-.26.65.9.9,0,0,1-.67.27.85.85,0,0,1-.64-.27.88.88,0,0,1-.27-.65.9.9,0,0,1,.91-.91A.94.94,0,0,1,456.82,72.64Z" fill="#fff"/><path d="M465,76.14l-.28,1.44a3.17,3.17,0,0,0-.73-.09,1.57,1.57,0,0,0-1.27.57,4.29,4.29,0,0,0-.75,1.79v4.82h-1.47V76.24h1.26L462,78a3,3,0,0,1,.91-1.42A2,2,0,0,1,464.2,76,3.72,3.72,0,0,1,465,76.14Z" fill="#fff"/><path d="M472.86,77.21a5.43,5.43,0,0,1,.85,3.24,6.35,6.35,0,0,1-.4,2.31,3.48,3.48,0,0,1-1.16,1.55,2.86,2.86,0,0,1-1.76.55,2.79,2.79,0,0,1-2.24-1.12l-.14.93h-1.3V72.84l1.48-.17v4.62A2.81,2.81,0,0,1,470.57,76,2.69,2.69,0,0,1,472.86,77.21Zm-1.29,5.69a4.33,4.33,0,0,0,.55-2.45,4.59,4.59,0,0,0-.51-2.48,1.67,1.67,0,0,0-1.46-.76,2.37,2.37,0,0,0-2,1.32v4a2.5,2.5,0,0,0,.82.83,2,2,0,0,0,1,.3A1.76,1.76,0,0,0,471.57,82.9Z" fill="#fff"/><path d="M482.55,81h-5.37a3.27,3.27,0,0,0,.7,2,2,2,0,0,0,1.57.66,3.6,3.6,0,0,0,1.12-.17,4.48,4.48,0,0,0,1.07-.57l.64.88a4.62,4.62,0,0,1-2.94,1.06,3.43,3.43,0,0,1-2.75-1.15,4.77,4.77,0,0,1-1-3.17,6.09,6.09,0,0,1,.42-2.33,3.71,3.71,0,0,1,1.22-1.59,3.44,3.44,0,0,1,4.44.53,4.69,4.69,0,0,1,.9,3.06A6.51,6.51,0,0,1,482.55,81Zm-1.42-1.19a3.12,3.12,0,0,0-.5-1.9,1.73,1.73,0,0,0-1.48-.66c-1.21,0-1.86.89-2,2.66h3.95Z" fill="#fff"/><path d="M489.47,76.26a4.12,4.12,0,0,1,1.2.7l-.71.92a3.74,3.74,0,0,0-.87-.47,2.77,2.77,0,0,0-.94-.15,1.82,1.82,0,0,0-1.59.82,4.2,4.2,0,0,0-.57,2.41,4,4,0,0,0,.56,2.36,1.87,1.87,0,0,0,1.6.76,2.73,2.73,0,0,0,.92-.15A4.41,4.41,0,0,0,490,83l.68,1a4,4,0,0,1-2.58.93,3.37,3.37,0,0,1-2.7-1.15,4.78,4.78,0,0,1-1-3.18,5.74,5.74,0,0,1,.45-2.36,3.68,3.68,0,0,1,1.27-1.57,3.42,3.42,0,0,1,2-.56A4.34,4.34,0,0,1,489.47,76.26Z" fill="#fff"/><path d="M494.14,84.67h-1.47V72.84l1.47-.17ZM495.88,80l3.46,4.71h-1.76l-3.35-4.61,3.11-3.82H499Z" fill="#fff"/><path d="M507,81h-5.37a3.27,3.27,0,0,0,.7,2,2,2,0,0,0,1.57.66,3.65,3.65,0,0,0,1.12-.17,4.48,4.48,0,0,0,1.07-.57l.64.88a4.62,4.62,0,0,1-2.94,1.06,3.42,3.42,0,0,1-2.75-1.15,4.77,4.77,0,0,1-1-3.17,6.09,6.09,0,0,1,.42-2.33,3.71,3.71,0,0,1,1.22-1.59,3.44,3.44,0,0,1,4.44.53,4.69,4.69,0,0,1,.9,3.06C507.07,80.45,507.05,80.7,507,81Zm-1.42-1.19a3.12,3.12,0,0,0-.5-1.9,1.73,1.73,0,0,0-1.48-.66c-1.21,0-1.87.89-2,2.66h3.95Z" fill="#fff"/><path d="M515.27,76.73a2.66,2.66,0,0,1,.64,1.89v6h-1.47V78.83a1.87,1.87,0,0,0-.33-1.26,1.28,1.28,0,0,0-1-.37,2,2,0,0,0-1.18.38,4.24,4.24,0,0,0-1,1.1v6H509.5V76.24h1.26l.13,1.25A3.3,3.3,0,0,1,512,76.43a2.84,2.84,0,0,1,1.47-.39A2.37,2.37,0,0,1,515.27,76.73Z" fill="#fff"/><path d="M134.07,121.22a5.19,5.19,0,0,1,1.52,1l-.84.93a4.53,4.53,0,0,0-1.22-.73,3.65,3.65,0,0,0-1.29-.23,2.36,2.36,0,0,0-1.42.4,1.33,1.33,0,0,0-.56,1.17,1.51,1.51,0,0,0,.19.8,1.75,1.75,0,0,0,.71.6,8.43,8.43,0,0,0,1.51.58,9.13,9.13,0,0,1,1.73.69,2.81,2.81,0,0,1,1.54,2.65,3.12,3.12,0,0,1-.47,1.7,3.22,3.22,0,0,1-1.36,1.15,4.93,4.93,0,0,1-2.11.42,5.13,5.13,0,0,1-3.74-1.43l.85-.94a5,5,0,0,0,1.34.84,4,4,0,0,0,1.54.28,2.78,2.78,0,0,0,1.69-.5,1.73,1.73,0,0,0,.67-1.47,1.87,1.87,0,0,0-.2-.9,1.85,1.85,0,0,0-.72-.65A7.69,7.69,0,0,0,132,127a6.41,6.41,0,0,1-2.48-1.23,2.52,2.52,0,0,1-.78-1.95,2.58,2.58,0,0,1,.44-1.49,2.83,2.83,0,0,1,1.23-1,4.17,4.17,0,0,1,1.8-.37A5.13,5.13,0,0,1,134.07,121.22Z" fill="#fff"/><path d="M144,130.92a1.1,1.1,0,0,0,.53.37l-.33,1a2.37,2.37,0,0,1-1.06-.37,1.66,1.66,0,0,1-.59-.9,2.82,2.82,0,0,1-2.51,1.27,2.69,2.69,0,0,1-2-.71,2.46,2.46,0,0,1-.72-1.84,2.41,2.41,0,0,1,1-2.06A4.51,4.51,0,0,1,141,127h1.3v-.62a1.62,1.62,0,0,0-.44-1.28,1.91,1.91,0,0,0-1.32-.39,7.46,7.46,0,0,0-2.28.45l-.36-1.07a8.31,8.31,0,0,1,2.91-.58,3.06,3.06,0,0,1,2.22.73,2.8,2.8,0,0,1,.74,2.07v3.86A1.4,1.4,0,0,0,144,130.92Zm-1.64-1V128H141.2c-1.55,0-2.33.57-2.33,1.72a1.61,1.61,0,0,0,.36,1.14,1.43,1.43,0,0,0,1.09.38A2.19,2.19,0,0,0,142.31,129.9Z" fill="#fff"/><path d="M152.57,124.19a2.66,2.66,0,0,1,.65,1.89v6h-1.47v-5.84a1.91,1.91,0,0,0-.34-1.27,1.28,1.28,0,0,0-1-.37,1.93,1.93,0,0,0-1.19.39,3.93,3.93,0,0,0-1,1.1v6H146.8v-8.44h1.27l.12,1.25a3.21,3.21,0,0,1,1.12-1,2.83,2.83,0,0,1,1.46-.39A2.34,2.34,0,0,1,152.57,124.19Z" fill="#fff"/><path d="M162.71,120.3v11.83h-1.3l-.14-1.17a3.2,3.2,0,0,1-1,1,2.75,2.75,0,0,1-1.4.36,2.71,2.71,0,0,1-2.34-1.19,5.4,5.4,0,0,1-.84-3.18,6.13,6.13,0,0,1,.4-2.3,3.57,3.57,0,0,1,1.15-1.58,2.83,2.83,0,0,1,1.76-.57,3,3,0,0,1,2.27,1v-4.41Zm-2.4,10.54a3.44,3.44,0,0,0,.92-.94v-4.13a3.2,3.2,0,0,0-.88-.82,2,2,0,0,0-1.07-.28,1.7,1.7,0,0,0-1.51.82,4.42,4.42,0,0,0-.54,2.43,4.69,4.69,0,0,0,.5,2.43,1.59,1.59,0,0,0,1.42.8A2.07,2.07,0,0,0,160.31,130.84Z" fill="#fff"/><path d="M167.65,121.61a1.27,1.27,0,0,0-.29.92v1.16h2l-.16,1.14h-1.89v7.3h-1.47v-7.3h-1.5v-1.14h1.5v-1.15a2.29,2.29,0,0,1,.7-1.75,2.7,2.7,0,0,1,1.94-.66,4.61,4.61,0,0,1,1,.1,6,6,0,0,1,1,.33l-.47,1.07a3.64,3.64,0,0,0-1.47-.32A1.28,1.28,0,0,0,167.65,121.61Z" fill="#fff"/><path d="M177,130.92a1.1,1.1,0,0,0,.53.37l-.34,1a2.33,2.33,0,0,1-1.05-.37,1.61,1.61,0,0,1-.59-.9,2.84,2.84,0,0,1-2.52,1.27,2.68,2.68,0,0,1-2-.71,2.46,2.46,0,0,1-.72-1.84,2.42,2.42,0,0,1,1-2.06A4.55,4.55,0,0,1,174,127h1.29v-.62a1.62,1.62,0,0,0-.43-1.28,1.94,1.94,0,0,0-1.33-.39,7.46,7.46,0,0,0-2.27.45l-.37-1.07a8.4,8.4,0,0,1,2.92-.58,3.06,3.06,0,0,1,2.22.73,2.8,2.8,0,0,1,.74,2.07v3.86A1.32,1.32,0,0,0,177,130.92Zm-1.65-1V128h-1.1c-1.56,0-2.34.57-2.34,1.72a1.61,1.61,0,0,0,.37,1.14,1.43,1.43,0,0,0,1.09.38A2.18,2.18,0,0,0,175.31,129.9Z" fill="#fff"/><path d="M185.58,124.19a2.66,2.66,0,0,1,.65,1.89v6h-1.48v-5.84a1.92,1.92,0,0,0-.33-1.27,1.31,1.31,0,0,0-1-.37,1.91,1.91,0,0,0-1.19.39,3.93,3.93,0,0,0-1,1.1v6h-1.47v-8.44h1.26l.13,1.25a3.27,3.27,0,0,1,1.11-1,2.86,2.86,0,0,1,1.47-.39A2.34,2.34,0,0,1,185.58,124.19Z" fill="#fff"/><path d="M196,124.08a5.53,5.53,0,0,1-1.06.21c-.38,0-.85,0-1.41,0a2.24,2.24,0,0,1,1.49,2.13,2.73,2.73,0,0,1-.86,2.07,3.36,3.36,0,0,1-2.36.8,3.69,3.69,0,0,1-1.07-.16.83.83,0,0,0-.3.34.87.87,0,0,0-.11.44c0,.46.36.69,1.1.69h1.34a3.6,3.6,0,0,1,1.51.3,2.45,2.45,0,0,1,1,.83,2.12,2.12,0,0,1,.36,1.2,2.14,2.14,0,0,1-1,1.9,5.44,5.44,0,0,1-2.95.66,6.55,6.55,0,0,1-2.15-.28,2,2,0,0,1-1.13-.84,2.79,2.79,0,0,1-.33-1.44h1.32a1.45,1.45,0,0,0,.2.81,1.14,1.14,0,0,0,.68.45,5.11,5.11,0,0,0,1.41.15,4,4,0,0,0,1.9-.33,1.06,1.06,0,0,0,.57-1,1,1,0,0,0-.45-.9,2.24,2.24,0,0,0-1.25-.3h-1.33a2.46,2.46,0,0,1-1.62-.46,1.4,1.4,0,0,1-.55-1.14,1.49,1.49,0,0,1,.24-.8,2.23,2.23,0,0,1,.68-.69,2.39,2.39,0,0,1-1.42-2.33,2.78,2.78,0,0,1,.42-1.52,3,3,0,0,1,1.17-1.05,3.65,3.65,0,0,1,1.66-.38,11.59,11.59,0,0,0,1.66-.07,5.85,5.85,0,0,0,1.11-.24c.3-.1.66-.25,1.08-.44Zm-5.58,1a2.27,2.27,0,0,0,0,2.75,1.65,1.65,0,0,0,1.31.52,1.7,1.7,0,0,0,1.32-.5,2.07,2.07,0,0,0,.46-1.42,1.63,1.63,0,0,0-1.81-1.87A1.6,1.6,0,0,0,190.41,125.08Z" fill="#fff"/><line x1="53.66" y1="135.53" x2="53.66" y2="147.55" fill="none" stroke="#fff" stroke-miterlimit="10" stroke-width="0.75"/><line x1="158.87" y1="135.53" x2="158.87" y2="147.55" fill="none" stroke="#fff" stroke-miterlimit="10" stroke-width="0.75"/><line x1="243.02" y1="108.23" x2="243.02" y2="147.55" fill="none" stroke="#fff" stroke-miterlimit="10" stroke-width="0.75"/><line x1="355.13" y1="126.83" x2="355.13" y2="147.55" fill="none" stroke="#fff" stroke-miterlimit="10" stroke-width="0.75"/><path d="M328.17,300.3H324v3.76h3.6v1.2H324v4.85h-1.52v-11h5.86Z" fill="#fff"/><path d="M335.56,308.9a1.12,1.12,0,0,0,.53.38l-.33,1a2.26,2.26,0,0,1-1.06-.37,1.67,1.67,0,0,1-.59-.89,2.83,2.83,0,0,1-2.51,1.26,2.68,2.68,0,0,1-2-.7,2.47,2.47,0,0,1-.72-1.84,2.41,2.41,0,0,1,1-2.07,4.51,4.51,0,0,1,2.74-.72h1.3v-.62a1.64,1.64,0,0,0-.44-1.28,1.91,1.91,0,0,0-1.32-.38,7.4,7.4,0,0,0-2.28.44l-.36-1.07a8.51,8.51,0,0,1,2.91-.57,3.06,3.06,0,0,1,2.22.72,2.81,2.81,0,0,1,.74,2.08v3.85A1.38,1.38,0,0,0,335.56,308.9Zm-1.64-1V306h-1.11c-1.56,0-2.33.58-2.33,1.73a1.58,1.58,0,0,0,.36,1.13,1.44,1.44,0,0,0,1.09.39A2.21,2.21,0,0,0,333.92,307.89Z" fill="#fff"/><path d="M344.68,310.11h-1.26l-.11-1.31a3.2,3.2,0,0,1-1.11,1.14,3,3,0,0,1-1.52.36,2.22,2.22,0,0,1-1.72-.67,2.67,2.67,0,0,1-.63-1.9v-6.05h1.47v5.89a1.86,1.86,0,0,0,.31,1.22,1.22,1.22,0,0,0,1,.36,2.51,2.51,0,0,0,2.11-1.46v-6h1.47Z" fill="#fff"/><path d="M348.12,309.81a1.85,1.85,0,0,1-.48-1.36V298.29l1.48-.18v10.3a.89.89,0,0,0,.12.52.48.48,0,0,0,.4.15,1.55,1.55,0,0,0,.55-.09l.38,1a2.31,2.31,0,0,1-1.17.29A1.67,1.67,0,0,1,348.12,309.81Z" fill="#fff"/><path d="M356.67,309.73a3.29,3.29,0,0,1-1.89.57,2.21,2.21,0,0,1-1.67-.61,2.48,2.48,0,0,1-.6-1.79v-5.09H351v-1.13h1.47v-1.91l1.47-.17v2.08h2l-.16,1.13H354v5a1.6,1.6,0,0,0,.23,1,.92.92,0,0,0,.78.29,2.19,2.19,0,0,0,1.12-.36Z" fill="#fff"/><path d="M364.46,310.11H363.2l-.12-1.31a3.18,3.18,0,0,1-1.1,1.14,3,3,0,0,1-1.52.36,2.24,2.24,0,0,1-1.73-.67,2.72,2.72,0,0,1-.62-1.9v-6.05h1.47v5.89a1.93,1.93,0,0,0,.3,1.22,1.26,1.26,0,0,0,1,.36,2.51,2.51,0,0,0,2.11-1.46v-6h1.47Z" fill="#fff"/><path d="M372,301.58l-.28,1.44a3.17,3.17,0,0,0-.73-.09,1.57,1.57,0,0,0-1.27.57,4.29,4.29,0,0,0-.75,1.79v4.82H367.5v-8.43h1.26l.15,1.71a3.1,3.1,0,0,1,.91-1.42,2,2,0,0,1,1.34-.48A3.73,3.73,0,0,1,372,301.58Z" fill="#fff"/><path d="M383.8,302.18a2.7,2.7,0,0,1,.63,1.88v6.05H383v-5.84c0-1.09-.39-1.63-1.18-1.63a1.6,1.6,0,0,0-1.06.36,5.22,5.22,0,0,0-.92,1.12v6h-1.48v-5.84c0-1.09-.39-1.63-1.18-1.63a1.57,1.57,0,0,0-1.07.37,4.81,4.81,0,0,0-.91,1.11v6h-1.48v-8.43h1.27l.13,1.23a2.82,2.82,0,0,1,2.43-1.42,2.14,2.14,0,0,1,2.13,1.52,3.81,3.81,0,0,1,1.09-1.13,2.54,2.54,0,0,1,1.42-.39A2.12,2.12,0,0,1,383.8,302.18Z" fill="#fff"/><line x1="353.03" y1="281.36" x2="353.03" y2="293.04" fill="none" stroke="#fff" stroke-miterlimit="10" stroke-width="0.75"/><line x1="459.4" y1="89.11" x2="459.4" y2="126.83" fill="none" stroke="#fff" stroke-miterlimit="10" stroke-width="0.75"/></g></svg>