<svg xmlns="http://www.w3.org/2000/svg" viewBox="0 51.68 544 289" style="max-height: 500px" width="544" height="289">

 <g>
  <title>Layer 1</title>
  <g id="Hintergrund" stroke="null">
   <polygon points="356.28 219.7 356.28 214.85 193.64 214.85 193.64 273.57 199.77 273.57 200.28 221.23 349.9 221.49 349.9 223.79 347.09 222.76 347.35 233.74 360.37 233.62 360.37 223.53 356.15 223.66 356.28 219.7" fill="#ff921e" id="svg_2" stroke="null"/>
   <rect x="109.87" y="271.19" width="112.75" height="48.49" fill="#ff921e" id="svg_3" stroke="null"/>
   <polygon points="223.64 171.96 229.39 170.04 242.79 181.82 244.32 194.65 238.77 196.47 238 202.4 300.49 252.96 304.96 255.7 337.9 255.7 338.66 240.89 346.58 233.36 359.73 232.85 368.41 242.55 370.58 252.96 465.81 251.36 465.81 174.85 460.23 170.94 483.43 171 476.22 176.04 477.3 262.59 473.22 265.15 370.32 263.87 363.72 269.58 349.39 271.27 342.75 266.42 336.62 260.3 302.15 260.55 291.05 256.34 256.93 229.39 228.9 204.91 228.37 198.44 222.62 193.08 223.64 171.96" fill="#f4676c" id="svg_4" stroke="null"/>
   <path d="m116.31,174.85l1.37,-2.89l43.54,9.04l17.36,7.32l-3.58,1.68l0.9,41.23l85.78,1.48s11.88,3.5 19.22,11.54s18.44,15.19 22.53,15.19s34.6,-0.76 35.87,0s5.36,10.34 12,10.34a60.37,60.37 0 0 0 13.7,-1.95l-5.62,7.91l-11.46,0l-11.3,-12.51l-38.3,-1l-7.27,-5.87l-16.34,-13l-112.82,0.25l1.62,-54.51l-48.63,0.39l1.43,-14.64z" fill="#bb0f21" id="svg_5" stroke="null"/>
   <polygon points="31 180.57 37 177.57 48.24 178.21 60.75 166.02 56.92 188.55 52.2 194.17 29.86 194.17 31 180.57" fill="#bb0f21" id="svg_6" stroke="null"/>
   <path d="m32.15,155.06l55.44,0l0,1.77l28.72,0l0,-1.77l84.55,0l0.57,1.77l23.36,0l0,1.58l56.87,0l0,4.16l14.37,1l0,8.81l-14.85,0l0,21.83l-38.77,0s-2.11,-22.6 -18,-22.79a25.75,25.75 0 0 1 -0.77,-5.36l-22.21,0l0,22.4l-26.43,-0.13s-1.53,-3.16 -13.11,-5.08a125.89,125.89 0 0 0 -43.76,-8.64l-2.13,-1.51l0,-6.79l-28.35,-0.1l0,28.44l-36.74,-0.65s6,-6.37 8.63,-25.33c-5,6.7 -6,12.54 -14.94,11.87c-5.24,-0.39 -3.83,-2.68 -13.6,0l0,-25.48l1.15,0z" fill="#5cb6cd" id="svg_7" stroke="null"/>
   <polygon points="292.77 163.53 306.17 163.53 307.51 155.06 395.22 154.47 395.22 163.34 417.17 164.04 417.92 135.17 441.94 135.7 442.18 132.09 502.06 133.15 502.81 137.19 515.07 137.19 515.07 148.91 502.06 148.91 502.06 157.66 480.24 171.32 461.98 171.32 442.45 158.17 442.58 148.21 427 149.49 426.49 174.44 397.42 173.87 393.43 179.49 393.56 203.93 305.35 203.93 305.6 172.98 292.77 172.85 292.77 163.53" fill="#95b5dc" id="svg_8" stroke="null"/>
   <path d="m299.57,253l-61.57,-50.6s-1.34,-7.66 4.41,-8.23l38.77,0l0,-21.83l25.19,0l0,30.92l88.18,-0.47l0,-28.34l33.22,0l0,-26.24l14.17,0l0,11l22.79,15.32l0,77.84l-95.56,0.58l0.2,-11.11l-9.2,-9.67l-0.57,-9.1l-3.64,-0.19" fill="none" stroke-linejoin="round" stroke-width="2" id="svg_9" stroke="#000000"/>
   <polyline points="335.98 263.19 347.92 275.74 358.26 275.74 368.41 266.17 368.41 263.87 476.22 263.87 476.22 175.02 502.06 159.13 502.06 148.91 515.07 148.91" fill="none" stroke-linejoin="round" stroke-width="2" id="svg_10" stroke="#000000"/>
   <polyline points="306.17 155.06 306.17 163.53 280.9 163.53 280.9 153.29" fill="none" stroke-linejoin="round" stroke-width="2" id="svg_11" stroke="#000000"/>
   <polyline points="87.59 153.29 87.59 156.83 116.31 156.83 116.31 153.29" fill="none" stroke-linejoin="round" stroke-width="2" id="svg_12" stroke="#000000"/>
   <polyline points="201.43 153.29 201.43 156.83 223.64 156.83 223.64 153.29" fill="none" stroke-linejoin="round" stroke-width="2" id="svg_13" stroke="#000000"/>
   <polygon points="201.43 188.42 201.43 166.02 223.64 166.02 223.64 193.79 227.57 198.29 227.57 203.74 260.12 232.18 175 232.18 175 188.33 201.43 188.42" fill="none" stroke-linejoin="round" stroke-width="2" id="svg_14" stroke="#000000"/>
   <line x1="206.41" y1="173.49" x2="216.57" y2="173.49" fill="none" stroke-miterlimit="10" stroke-width="2" id="svg_15" stroke="#bccbd3"/>
   <polygon points="215.26 175.5 220.42 173.54 215.26 171.59 215.26 175.5" fill="#bccbd3" id="svg_16" stroke="null"/>
   <line x1="286.2" y1="180.15" x2="298.44" y2="180.15" fill="none" stroke-miterlimit="10" stroke-width="2" id="svg_17" stroke="#bccbd3"/>
   <polygon points="297.13 182.16 302.29 180.2 297.13 178.25 297.13 182.16" fill="#bccbd3" id="svg_18" stroke="null"/>
   <polyline points="454.96 215.3 454.94 243.38 420.19 243.48" fill="none" stroke-miterlimit="10" stroke-width="2" id="svg_19" stroke="#bccbd3"/>
   <polygon points="421.5 241.47 416.34 243.44 421.51 245.38 421.5 241.47" fill="#bccbd3" id="svg_20" stroke="null"/>
   <line x1="152.71" y1="218.66" x2="152.8" y2="228.82" fill="none" stroke-miterlimit="10" stroke-width="2" id="svg_21" stroke="#bccbd3"/>
   <polygon points="150.78 227.53 152.78 232.67 154.69 227.5 150.78 227.53" fill="#bccbd3" id="svg_22" stroke="null"/>
   <line x1="92.83" y1="175.68" x2="107.92" y2="175.75" fill="none" stroke-miterlimit="10" stroke-width="2" id="svg_23" stroke="#bccbd3"/>
   <polygon points="106.6 177.76 111.77 175.82 106.62 173.84 106.6 177.76" fill="#bccbd3" id="svg_24" stroke="null"/>
   <path d="m62.7,153.29s-2.8,23.8 -11.28,41.07" fill="none" stroke-linejoin="round" stroke-width="0.75" id="svg_25" stroke="#f1f1f1"/>
   <path d="m63.93,153.18s-2.29,23.82 -10.27,41.18" fill="none" stroke-linejoin="round" stroke-width="0.75" id="svg_26" stroke="#f1f1f1"/>
   <path d="m65.5,153.53s-1.41,23.75 -8.36,41.28" fill="none" stroke-linejoin="round" stroke-width="0.75" id="svg_27" stroke="#f1f1f1"/>
   <path d="m67.06,153.34s-0.41,23.61 -6.74,41.31" fill="none" stroke-linejoin="round" stroke-width="0.75" id="svg_28" stroke="#f1f1f1"/>
   <path d="m69.27,153.21s0.4,23.64 -5.45,41.6" fill="none" stroke-linejoin="round" stroke-width="0.75" id="svg_29" stroke="#f1f1f1"/>
   <path d="m67.06,147.63s5.93,4.1 4.59,6.31a34.79,34.79 0 0 1 -11.25,0.11c-1.29,-0.77 3,-6.23 4.59,-6.42a5.12,5.12 0 0 1 2.07,0z" fill="#f1f1f1" stroke-linejoin="round" stroke-width="0.75" id="svg_30" stroke="#f1f1f1"/>
   <rect x="324.94" y="146.49" width="6.19" height="33.96" fill="#edee78" id="svg_31" stroke="null"/>
   <ellipse cx="328.04" cy="184.1" rx="11.06" ry="5.95" fill="#edee78" id="svg_32" stroke="null"/>
   <ellipse cx="328.04" cy="146.49" rx="3.1" ry="1.33" fill="#edee78" id="svg_33" stroke="null"/>
   <rect x="368.98" y="144.9" width="6.19" height="33.96" fill="#4e34bc" id="svg_34" stroke="null"/>
   <ellipse cx="372.08" cy="144.9" rx="3.1" ry="1.33" fill="#4e34bc" id="svg_35" stroke="null"/>
   <path d="m372.08,176.56c-6.11,0 -11.06,3.21 -11.06,7.17l22.12,0c0,-3.96 -4.95,-7.17 -11.06,-7.17z" fill="#4e34bc" id="svg_36" stroke="null"/>
   <rect x="320.25" y="148.21" width="16.37" height="6.65" fill="#f1f1f1" id="svg_37" stroke="null"/>
   <rect x="363.89" y="148.21" width="16.37" height="6.65" fill="#f1f1f1" id="svg_38" stroke="null"/>
   <line x1="362.36" y1="184.98" x2="362.36" y2="196.56" fill="none" stroke-miterlimit="10" stroke-dasharray="2" id="svg_39" stroke="#4d4d4d"/>
   <line x1="365.8" y1="187.51" x2="365.8" y2="199.24" fill="none" stroke-miterlimit="10" stroke-dasharray="2" id="svg_40" stroke="#4d4d4d"/>
   <line x1="369.2" y1="185.17" x2="369.2" y2="196.75" fill="none" stroke-miterlimit="10" stroke-dasharray="2" id="svg_41" stroke="#4d4d4d"/>
   <line x1="372.41" y1="187.04" x2="372.41" y2="198.76" fill="none" stroke-miterlimit="10" stroke-dasharray="2" id="svg_42" stroke="#4d4d4d"/>
   <line x1="375.67" y1="185.17" x2="375.67" y2="196.75" fill="none" stroke-miterlimit="10" stroke-dasharray="2" id="svg_43" stroke="#4d4d4d"/>
   <line x1="378.73" y1="187.51" x2="378.73" y2="199.24" fill="none" stroke-miterlimit="10" stroke-dasharray="2" id="svg_44" stroke="#4d4d4d"/>
   <line x1="381.84" y1="184.98" x2="381.84" y2="196.56" fill="none" stroke-miterlimit="10" stroke-dasharray="2" id="svg_45" stroke="#4d4d4d"/>
   <path d="m334.9,161.42s-24.23,5.37 -11.3,10.06" fill="none" stroke-miterlimit="10" id="svg_46" stroke="#4d4d4d"/>
   <path d="m332.41,173.2s5.36,2.32 2.49,3.36s-15.7,0.19 -17.33,3.59" fill="none" stroke-miterlimit="10" id="svg_47" stroke="#4d4d4d"/>
   <path d="m339.09,185.17s5.86,2.58 1.65,3.73s-25.37,2.35 -18.29,4.48" fill="none" stroke-miterlimit="10" id="svg_48" stroke="#4d4d4d"/>
   <circle cx="360.08" cy="159.32" r="1.34" fill="none" id="svg_49" stroke="null"/>
   <circle cx="360.08" cy="159.32" r="1.34" fill="#1a9ebf" id="svg_50" stroke="null"/>
   <circle cx="365.23" cy="162.13" r="1.34" fill="#1a9ebf" id="svg_51" stroke="null"/>
   <circle cx="357.4" cy="164.81" r="1.34" fill="#1a9ebf" id="svg_52" stroke="null"/>
   <circle cx="361.67" cy="168.03" r="1.34" fill="#1a9ebf" id="svg_53" stroke="null"/>
   <circle cx="356.06" cy="171.48" r="1.34" fill="#1a9ebf" id="svg_54" stroke="null"/>
   <circle cx="365" cy="171.96" r="1.34" fill="#1a9ebf" id="svg_55" stroke="null"/>
   <circle cx="359.68" cy="174.54" r="1.34" fill="#1a9ebf" id="svg_56" stroke="null"/>
   <circle cx="358.34" cy="180.15" r="1.34" fill="#1a9ebf" id="svg_57" stroke="null"/>
   <circle cx="356.06" cy="184.98" r="1.34" fill="#1a9ebf" id="svg_58" stroke="null"/>
   <circle cx="357.78" cy="188.71" r="1.34" fill="#1a9ebf" id="svg_59" stroke="null"/>
   <circle cx="353.95" cy="192.9" r="1.34" fill="#1a9ebf" id="svg_60" stroke="null"/>
   <circle cx="358.34" cy="196.56" r="1.34" fill="#1a9ebf" id="svg_61" stroke="null"/>
   <circle cx="387.64" cy="184.81" r="1.34" fill="#1a9ebf" id="svg_62" stroke="null"/>
   <circle cx="389.49" cy="189.62" r="1.34" fill="#1a9ebf" id="svg_63" stroke="null"/>
   <circle cx="386.3" cy="194.72" r="1.34" fill="#1a9ebf" id="svg_64" stroke="null"/>
   <circle cx="378.01" cy="197.9" r="1.34" fill="#1a9ebf" id="svg_65" stroke="null"/>
   <circle cx="368.18" cy="198.41" r="1.34" fill="#1a9ebf" id="svg_66" stroke="null"/>
   <circle cx="378.01" cy="157.34" r="1.34" fill="#1a9ebf" id="svg_67" stroke="null"/>
   <circle cx="378.01" cy="162.13" r="1.34" fill="#1a9ebf" id="svg_68" stroke="null"/>
   <circle cx="381.84" cy="159.76" r="1.34" fill="#1a9ebf" id="svg_69" stroke="null"/>
   <circle cx="384.2" cy="165.57" r="1.34" fill="#1a9ebf" id="svg_70" stroke="null"/>
   <circle cx="378.73" cy="168.45" r="1.34" fill="#1a9ebf" id="svg_71" stroke="null"/>
   <circle cx="383.38" cy="175.49" r="1.34" fill="#1a9ebf" id="svg_72" stroke="null"/>
   <circle cx="378.01" cy="175.49" r="1.34" fill="#1a9ebf" id="svg_73" stroke="null"/>
   <circle cx="385.23" cy="180.15" r="1.34" fill="#1a9ebf" id="svg_74" stroke="null"/>
   <circle cx="382.55" cy="171.48" r="1.34" fill="#1a9ebf" id="svg_75" stroke="null"/>
   <path d="m301.27,254.14a15.2,15.2 0 0 0 5.14,1.26c2.76,0.2 31.53,-0.3 31.53,-0.3" fill="none" stroke-miterlimit="10" stroke-width="2" stroke-dasharray="3" id="svg_76" stroke="#f1f1f1"/>
   <path d="m295.9,260.87l2.36,0.06c2.62,0.12 36,1.47 36,1.47" fill="none" stroke-miterlimit="10" stroke-width="2" stroke-dasharray="3" id="svg_77" stroke="#f1f1f1"/>
   <polyline points="337.12 256.66 337.94 240.51 347.31 232.08 347.1 223.22 350.13 223.02" fill="none" stroke-linejoin="round" stroke-width="2" id="svg_78" stroke="#000000"/>
   <ellipse cx="328.04" cy="154.62" rx="3.1" ry="1.33" fill="#edee78" id="svg_79" stroke="null"/>
   <ellipse cx="372.08" cy="155.06" rx="3.1" ry="1.33" fill="#4e34bc" id="svg_80" stroke="null"/>
   <rect x="114.88" y="275.74" width="102.69" height="39.13" fill="#edee78" id="svg_81" stroke="null"/>
   <line x1="350.64" y1="226.23" x2="350.64" y2="231.57" fill="#002a58" stroke-miterlimit="10" stroke-width="0.75" id="svg_82" stroke="gray"/>
   <line x1="353.03" y1="226.23" x2="353.03" y2="231.57" fill="#002a58" stroke-miterlimit="10" stroke-width="0.75" id="svg_83" stroke="gray"/>
   <line x1="356.06" y1="226.23" x2="356.06" y2="231.57" fill="#002a58" stroke-miterlimit="10" stroke-width="0.75" id="svg_84" stroke="gray"/>
   <polyline points="294.24 259.92 275.54 244.43 162.75 244.43 162.75 188.71 116.03 189.09 116.03 166.31 87.69 166.21 87.69 194.65 31 193.69 31 153.29" fill="none" stroke-linejoin="round" stroke-width="2" id="svg_85" stroke="#000000"/>
   <polyline points="515.07 137.19 502.06 137.19 502.06 133.15 443.49 133.15 442.55 133.15 441.94 135.7 417.92 135.17 417.17 164.04 395.22 163.34 395.22 151.54" fill="none" stroke-linejoin="round" stroke-width="2" id="svg_86" stroke="#000000"/>
   <path d="m282.43,136l-20.7,0c-2.63,0 -8.25,1 -11.14,5.35s-3.16,11.32 -3.16,11.32s3.77,3.51 10.7,0c-0.08,-2.63 0.09,-3.86 0.88,-4.83s2.55,-2.28 6.32,-2.28s17.1,0.09 17.1,0.09l0,-9.65z" fill="#5cb6cd" id="svg_87" stroke="null"/>
  </g>
  <g id="Schrift_alles_andeere">
   <path d="m36.13,127.45l-1.71,0l0,4.68l-1.52,0l0,-11l2.9,0a5.2,5.2 0 0 1 3.13,0.79a2.7,2.7 0 0 1 1.07,2.3a2.87,2.87 0 0 1 -0.59,1.87a3.6,3.6 0 0 1 -1.79,1.09l3,4.95l-1.85,0l-2.64,-4.68zm-0.13,-1.16a2.89,2.89 0 0 0 1.81,-0.49a1.92,1.92 0 0 0 0.6,-1.58a1.73,1.73 0 0 0 -0.61,-1.48a3.4,3.4 0 0 0 -2,-0.45l-1.38,0l0,4l1.58,0z" fill="#000000" id="svg_101"/>
   <path d="m48.68,128.41l-5.38,0a3.3,3.3 0 0 0 0.71,2.05a2,2 0 0 0 1.56,0.66a3.33,3.33 0 0 0 1.12,-0.18a4.14,4.14 0 0 0 1.08,-0.56l0.64,0.88a4.65,4.65 0 0 1 -2.95,1.06a3.43,3.43 0 0 1 -2.74,-1.15a4.72,4.72 0 0 1 -1,-3.17a6.05,6.05 0 0 1 0.43,-2.33a3.64,3.64 0 0 1 1.21,-1.59a3.06,3.06 0 0 1 1.87,-0.58a3.1,3.1 0 0 1 2.57,1.11a4.68,4.68 0 0 1 0.9,3q0.01,0.39 -0.02,0.8zm-1.43,-1.18a3.1,3.1 0 0 0 -0.49,-1.9a1.75,1.75 0 0 0 -1.49,-0.66c-1.21,0 -1.86,0.89 -2,2.66l4,0l-0.02,-0.1z" fill="#000000" id="svg_102"/>
   <path d="m55.59,123.72a3.66,3.66 0 0 1 1.2,0.69l-0.7,0.93a3.6,3.6 0 0 0 -0.88,-0.47a2.75,2.75 0 0 0 -0.93,-0.15a1.82,1.82 0 0 0 -1.59,0.81a4.24,4.24 0 0 0 -0.57,2.42a4,4 0 0 0 0.56,2.36a1.85,1.85 0 0 0 1.6,0.76a2.67,2.67 0 0 0 0.91,-0.15a4.7,4.7 0 0 0 0.93,-0.49l0.67,1a4,4 0 0 1 -2.58,0.93a3.36,3.36 0 0 1 -2.69,-1.15a4.74,4.74 0 0 1 -1,-3.19a5.73,5.73 0 0 1 0.45,-2.35a3.68,3.68 0 0 1 1.27,-1.57a3.45,3.45 0 0 1 2,-0.56a4,4 0 0 1 1.35,0.18z" fill="#000000" id="svg_103"/>
   <path d="m64.56,124.19a2.66,2.66 0 0 1 0.65,1.89l0,6l-1.48,0l0,-5.84a1.86,1.86 0 0 0 -0.34,-1.27a1.32,1.32 0 0 0 -1,-0.37a1.87,1.87 0 0 0 -1.17,0.39a4,4 0 0 0 -1,1.09l0,6l-1.43,0l0,-11.76l1.47,-0.16l0,4.7a3,3 0 0 1 2.5,-1.36a2.34,2.34 0 0 1 1.8,0.69z" fill="#000000" id="svg_104"/>
   <path d="m74.5,128.41l-5.37,0a3.24,3.24 0 0 0 0.7,2.05a2,2 0 0 0 1.57,0.66a3.37,3.37 0 0 0 1.12,-0.18a4.09,4.09 0 0 0 1.07,-0.56l0.64,0.88a4.64,4.64 0 0 1 -2.94,1.06a3.45,3.45 0 0 1 -2.75,-1.15a4.77,4.77 0 0 1 -1,-3.17a6.05,6.05 0 0 1 0.42,-2.33a3.58,3.58 0 0 1 1.22,-1.59a3,3 0 0 1 1.86,-0.58a3.13,3.13 0 0 1 2.58,1.11a4.68,4.68 0 0 1 0.89,3q0.02,0.39 -0.01,0.8zm-1.42,-1.18a3.1,3.1 0 0 0 -0.5,-1.9a1.74,1.74 0 0 0 -1.49,-0.66c-1.2,0 -1.86,0.89 -2,2.66l4,0l-0.01,-0.1z" fill="#000000" id="svg_105"/>
   <path d="m82.73,124.19a2.62,2.62 0 0 1 0.65,1.89l0,6l-1.47,0l0,-5.84a1.86,1.86 0 0 0 -0.34,-1.27a1.28,1.28 0 0 0 -1,-0.37a1.88,1.88 0 0 0 -1.18,0.39a3.93,3.93 0 0 0 -1,1.1l0,6l-1.39,0l0,-8.44l1.26,0l0.13,1.25a3.27,3.27 0 0 1 1.11,-1a2.83,2.83 0 0 1 1.46,-0.39a2.34,2.34 0 0 1 1.77,0.68z" fill="#000000" id="svg_106"/>
   <path d="m198.92,103.29l-1.63,0l-3.55,-11l1.63,0l2.77,9.38l2.77,-9.38l1.53,0l-3.52,11z" fill="#000000" id="svg_107"/>
   <path d="m209.51,95.85a4.93,4.93 0 0 1 1,3.22a5.57,5.57 0 0 1 -0.45,2.31a3.41,3.41 0 0 1 -1.29,1.55a3.62,3.62 0 0 1 -2,0.56a3.44,3.44 0 0 1 -2.77,-1.19a4.85,4.85 0 0 1 -1,-3.21a5.62,5.62 0 0 1 0.45,-2.32a3.54,3.54 0 0 1 1.3,-1.55a3.61,3.61 0 0 1 2,-0.55a3.4,3.4 0 0 1 2.76,1.18zm-4.95,3.24c0,2.14 0.72,3.21 2.17,3.21s2.18,-1.08 2.18,-3.23s-0.72,-3.22 -2.16,-3.22s-2.19,1.08 -2.19,3.24z" fill="#000000" id="svg_108"/>
   <path d="m217.42,94.77l-0.27,1.44a2.8,2.8 0 0 0 -0.74,-0.1a1.55,1.55 0 0 0 -1.26,0.58a4.23,4.23 0 0 0 -0.75,1.79l0,4.81l-1.48,0l0,-8.43l1.27,0l0.14,1.71a3.26,3.26 0 0 1 0.91,-1.42a2.07,2.07 0 0 1 1.35,-0.48a3.15,3.15 0 0 1 0.83,0.1z" fill="#000000" id="svg_109"/>
   <path d="m220.57,103.29l-1.47,0l0,-11.82l1.47,-0.18l0,12zm1.75,-4.7l3.45,4.7l-1.77,0l-3.34,-4.6l3.1,-3.83l1.65,0l-3.09,3.73z" fill="#000000" id="svg_110"/>
   <path d="m227.68,103a1.91,1.91 0 0 1 -0.47,-1.37l0,-10.16l1.47,-0.18l0,10.31a0.87,0.87 0 0 0 0.12,0.51a0.48,0.48 0 0 0 0.41,0.16a1.38,1.38 0 0 0 0.55,-0.1l0.38,1a2.42,2.42 0 0 1 -1.17,0.29a1.75,1.75 0 0 1 -1.29,-0.46z" fill="#000000" id="svg_111"/>
   <path d="m237.84,102.09a1,1 0 0 0 0.52,0.37l-0.33,1a2.37,2.37 0 0 1 -1.06,-0.37a1.72,1.72 0 0 1 -0.59,-0.9a2.84,2.84 0 0 1 -2.51,1.27a2.7,2.7 0 0 1 -2,-0.71a2.46,2.46 0 0 1 -0.72,-1.84a2.41,2.41 0 0 1 1,-2.06a4.51,4.51 0 0 1 2.74,-0.72l1.3,0l0,-0.63a1.69,1.69 0 0 0 -0.43,-1.28a2,2 0 0 0 -1.33,-0.38a7.35,7.35 0 0 0 -2.27,0.45l-0.37,-1.07a8.31,8.31 0 0 1 2.91,-0.58a3,3 0 0 1 2.22,0.73a2.73,2.73 0 0 1 0.74,2.07l0,3.86a1.31,1.31 0 0 0 0.18,0.79zm-4.24,-10.82a0.88,0.88 0 0 1 0.27,0.65a0.9,0.9 0 0 1 -0.91,0.91a0.94,0.94 0 0 1 -0.67,-0.26a0.92,0.92 0 0 1 -0.26,-0.65a0.91,0.91 0 0 1 0.26,-0.65a0.9,0.9 0 0 1 0.71,-0.27a0.84,0.84 0 0 1 0.6,0.27zm2.59,9.8l0,-1.94l-1.11,0c-1.55,0 -2.33,0.58 -2.33,1.73a1.58,1.58 0 0 0 0.37,1.14a1.43,1.43 0 0 0 1.08,0.38a2.2,2.2 0 0 0 1.99,-1.31zm0.77,-9.8a0.88,0.88 0 0 1 0.27,0.65a0.91,0.91 0 0 1 -0.93,0.91a0.91,0.91 0 0 1 -0.65,-0.26a0.92,0.92 0 0 1 -0.26,-0.65a0.91,0.91 0 0 1 0.26,-0.65a1,1 0 0 1 1.31,0z" fill="#000000" id="svg_112"/>
   <path d="m245.18,94.77l-0.27,1.44a2.8,2.8 0 0 0 -0.74,-0.1a1.55,1.55 0 0 0 -1.26,0.58a4.23,4.23 0 0 0 -0.75,1.79l0,4.81l-1.48,0l0,-8.43l1.32,0l0.14,1.71a3.26,3.26 0 0 1 0.91,-1.42a2.07,2.07 0 0 1 1.35,-0.48a3.15,3.15 0 0 1 0.78,0.1z" fill="#000000" id="svg_113"/>
   <path d="m253,95.83a5.36,5.36 0 0 1 0.85,3.24a6.11,6.11 0 0 1 -0.4,2.31a3.35,3.35 0 0 1 -1.15,1.55a2.89,2.89 0 0 1 -1.76,0.56a2.8,2.8 0 0 1 -2.24,-1.12l-0.14,0.92l-1.3,0l0,-11.82l1.47,-0.18l0,4.63a2.83,2.83 0 0 1 2.39,-1.25a2.68,2.68 0 0 1 2.28,1.16zm-1.28,5.7a4.43,4.43 0 0 0 0.55,-2.46a4.55,4.55 0 0 0 -0.51,-2.47a1.66,1.66 0 0 0 -1.46,-0.76a2.4,2.4 0 0 0 -2,1.31l0,4a2.63,2.63 0 0 0 0.83,0.83a1.85,1.85 0 0 0 1,0.31a1.78,1.78 0 0 0 1.59,-0.76z" fill="#000000" id="svg_114"/>
   <path d="m262.7,99.58l-5.38,0a3.3,3.3 0 0 0 0.71,2a2,2 0 0 0 1.57,0.66a3.42,3.42 0 0 0 1.12,-0.18a4.61,4.61 0 0 0 1.07,-0.56l0.64,0.88a4.71,4.71 0 0 1 -2.95,1.06a3.42,3.42 0 0 1 -2.74,-1.16a4.67,4.67 0 0 1 -1,-3.16a6.05,6.05 0 0 1 0.42,-2.33a3.58,3.58 0 0 1 1.22,-1.59a3,3 0 0 1 1.86,-0.58a3.15,3.15 0 0 1 2.58,1.1a4.78,4.78 0 0 1 0.89,3.06q0.02,0.43 -0.01,0.8zm-1.42,-1.18a3.15,3.15 0 0 0 -0.5,-1.91a1.77,1.77 0 0 0 -1.49,-0.65c-1.2,0 -1.86,0.88 -2,2.65l4,0l-0.01,-0.09z" fill="#000000" id="svg_115"/>
   <path d="m269.61,94.89a3.66,3.66 0 0 1 1.2,0.69l-0.7,0.93a3.6,3.6 0 0 0 -0.88,-0.47a2.75,2.75 0 0 0 -0.93,-0.15a1.83,1.83 0 0 0 -1.59,0.81a4.24,4.24 0 0 0 -0.57,2.42a4,4 0 0 0 0.56,2.36a1.88,1.88 0 0 0 1.6,0.76a2.67,2.67 0 0 0 0.91,-0.15a5.29,5.29 0 0 0 0.93,-0.49l0.67,1a4,4 0 0 1 -2.58,0.93a3.34,3.34 0 0 1 -2.69,-1.16a4.71,4.71 0 0 1 -1,-3.18a5.7,5.7 0 0 1 0.46,-2.39a3.69,3.69 0 0 1 1.27,-1.57a3.45,3.45 0 0 1 2,-0.56a4,4 0 0 1 1.34,0.22z" fill="#000000" id="svg_116"/>
   <path d="m274.28,103.29l-1.47,0l0,-11.82l1.47,-0.18l0,12zm1.75,-4.7l3.45,4.7l-1.76,0l-3.34,-4.6l3.1,-3.83l1.65,0l-3.1,3.73z" fill="#000000" id="svg_117"/>
   <path d="m287.18,99.58l-5.38,0a3.3,3.3 0 0 0 0.71,2a2,2 0 0 0 1.57,0.66a3.42,3.42 0 0 0 1.12,-0.18a4.61,4.61 0 0 0 1.07,-0.56l0.64,0.88a4.71,4.71 0 0 1 -3,1.06a3.42,3.42 0 0 1 -2.74,-1.16a4.67,4.67 0 0 1 -1,-3.16a6.05,6.05 0 0 1 0.42,-2.33a3.58,3.58 0 0 1 1.22,-1.59a3,3 0 0 1 1.86,-0.58a3.15,3.15 0 0 1 2.58,1.1a4.78,4.78 0 0 1 0.89,3.06q0.07,0.43 0.04,0.8zm-1.42,-1.18a3.15,3.15 0 0 0 -0.5,-1.91a1.77,1.77 0 0 0 -1.49,-0.65c-1.2,0 -1.86,0.88 -2,2.65l4,0l-0.01,-0.09z" fill="#000000" id="svg_118"/>
   <path d="m295.41,95.36a2.66,2.66 0 0 1 0.65,1.89l0,6l-1.47,0l0,-5.8a1.85,1.85 0 0 0 -0.34,-1.26a1.25,1.25 0 0 0 -1,-0.37a1.88,1.88 0 0 0 -1.18,0.39a3.64,3.64 0 0 0 -1,1.1l0,6l-1.48,0l0,-8.45l1.27,0l0.13,1.25a3.3,3.3 0 0 1 1.11,-1.06a2.92,2.92 0 0 1 1.46,-0.38a2.34,2.34 0 0 1 1.85,0.69z" fill="#000000" id="svg_119"/>
   <path d="m310.59,116.82a2.37,2.37 0 0 1 0.7,1.89q0,3.14 -4.36,3.14l-3,0l0,-11l2.6,0a6.12,6.12 0 0 1 3.21,0.69a2.3,2.3 0 0 1 1.11,2.1a2.25,2.25 0 0 1 -0.6,1.6a2.6,2.6 0 0 1 -1.46,0.81a3.75,3.75 0 0 1 1.8,0.77zm-5.18,-4.8l0,3.48l1.66,0a2.56,2.56 0 0 0 1.58,-0.47a1.53,1.53 0 0 0 0.61,-1.31a1.39,1.39 0 0 0 -0.65,-1.33a4.12,4.12 0 0 0 -2,-0.37l-1.2,0zm3.57,8.21a1.57,1.57 0 0 0 0.71,-1.52a1.8,1.8 0 0 0 -0.68,-1.57a3.09,3.09 0 0 0 -1.8,-0.47l-1.8,0l0,4l1.52,0a4.21,4.21 0 0 0 2.07,-0.44l-0.02,0z" fill="#000000" id="svg_120"/>
   <path d="m319.87,118.14l-5.38,0a3.27,3.27 0 0 0 0.71,2a2,2 0 0 0 1.57,0.66a3.7,3.7 0 0 0 1.12,-0.17a4.68,4.68 0 0 0 1.07,-0.57l0.64,0.88a4.65,4.65 0 0 1 -3,1.06a3.41,3.41 0 0 1 -2.74,-1.15a4.72,4.72 0 0 1 -1,-3.17a6.09,6.09 0 0 1 0.42,-2.33a3.64,3.64 0 0 1 1.22,-1.59a3.07,3.07 0 0 1 1.86,-0.58a3.13,3.13 0 0 1 2.58,1.11a4.74,4.74 0 0 1 0.89,3c0.07,0.34 0.06,0.59 0.04,0.85zm-1.42,-1.14a3.12,3.12 0 0 0 -0.5,-1.9a1.75,1.75 0 0 0 -1.49,-0.66c-1.2,0 -1.86,0.89 -2,2.66l4,0l-0.01,-0.1z" fill="#000000" id="svg_121"/>
   <path d="m322.73,121.55a1.86,1.86 0 0 1 -0.48,-1.37l0,-10.18l1.48,-0.17l0,10.3a0.89,0.89 0 0 0 0.12,0.52a0.48,0.48 0 0 0 0.4,0.15a1.55,1.55 0 0 0 0.55,-0.09l0.38,1a2.42,2.42 0 0 1 -1.18,0.29a1.67,1.67 0 0 1 -1.27,-0.45z" fill="#000000" id="svg_122"/>
   <path d="m333.2,118.14l-5.38,0a3.27,3.27 0 0 0 0.71,2a2,2 0 0 0 1.56,0.66a3.6,3.6 0 0 0 1.12,-0.17a4.73,4.73 0 0 0 1.08,-0.57l0.64,0.88a4.65,4.65 0 0 1 -2.93,1.06a3.39,3.39 0 0 1 -2.74,-1.15a4.72,4.72 0 0 1 -1,-3.17a5.9,5.9 0 0 1 0.43,-2.33a3.7,3.7 0 0 1 1.21,-1.59a3.44,3.44 0 0 1 4.44,0.53a4.68,4.68 0 0 1 0.9,3c-0.01,0.34 -0.02,0.59 -0.04,0.85zm-1.43,-1.14a3.12,3.12 0 0 0 -0.49,-1.9a1.75,1.75 0 0 0 -1.49,-0.66c-1.21,0 -1.86,0.89 -2,2.66l3.95,0l0.03,-0.1z" fill="#000000" id="svg_123"/>
   <path d="m341.81,114.38a5.47,5.47 0 0 1 0.84,3.24a6.16,6.16 0 0 1 -0.4,2.32a3.46,3.46 0 0 1 -1.15,1.55a2.88,2.88 0 0 1 -1.76,0.55a2.79,2.79 0 0 1 -2.24,-1.12l-0.14,0.93l-1.3,0l0,-11.85l1.47,-0.17l0,4.62a2.84,2.84 0 0 1 2.39,-1.25a2.71,2.71 0 0 1 2.29,1.18zm-1.29,5.7a4.35,4.35 0 0 0 0.55,-2.46a4.57,4.57 0 0 0 -0.51,-2.47a1.67,1.67 0 0 0 -1.46,-0.76a2.39,2.39 0 0 0 -2,1.32l0,4a2.63,2.63 0 0 0 0.83,0.83a1.93,1.93 0 0 0 1,0.3a1.76,1.76 0 0 0 1.59,-0.76z" fill="#000000" id="svg_124"/>
   <path d="m351.44,121.85l-1.27,0l-0.11,-1.31a3.26,3.26 0 0 1 -1.1,1.14a3,3 0 0 1 -1.52,0.36a2.22,2.22 0 0 1 -1.73,-0.67a2.68,2.68 0 0 1 -0.63,-1.91l0,-6l1.48,0l0,5.88a1.94,1.94 0 0 0 0.3,1.23a1.22,1.22 0 0 0 1,0.36a2.5,2.5 0 0 0 2.11,-1.46l0,-6l1.48,0l-0.01,8.38z" fill="#000000" id="svg_125"/>
   <path d="m360.25,113.91a2.66,2.66 0 0 1 0.64,1.89l0,6l-1.47,0l0,-5.8a1.81,1.81 0 0 0 -0.34,-1.26a1.25,1.25 0 0 0 -1,-0.37a1.89,1.89 0 0 0 -1.18,0.38a4.08,4.08 0 0 0 -1,1.1l0,6l-1.47,0l0,-8.43l1.26,0l0.13,1.25a3.3,3.3 0 0 1 1.11,-1.06a2.84,2.84 0 0 1 1.47,-0.39a2.37,2.37 0 0 1 1.85,0.69z" fill="#000000" id="svg_126"/>
   <path d="m370.65,113.8a4.25,4.25 0 0 1 -1,0.21c-0.39,0 -0.86,0 -1.41,0a2.21,2.21 0 0 1 1.49,2.12a2.67,2.67 0 0 1 -0.87,2.07a3.33,3.33 0 0 1 -2.35,0.8a3.38,3.38 0 0 1 -1.07,-0.16a0.93,0.93 0 0 0 -0.31,0.34a1,1 0 0 0 -0.11,0.44q0,0.69 1.11,0.69l1.34,0a3.38,3.38 0 0 1 1.5,0.31a2.35,2.35 0 0 1 1,0.83a2.07,2.07 0 0 1 0.36,1.2a2.13,2.13 0 0 1 -1,1.89a5.29,5.29 0 0 1 -2.94,0.67a6.83,6.83 0 0 1 -2.15,-0.28a2.06,2.06 0 0 1 -1.13,-0.84a2.84,2.84 0 0 1 -0.34,-1.44l1.33,0a1.41,1.41 0 0 0 0.19,0.8a1.2,1.2 0 0 0 0.69,0.45a5.11,5.11 0 0 0 1.41,0.15a4.05,4.05 0 0 0 1.9,-0.32a1.08,1.08 0 0 0 0.56,-1a1,1 0 0 0 -0.44,-0.89a2.16,2.16 0 0 0 -1.25,-0.31l-1.33,0a2.48,2.48 0 0 1 -1.62,-0.45a1.44,1.44 0 0 1 -0.56,-1.15a1.52,1.52 0 0 1 0.24,-0.8a2.51,2.51 0 0 1 0.69,-0.69a2.39,2.39 0 0 1 -1.42,-2.33a2.8,2.8 0 0 1 0.42,-1.52a2.84,2.84 0 0 1 1.17,-1.05a3.65,3.65 0 0 1 1.66,-0.38a10.29,10.29 0 0 0 1.66,-0.07a5.85,5.85 0 0 0 1.11,-0.24a11.27,11.27 0 0 0 1.08,-0.44l0.39,1.39zm-5.57,1a2,2 0 0 0 -0.46,1.37a2,2 0 0 0 0.46,1.38a1.67,1.67 0 0 0 1.32,0.52a1.73,1.73 0 0 0 1.32,-0.5a2.07,2.07 0 0 0 0.45,-1.42c0,-1.25 -0.6,-1.87 -1.8,-1.87a1.6,1.6 0 0 0 -1.29,0.52z" fill="#000000" id="svg_127"/>
   <path d="m376,113.46a4.56,4.56 0 0 1 1.31,0.72l-0.62,0.93a5.3,5.3 0 0 0 -1.1,-0.54a3.28,3.28 0 0 0 -1.09,-0.18a1.93,1.93 0 0 0 -1.14,0.3a0.94,0.94 0 0 0 -0.41,0.81a1,1 0 0 0 0.39,0.8a4.53,4.53 0 0 0 1.41,0.56a5,5 0 0 1 2.11,1a2.09,2.09 0 0 1 0.69,1.66a2.15,2.15 0 0 1 -1,1.9a4.12,4.12 0 0 1 -2.36,0.66a4.7,4.7 0 0 1 -3.19,-1.1l0.79,-0.9a3.82,3.82 0 0 0 2.36,0.82a2.22,2.22 0 0 0 1.32,-0.35a1.07,1.07 0 0 0 0.49,-0.93a1.32,1.32 0 0 0 -0.17,-0.7a1.46,1.46 0 0 0 -0.61,-0.46a7.62,7.62 0 0 0 -1.18,-0.46a4.33,4.33 0 0 1 -1.94,-0.94a2,2 0 0 1 -0.6,-1.51a2,2 0 0 1 0.39,-1.19a2.64,2.64 0 0 1 1.09,-0.83a3.88,3.88 0 0 1 1.56,-0.3a4.67,4.67 0 0 1 1.5,0.23z" fill="#000000" id="svg_128"/>
   <path d="m385.79,114.38a5.47,5.47 0 0 1 0.85,3.24a6.37,6.37 0 0 1 -0.4,2.32a3.55,3.55 0 0 1 -1.16,1.55a2.86,2.86 0 0 1 -1.76,0.55a2.79,2.79 0 0 1 -2.24,-1.12l-0.14,0.93l-1.3,0l0,-11.85l1.48,-0.17l0,4.62a2.81,2.81 0 0 1 2.38,-1.25a2.71,2.71 0 0 1 2.29,1.18zm-1.29,5.7a4.35,4.35 0 0 0 0.55,-2.46a4.57,4.57 0 0 0 -0.51,-2.47a1.67,1.67 0 0 0 -1.46,-0.76a2.37,2.37 0 0 0 -2,1.32l0,4a2.5,2.5 0 0 0 0.82,0.83a2,2 0 0 0 1,0.3a1.76,1.76 0 0 0 1.6,-0.76z" fill="#000000" id="svg_129"/>
   <path d="m395.48,118.14l-5.37,0a3.27,3.27 0 0 0 0.7,2a2,2 0 0 0 1.57,0.66a3.6,3.6 0 0 0 1.12,-0.17a4.48,4.48 0 0 0 1.07,-0.57l0.64,0.88a4.62,4.62 0 0 1 -2.94,1.06a3.42,3.42 0 0 1 -2.75,-1.15a4.77,4.77 0 0 1 -1,-3.17a6.09,6.09 0 0 1 0.42,-2.33a3.71,3.71 0 0 1 1.22,-1.59a3.44,3.44 0 0 1 4.44,0.53a4.68,4.68 0 0 1 0.9,3c0.02,0.34 0,0.59 -0.02,0.85zm-1.42,-1.14a3.12,3.12 0 0 0 -0.5,-1.9a1.73,1.73 0 0 0 -1.48,-0.66c-1.21,0 -1.87,0.89 -2,2.66l3.95,0l0.03,-0.1z" fill="#000000" id="svg_130"/>
   <path d="m402.4,113.44a3.91,3.91 0 0 1 1.2,0.7l-0.71,0.92a3.74,3.74 0 0 0 -0.87,-0.47a2.77,2.77 0 0 0 -0.94,-0.15a1.82,1.82 0 0 0 -1.59,0.82a4.2,4.2 0 0 0 -0.57,2.41a4,4 0 0 0 0.56,2.36a1.87,1.87 0 0 0 1.6,0.76a2.69,2.69 0 0 0 0.92,-0.15a4.41,4.41 0 0 0 0.92,-0.49l0.68,1a4,4 0 0 1 -2.6,0.85a3.33,3.33 0 0 1 -2.69,-1.15a4.73,4.73 0 0 1 -1,-3.18a5.74,5.74 0 0 1 0.45,-2.36a3.68,3.68 0 0 1 1.27,-1.57a3.42,3.42 0 0 1 2,-0.56a4.34,4.34 0 0 1 1.37,0.26z" fill="#000000" id="svg_131"/>
   <path d="m407.07,121.85l-1.47,0l0,-11.85l1.47,-0.17l0,12.02zm1.74,-4.71l3.46,4.71l-1.76,0l-3.35,-4.61l3.11,-3.82l1.65,0l-3.11,3.72z" fill="#000000" id="svg_132"/>
   <path d="m420,118.14l-5.37,0a3.27,3.27 0 0 0 0.7,2a2,2 0 0 0 1.57,0.66a3.6,3.6 0 0 0 1.12,-0.17a4.48,4.48 0 0 0 1.07,-0.57l0.64,0.88a4.62,4.62 0 0 1 -2.94,1.06a3.43,3.43 0 0 1 -2.75,-1.15a4.77,4.77 0 0 1 -1,-3.17a6.09,6.09 0 0 1 0.42,-2.33a3.71,3.71 0 0 1 1.22,-1.59a3.44,3.44 0 0 1 4.44,0.53a4.68,4.68 0 0 1 0.9,3a6.56,6.56 0 0 1 -0.02,0.85zm-1.46,-1.14a3.05,3.05 0 0 0 -0.5,-1.9a1.73,1.73 0 0 0 -1.48,-0.66c-1.21,0 -1.86,0.89 -2,2.66l4,0l-0.02,-0.1z" fill="#000000" id="svg_133"/>
   <path d="m428.2,113.91a2.66,2.66 0 0 1 0.64,1.89l0,6l-1.47,0l0,-5.8a1.87,1.87 0 0 0 -0.33,-1.26a1.28,1.28 0 0 0 -1,-0.37a1.89,1.89 0 0 0 -1.18,0.38a4.08,4.08 0 0 0 -1,1.1l0,6l-1.47,0l0,-8.43l1.26,0l0.13,1.25a3.3,3.3 0 0 1 1.11,-1.06a2.86,2.86 0 0 1 1.47,-0.39a2.37,2.37 0 0 1 1.84,0.69z" fill="#000000" id="svg_134"/>
   <path d="m410.11,84.67l-2,0l-4.49,-9.36c0.07,0.73 0.12,1.41 0.16,2s0.05,1.38 0.05,2.26l0,5.06l-1.42,0l0,-11l2,0l4.48,9.37c0,-0.28 -0.07,-0.76 -0.13,-1.45s-0.08,-1.33 -0.08,-1.91l0,-6l1.43,0l0,11.03z" fill="#000000" id="svg_135"/>
   <path d="m419.08,83.46a1.12,1.12 0 0 0 0.53,0.38l-0.33,1a2.26,2.26 0 0 1 -1.06,-0.37a1.62,1.62 0 0 1 -0.59,-0.89a2.84,2.84 0 0 1 -2.51,1.26a2.68,2.68 0 0 1 -2,-0.7a2.47,2.47 0 0 1 -0.72,-1.84a2.41,2.41 0 0 1 1,-2.07a4.51,4.51 0 0 1 2.74,-0.72l1.3,0l0,-0.62a1.62,1.62 0 0 0 -0.44,-1.28a1.94,1.94 0 0 0 -1.33,-0.38a7.4,7.4 0 0 0 -2.27,0.44l-0.4,-1.05a8.54,8.54 0 0 1 3,-0.62a3.06,3.06 0 0 1 2.22,0.73a2.8,2.8 0 0 1 0.74,2.07l0,3.9a1.38,1.38 0 0 0 0.12,0.76zm-1.64,-1l0,-1.95l-1.11,0c-1.56,0 -2.33,0.57 -2.33,1.73a1.58,1.58 0 0 0 0.36,1.13a1.44,1.44 0 0 0 1.09,0.39a2.21,2.21 0 0 0 1.99,-1.31l0,0.01z" fill="#000000" id="svg_136"/>
   <path d="m426.38,76.26a4,4 0 0 1 1.2,0.7l-0.7,0.92a3.6,3.6 0 0 0 -0.88,-0.47a2.75,2.75 0 0 0 -0.93,-0.15a1.83,1.83 0 0 0 -1.6,0.82a4.29,4.29 0 0 0 -0.56,2.41a3.93,3.93 0 0 0 0.56,2.36a1.85,1.85 0 0 0 1.6,0.76a2.67,2.67 0 0 0 0.91,-0.15a4.22,4.22 0 0 0 0.93,-0.49l0.67,1a4,4 0 0 1 -2.58,0.93a3.33,3.33 0 0 1 -2.69,-1.15a4.73,4.73 0 0 1 -1,-3.18a5.74,5.74 0 0 1 0.45,-2.36a3.68,3.68 0 0 1 1.24,-1.61a3.45,3.45 0 0 1 2,-0.56a4.34,4.34 0 0 1 1.38,0.22z" fill="#000000" id="svg_137"/>
   <path d="m435.35,76.73a2.66,2.66 0 0 1 0.65,1.89l0,6l-1.48,0l0,-5.79a1.81,1.81 0 0 0 -0.34,-1.26a1.28,1.28 0 0 0 -1,-0.37a1.93,1.93 0 0 0 -1.17,0.38a4.18,4.18 0 0 0 -1,1.09l0,6l-1.47,0l0,-11.81l1.47,-0.16l0,4.71a3,3 0 0 1 2.5,-1.37a2.36,2.36 0 0 1 1.84,0.69z" fill="#000000" id="svg_138"/>
   <path d="m440.43,84.67l-1.43,0l0,-11.83l1.47,-0.17l-0.04,12zm1.74,-4.67l3.46,4.71l-1.76,0l-3.35,-4.61l3.11,-3.82l1.64,0l-3.1,3.72z" fill="#000000" id="svg_139"/>
   <path d="m447.54,84.37a1.85,1.85 0 0 1 -0.47,-1.37l0,-10.16l1.47,-0.17l0,10.33a0.89,0.89 0 0 0 0.12,0.52a0.5,0.5 0 0 0 0.41,0.15a1.53,1.53 0 0 0 0.54,-0.09l0.39,1a2.47,2.47 0 0 1 -1.17,0.29a1.68,1.68 0 0 1 -1.29,-0.5z" fill="#000000" id="svg_140"/>
   <path d="m457.69,83.46a1.07,1.07 0 0 0 0.53,0.38l-0.34,1a2.21,2.21 0 0 1 -1.05,-0.37a1.68,1.68 0 0 1 -0.6,-0.89a2.82,2.82 0 0 1 -2.51,1.26a2.7,2.7 0 0 1 -2,-0.7a2.46,2.46 0 0 1 -0.71,-1.84a2.43,2.43 0 0 1 1,-2.07a4.55,4.55 0 0 1 2.75,-0.72l1.24,0l0,-0.62a1.62,1.62 0 0 0 -0.43,-1.28a1.94,1.94 0 0 0 -1.33,-0.38a7.35,7.35 0 0 0 -2.27,0.44l-0.37,-1.07a8.63,8.63 0 0 1 2.91,-0.58a3.07,3.07 0 0 1 2.23,0.73a2.8,2.8 0 0 1 0.73,2.07l0,3.88a1.29,1.29 0 0 0 0.22,0.76zm-4.23,-10.82a0.92,0.92 0 0 1 0.26,0.65a0.91,0.91 0 0 1 -0.26,0.65a0.93,0.93 0 0 1 -1.58,-0.65a0.91,0.91 0 0 1 0.93,-0.91a0.91,0.91 0 0 1 0.65,0.26zm2.54,9.81l0,-1.94l-1.1,0c-1.56,0 -2.34,0.57 -2.34,1.73a1.58,1.58 0 0 0 0.37,1.13a1.44,1.44 0 0 0 1.09,0.39a2.2,2.2 0 0 0 1.98,-1.31zm0.78,-9.81a0.88,0.88 0 0 1 0.26,0.65a0.87,0.87 0 0 1 -0.26,0.65a0.9,0.9 0 0 1 -0.67,0.27a0.85,0.85 0 0 1 -0.64,-0.27a0.88,0.88 0 0 1 -0.27,-0.65a0.9,0.9 0 0 1 0.91,-0.91a0.94,0.94 0 0 1 0.71,0.26l-0.04,0z" fill="#000000" id="svg_141"/>
   <path d="m465,76.14l-0.28,1.44a3.17,3.17 0 0 0 -0.73,-0.09a1.57,1.57 0 0 0 -1.27,0.57a4.29,4.29 0 0 0 -0.75,1.79l0,4.82l-1.47,0l0,-8.43l1.26,0l0.24,1.76a3,3 0 0 1 0.91,-1.42a2,2 0 0 1 1.29,-0.58a3.72,3.72 0 0 1 0.8,0.14z" fill="#000000" id="svg_142"/>
   <path d="m472.86,77.21a5.43,5.43 0 0 1 0.85,3.24a6.35,6.35 0 0 1 -0.4,2.31a3.48,3.48 0 0 1 -1.16,1.55a2.86,2.86 0 0 1 -1.76,0.55a2.79,2.79 0 0 1 -2.24,-1.12l-0.14,0.93l-1.3,0l0,-11.83l1.48,-0.17l0,4.62a2.81,2.81 0 0 1 2.38,-1.29a2.69,2.69 0 0 1 2.29,1.21zm-1.29,5.69a4.33,4.33 0 0 0 0.55,-2.45a4.59,4.59 0 0 0 -0.51,-2.48a1.67,1.67 0 0 0 -1.46,-0.76a2.37,2.37 0 0 0 -2,1.32l0,4a2.5,2.5 0 0 0 0.82,0.83a2,2 0 0 0 1,0.3a1.76,1.76 0 0 0 1.6,-0.76z" fill="#000000" id="svg_143"/>
   <path d="m482.55,81l-5.37,0a3.27,3.27 0 0 0 0.7,2a2,2 0 0 0 1.57,0.66a3.6,3.6 0 0 0 1.12,-0.17a4.48,4.48 0 0 0 1.07,-0.57l0.64,0.88a4.62,4.62 0 0 1 -2.94,1.06a3.43,3.43 0 0 1 -2.75,-1.15a4.77,4.77 0 0 1 -1,-3.17a6.09,6.09 0 0 1 0.42,-2.33a3.71,3.71 0 0 1 1.22,-1.59a3.44,3.44 0 0 1 4.44,0.53a4.69,4.69 0 0 1 0.9,3.06a6.51,6.51 0 0 1 -0.02,0.79zm-1.42,-1.19a3.12,3.12 0 0 0 -0.5,-1.9a1.73,1.73 0 0 0 -1.48,-0.66c-1.21,0 -1.86,0.89 -2,2.66l3.95,0l0.03,-0.1z" fill="#000000" id="svg_144"/>
   <path d="m489.47,76.26a4.12,4.12 0 0 1 1.2,0.7l-0.71,0.92a3.74,3.74 0 0 0 -0.87,-0.47a2.77,2.77 0 0 0 -0.94,-0.15a1.82,1.82 0 0 0 -1.59,0.82a4.2,4.2 0 0 0 -0.57,2.41a4,4 0 0 0 0.56,2.36a1.87,1.87 0 0 0 1.6,0.76a2.73,2.73 0 0 0 0.92,-0.15a4.41,4.41 0 0 0 0.93,-0.46l0.68,1a4,4 0 0 1 -2.58,0.93a3.37,3.37 0 0 1 -2.7,-1.15a4.78,4.78 0 0 1 -1,-3.18a5.74,5.74 0 0 1 0.45,-2.36a3.68,3.68 0 0 1 1.27,-1.57a3.42,3.42 0 0 1 2,-0.56a4.34,4.34 0 0 1 1.35,0.15z" fill="#000000" id="svg_145"/>
   <path d="m494.14,84.67l-1.47,0l0,-11.83l1.47,-0.17l0,12zm1.74,-4.67l3.46,4.71l-1.76,0l-3.35,-4.61l3.11,-3.82l1.66,0l-3.12,3.72z" fill="#000000" id="svg_146"/>
   <path d="m507,81l-5.37,0a3.27,3.27 0 0 0 0.7,2a2,2 0 0 0 1.57,0.66a3.65,3.65 0 0 0 1.12,-0.17a4.48,4.48 0 0 0 1.07,-0.57l0.64,0.88a4.62,4.62 0 0 1 -2.94,1.06a3.42,3.42 0 0 1 -2.75,-1.15a4.77,4.77 0 0 1 -1,-3.17a6.09,6.09 0 0 1 0.42,-2.33a3.71,3.71 0 0 1 1.22,-1.59a3.44,3.44 0 0 1 4.44,0.53a4.69,4.69 0 0 1 0.9,3.06c0.05,0.24 0.03,0.49 -0.02,0.79zm-1.42,-1.19a3.12,3.12 0 0 0 -0.5,-1.9a1.73,1.73 0 0 0 -1.48,-0.66c-1.21,0 -1.87,0.89 -2,2.66l3.95,0l0.03,-0.1z" fill="#000000" id="svg_147"/>
   <path d="m515.27,76.73a2.66,2.66 0 0 1 0.64,1.89l0,6l-1.47,0l0,-5.79a1.87,1.87 0 0 0 -0.33,-1.26a1.28,1.28 0 0 0 -1,-0.37a2,2 0 0 0 -1.18,0.38a4.24,4.24 0 0 0 -1,1.1l0,6l-1.43,0l0,-8.44l1.26,0l0.13,1.25a3.3,3.3 0 0 1 1.11,-1.06a2.84,2.84 0 0 1 1.47,-0.39a2.37,2.37 0 0 1 1.8,0.69z" fill="#000000" id="svg_148"/>
   <path d="m134.07,121.22a5.19,5.19 0 0 1 1.52,1l-0.84,0.93a4.53,4.53 0 0 0 -1.22,-0.73a3.65,3.65 0 0 0 -1.29,-0.23a2.36,2.36 0 0 0 -1.42,0.4a1.33,1.33 0 0 0 -0.56,1.17a1.51,1.51 0 0 0 0.19,0.8a1.75,1.75 0 0 0 0.71,0.6a8.43,8.43 0 0 0 1.51,0.58a9.13,9.13 0 0 1 1.73,0.69a2.81,2.81 0 0 1 1.54,2.65a3.12,3.12 0 0 1 -0.47,1.7a3.22,3.22 0 0 1 -1.36,1.15a4.93,4.93 0 0 1 -2.11,0.42a5.13,5.13 0 0 1 -3.74,-1.43l0.85,-0.94a5,5 0 0 0 1.34,0.84a4,4 0 0 0 1.54,0.28a2.78,2.78 0 0 0 1.69,-0.5a1.73,1.73 0 0 0 0.67,-1.47a1.87,1.87 0 0 0 -0.2,-0.9a1.85,1.85 0 0 0 -0.72,-0.65a7.69,7.69 0 0 0 -1.43,-0.58a6.41,6.41 0 0 1 -2.48,-1.23a2.52,2.52 0 0 1 -0.78,-1.95a2.58,2.58 0 0 1 0.44,-1.49a2.83,2.83 0 0 1 1.23,-1a4.17,4.17 0 0 1 1.8,-0.37a5.13,5.13 0 0 1 1.86,0.26z" fill="#000000" id="svg_149"/>
   <path d="m144,130.92a1.1,1.1 0 0 0 0.53,0.37l-0.33,1a2.37,2.37 0 0 1 -1.06,-0.37a1.66,1.66 0 0 1 -0.59,-0.9a2.82,2.82 0 0 1 -2.51,1.27a2.69,2.69 0 0 1 -2,-0.71a2.46,2.46 0 0 1 -0.72,-1.84a2.41,2.41 0 0 1 1,-2.06a4.51,4.51 0 0 1 2.68,-0.68l1.3,0l0,-0.62a1.62,1.62 0 0 0 -0.44,-1.28a1.91,1.91 0 0 0 -1.32,-0.39a7.46,7.46 0 0 0 -2.28,0.45l-0.36,-1.07a8.31,8.31 0 0 1 2.91,-0.58a3.06,3.06 0 0 1 2.22,0.73a2.8,2.8 0 0 1 0.74,2.07l0,3.86a1.4,1.4 0 0 0 0.23,0.75zm-1.64,-1l0,-1.92l-1.16,0c-1.55,0 -2.33,0.57 -2.33,1.72a1.61,1.61 0 0 0 0.36,1.14a1.43,1.43 0 0 0 1.09,0.38a2.19,2.19 0 0 0 1.99,-1.34l0.05,0.02z" fill="#000000" id="svg_150"/>
   <path d="m152.57,124.19a2.66,2.66 0 0 1 0.65,1.89l0,6l-1.47,0l0,-5.84a1.91,1.91 0 0 0 -0.34,-1.27a1.28,1.28 0 0 0 -1,-0.37a1.93,1.93 0 0 0 -1.19,0.39a3.93,3.93 0 0 0 -1,1.1l0,6l-1.42,0l0,-8.44l1.27,0l0.12,1.25a3.21,3.21 0 0 1 1.12,-1a2.83,2.83 0 0 1 1.46,-0.39a2.34,2.34 0 0 1 1.8,0.68z" fill="#000000" id="svg_151"/>
   <path d="m162.71,120.3l0,11.83l-1.3,0l-0.14,-1.17a3.2,3.2 0 0 1 -1,1a2.75,2.75 0 0 1 -1.4,0.36a2.71,2.71 0 0 1 -2.34,-1.19a5.4,5.4 0 0 1 -0.84,-3.18a6.13,6.13 0 0 1 0.4,-2.3a3.57,3.57 0 0 1 1.15,-1.58a2.83,2.83 0 0 1 1.76,-0.57a3,3 0 0 1 2.27,1l0,-4.41l1.44,0.21zm-2.4,10.54a3.44,3.44 0 0 0 0.92,-0.94l0,-4.13a3.2,3.2 0 0 0 -0.88,-0.82a2,2 0 0 0 -1.07,-0.28a1.7,1.7 0 0 0 -1.51,0.82a4.42,4.42 0 0 0 -0.54,2.43a4.69,4.69 0 0 0 0.5,2.43a1.59,1.59 0 0 0 1.42,0.8a2.07,2.07 0 0 0 1.16,-0.31z" fill="#000000" id="svg_152"/>
   <path d="m167.65,121.61a1.27,1.27 0 0 0 -0.29,0.92l0,1.16l2,0l-0.16,1.14l-1.89,0l0,7.3l-1.47,0l0,-7.3l-1.5,0l0,-1.14l1.5,0l0,-1.15a2.29,2.29 0 0 1 0.7,-1.75a2.7,2.7 0 0 1 1.94,-0.66a4.61,4.61 0 0 1 1,0.1a6,6 0 0 1 1,0.33l-0.47,1.07a3.64,3.64 0 0 0 -1.47,-0.32a1.28,1.28 0 0 0 -0.89,0.3z" fill="#000000" id="svg_153"/>
   <path d="m177,130.92a1.1,1.1 0 0 0 0.53,0.37l-0.34,1a2.33,2.33 0 0 1 -1.05,-0.37a1.61,1.61 0 0 1 -0.59,-0.9a2.84,2.84 0 0 1 -2.52,1.27a2.68,2.68 0 0 1 -2,-0.71a2.46,2.46 0 0 1 -0.72,-1.84a2.42,2.42 0 0 1 1,-2.06a4.55,4.55 0 0 1 2.69,-0.68l1.29,0l0,-0.62a1.62,1.62 0 0 0 -0.43,-1.28a1.94,1.94 0 0 0 -1.33,-0.39a7.46,7.46 0 0 0 -2.27,0.45l-0.37,-1.07a8.4,8.4 0 0 1 2.92,-0.58a3.06,3.06 0 0 1 2.22,0.73a2.8,2.8 0 0 1 0.74,2.07l0,3.86a1.32,1.32 0 0 0 0.23,0.75zm-1.65,-1l0,-1.92l-1.1,0c-1.56,0 -2.34,0.57 -2.34,1.72a1.61,1.61 0 0 0 0.37,1.14a1.43,1.43 0 0 0 1.09,0.38a2.18,2.18 0 0 0 1.94,-1.34l0.04,0.02z" fill="#000000" id="svg_154"/>
   <path d="m185.58,124.19a2.66,2.66 0 0 1 0.65,1.89l0,6l-1.48,0l0,-5.84a1.92,1.92 0 0 0 -0.33,-1.27a1.31,1.31 0 0 0 -1,-0.37a1.91,1.91 0 0 0 -1.19,0.39a3.93,3.93 0 0 0 -1,1.1l0,6l-1.47,0l0,-8.44l1.26,0l0.13,1.25a3.27,3.27 0 0 1 1.11,-1a2.86,2.86 0 0 1 1.47,-0.39a2.34,2.34 0 0 1 1.85,0.68z" fill="#000000" id="svg_155"/>
   <path d="m196,124.08a5.53,5.53 0 0 1 -1.06,0.21c-0.38,0 -0.85,0 -1.41,0a2.24,2.24 0 0 1 1.49,2.13a2.73,2.73 0 0 1 -0.86,2.07a3.36,3.36 0 0 1 -2.36,0.8a3.69,3.69 0 0 1 -1.07,-0.16a0.83,0.83 0 0 0 -0.3,0.34a0.87,0.87 0 0 0 -0.11,0.44c0,0.46 0.36,0.69 1.1,0.69l1.34,0a3.6,3.6 0 0 1 1.51,0.3a2.45,2.45 0 0 1 1,0.83a2.12,2.12 0 0 1 0.36,1.2a2.14,2.14 0 0 1 -1,1.9a5.44,5.44 0 0 1 -2.95,0.66a6.55,6.55 0 0 1 -2.15,-0.28a2,2 0 0 1 -1.13,-0.84a2.79,2.79 0 0 1 -0.33,-1.44l1.32,0a1.45,1.45 0 0 0 0.2,0.81a1.14,1.14 0 0 0 0.68,0.45a5.11,5.11 0 0 0 1.41,0.15a4,4 0 0 0 1.9,-0.33a1.06,1.06 0 0 0 0.57,-1a1,1 0 0 0 -0.45,-0.9a2.24,2.24 0 0 0 -1.25,-0.3l-1.33,0a2.46,2.46 0 0 1 -1.62,-0.46a1.4,1.4 0 0 1 -0.55,-1.14a1.49,1.49 0 0 1 0.24,-0.8a2.23,2.23 0 0 1 0.68,-0.69a2.39,2.39 0 0 1 -1.42,-2.33a2.78,2.78 0 0 1 0.42,-1.52a3,3 0 0 1 1.17,-1.05a3.65,3.65 0 0 1 1.66,-0.38a11.59,11.59 0 0 0 1.66,-0.07a5.85,5.85 0 0 0 1.11,-0.24c0.3,-0.1 0.66,-0.25 1.08,-0.44l0.45,1.39zm-5.58,1a2.27,2.27 0 0 0 0,2.75a1.65,1.65 0 0 0 1.31,0.52a1.7,1.7 0 0 0 1.32,-0.5a2.07,2.07 0 0 0 0.46,-1.42a1.63,1.63 0 0 0 -1.81,-1.87a1.6,1.6 0 0 0 -1.29,0.52l0.01,0z" fill="#000000" id="svg_156"/>
   <line x1="53.66" y1="135.53" x2="53.66" y2="147.55" fill="none" stroke="#000000" stroke-miterlimit="10" stroke-width="0.75" id="svg_157"/>
   <line x1="158.87" y1="135.53" x2="158.87" y2="147.55" fill="none" stroke="#000000" stroke-miterlimit="10" stroke-width="0.75" id="svg_158"/>
   <line x1="243.02" y1="108.23" x2="243.02" y2="147.55" fill="none" stroke="#000000" stroke-miterlimit="10" stroke-width="0.75" id="svg_159"/>
   <line x1="355.13" y1="126.83" x2="355.13" y2="147.55" fill="none" stroke="#000000" stroke-miterlimit="10" stroke-width="0.75" id="svg_160"/>
   <path d="m328.17,300.3l-4.17,0l0,3.76l3.6,0l0,1.2l-3.6,0l0,4.85l-1.52,0l0,-11l5.86,0l-0.17,1.19z" fill="#000000" id="svg_161"/>
   <path d="m335.56,308.9a1.12,1.12 0 0 0 0.53,0.38l-0.33,1a2.26,2.26 0 0 1 -1.06,-0.37a1.67,1.67 0 0 1 -0.59,-0.89a2.83,2.83 0 0 1 -2.51,1.26a2.68,2.68 0 0 1 -2,-0.7a2.47,2.47 0 0 1 -0.72,-1.84a2.41,2.41 0 0 1 1,-2.07a4.51,4.51 0 0 1 2.74,-0.72l1.3,0l0,-0.62a1.64,1.64 0 0 0 -0.44,-1.28a1.91,1.91 0 0 0 -1.32,-0.38a7.4,7.4 0 0 0 -2.28,0.44l-0.36,-1.07a8.51,8.51 0 0 1 2.91,-0.57a3.06,3.06 0 0 1 2.22,0.72a2.81,2.81 0 0 1 0.74,2.08l0,3.85a1.38,1.38 0 0 0 0.17,0.78zm-1.64,-1l0,-1.9l-1.11,0c-1.56,0 -2.33,0.58 -2.33,1.73a1.58,1.58 0 0 0 0.36,1.13a1.44,1.44 0 0 0 1.09,0.39a2.21,2.21 0 0 0 1.99,-1.36l0,0.01z" fill="#000000" id="svg_162"/>
   <path d="m344.68,310.11l-1.26,0l-0.11,-1.31a3.2,3.2 0 0 1 -1.11,1.14a3,3 0 0 1 -1.52,0.36a2.22,2.22 0 0 1 -1.72,-0.67a2.67,2.67 0 0 1 -0.63,-1.9l0,-6.05l1.47,0l0,5.89a1.86,1.86 0 0 0 0.31,1.22a1.22,1.22 0 0 0 1,0.36a2.51,2.51 0 0 0 2.11,-1.46l0,-6l1.47,0l-0.01,8.42z" fill="#000000" id="svg_163"/>
   <path d="m348.12,309.81a1.85,1.85 0 0 1 -0.48,-1.36l0,-10.16l1.48,-0.18l0,10.3a0.89,0.89 0 0 0 0.12,0.52a0.48,0.48 0 0 0 0.4,0.15a1.55,1.55 0 0 0 0.55,-0.09l0.38,1a2.31,2.31 0 0 1 -1.17,0.29a1.67,1.67 0 0 1 -1.28,-0.47z" fill="#000000" id="svg_164"/>
   <path d="m356.67,309.73a3.29,3.29 0 0 1 -1.89,0.57a2.21,2.21 0 0 1 -1.67,-0.61a2.48,2.48 0 0 1 -0.6,-1.79l0,-5.09l-1.51,0l0,-1.13l1.47,0l0,-1.91l1.47,-0.17l0,2.08l2,0l-0.16,1.13l-1.78,0l0,5a1.6,1.6 0 0 0 0.23,1a0.92,0.92 0 0 0 0.78,0.29a2.19,2.19 0 0 0 1.12,-0.36l0.54,0.99z" fill="#000000" id="svg_165"/>
   <path d="m364.46,310.11l-1.26,0l-0.12,-1.31a3.18,3.18 0 0 1 -1.1,1.14a3,3 0 0 1 -1.52,0.36a2.24,2.24 0 0 1 -1.73,-0.67a2.72,2.72 0 0 1 -0.62,-1.9l0,-6.05l1.47,0l0,5.89a1.93,1.93 0 0 0 0.3,1.22a1.26,1.26 0 0 0 1,0.36a2.51,2.51 0 0 0 2.11,-1.46l0,-6l1.47,0l0,8.42z" fill="#000000" id="svg_166"/>
   <path d="m372,301.58l-0.28,1.44a3.17,3.17 0 0 0 -0.73,-0.09a1.57,1.57 0 0 0 -1.27,0.57a4.29,4.29 0 0 0 -0.75,1.79l0,4.82l-1.47,0l0,-8.43l1.26,0l0.15,1.71a3.1,3.1 0 0 1 0.91,-1.42a2,2 0 0 1 1.34,-0.48a3.73,3.73 0 0 1 0.84,0.09z" fill="#000000" id="svg_167"/>
   <path d="m383.8,302.18a2.7,2.7 0 0 1 0.63,1.88l0,6.05l-1.43,0l0,-5.84c0,-1.09 -0.39,-1.63 -1.18,-1.63a1.6,1.6 0 0 0 -1.06,0.36a5.22,5.22 0 0 0 -0.92,1.12l0,6l-1.48,0l0,-5.84c0,-1.09 -0.39,-1.63 -1.18,-1.63a1.57,1.57 0 0 0 -1.07,0.37a4.81,4.81 0 0 0 -0.91,1.11l0,6l-1.48,0l0,-8.43l1.27,0l0.13,1.23a2.82,2.82 0 0 1 2.43,-1.42a2.14,2.14 0 0 1 2.13,1.52a3.81,3.81 0 0 1 1.09,-1.13a2.54,2.54 0 0 1 1.42,-0.39a2.12,2.12 0 0 1 1.61,0.67z" fill="#000000" id="svg_168"/>
   <line x1="353.03" y1="281.36" x2="353.03" y2="293.04" fill="none" stroke="#000000" stroke-miterlimit="10" stroke-width="0.75" id="svg_169"/>
   <line x1="459.4" y1="89.11" x2="459.4" y2="126.83" fill="none" stroke="#000000" stroke-miterlimit="10" stroke-width="0.75" id="svg_170"/>
  </g>
 </g>
</svg>